<svg version="1.1" viewBox="0.0 0.0 959.3307086614174 153.51968503937007" fill="none" stroke="none" stroke-linecap="square" stroke-miterlimit="10" xmlns:xlink="http://www.w3.org/1999/xlink" xmlns="http://www.w3.org/2000/svg"><clipPath id="p.0"><path d="m0 0l959.3307 0l0 153.51968l-959.3307 0l0 -153.51968z" clip-rule="nonzero"/></clipPath><g clip-path="url(#p.0)"><path fill="#000000" fill-opacity="0.0" d="m0 0l959.3307 0l0 153.51968l-959.3307 0z" fill-rule="evenodd"/><path fill="#76a5af" d="m190.99094 58.833523l68.81891 0l0 50.393703l-68.81891 0z" fill-rule="evenodd"/><path stroke="#000000" stroke-width="1.0" stroke-linejoin="round" stroke-linecap="butt" d="m190.99094 58.833523l68.81891 0l0 50.393703l-68.81891 0z" fill-rule="evenodd"/><path fill="#000000" d="m231.54881 86.50662q0.546875 -1.046875 2.96875 -2.265625l-0.03125 1.96875q-1.921875 1.671875 -2.875 3.640625l-1.09375 0q-1.0 -1.953125 -2.921875 -3.609375l-0.078125 -2.0q2.453125 1.21875 2.96875 2.3125l-0.515625 0q0 -2.140625 -1.578125 -3.703125q-1.5625 -1.578125 -3.71875 -1.578125q-2.15625 0 -3.71875 1.5625q-1.5625 1.5625 -1.5625 3.71875q0 2.15625 1.5625 3.71875q1.5625 1.5625 3.71875 1.5625q1.234375 0 2.34375 -0.546875q1.109375 -0.5625 2.203125 -2.015625l1.609375 1.375q-1.375 1.765625 -2.890625 2.53125q-1.515625 0.75 -3.265625 0.75q-1.984375 0 -3.6875 -0.984375q-1.703125 -0.984375 -2.703125 -2.703125q-0.984375 -1.71875 -0.984375 -3.6875q0 -1.984375 1.0 -3.703125q1.0 -1.71875 2.6875 -2.6875q1.703125 -0.984375 3.6875 -0.984375q1.984375 0 3.6875 1.0q1.71875 0.984375 2.703125 2.703125q1.0 1.703125 0.5 3.65625l-0.015625 -0.03125z" fill-rule="nonzero"/><path fill="#76a5af" d="m259.78192 58.833523l68.81891 0l0 50.393703l-68.81891 0z" fill-rule="evenodd"/><path stroke="#000000" stroke-width="1.0" stroke-linejoin="round" stroke-linecap="butt" d="m259.78192 58.833523l68.81891 0l0 50.393703l-68.81891 0z" fill-rule="evenodd"/><path fill="#000000" d="m300.3398 86.50662q0.546875 -1.046875 2.96875 -2.265625l-0.03125 1.96875q-1.921875 1.671875 -2.875 3.640625l-1.09375 0q-1.0 -1.953125 -2.921875 -3.609375l-0.078125 -2.0q2.453125 1.21875 2.96875 2.3125l-0.515625 0q0 -2.140625 -1.578125 -3.703125q-1.5625 -1.578125 -3.71875 -1.578125q-2.15625 0 -3.71875 1.5625q-1.5625 1.5625 -1.5625 3.71875q0 2.15625 1.5625 3.71875q1.5625 1.5625 3.71875 1.5625q1.234375 0 2.34375 -0.546875q1.109375 -0.5625 2.203125 -2.015625l1.609375 1.375q-1.375 1.765625 -2.890625 2.53125q-1.515625 0.75 -3.265625 0.75q-1.984375 0 -3.6875 -0.984375q-1.703125 -0.984375 -2.703125 -2.703125q-0.984375 -1.71875 -0.984375 -3.6875q0 -1.984375 1.0 -3.703125q1.0 -1.71875 2.6875 -2.6875q1.703125 -0.984375 3.6875 -0.984375q1.984375 0 3.6875 1.0q1.71875 0.984375 2.703125 2.703125q1.0 1.703125 0.5 3.65625l-0.015625 -0.03125z" fill-rule="nonzero"/><path fill="#76a5af" d="m466.15488 58.833523l68.81888 0l0 50.393703l-68.81888 0z" fill-rule="evenodd"/><path stroke="#000000" stroke-width="1.0" stroke-linejoin="round" stroke-linecap="butt" d="m466.15488 58.833523l68.81888 0l0 50.393703l-68.81888 0z" fill-rule="evenodd"/><path fill="#000000" d="m506.71277 86.50662q0.546875 -1.046875 2.96875 -2.265625l-0.03125 1.96875q-1.921875 1.671875 -2.875 3.640625l-1.09375 0q-1.0 -1.953125 -2.921875 -3.609375l-0.078125 -2.0q2.453125 1.21875 2.96875 2.3125l-0.515625 0q0 -2.140625 -1.578125 -3.703125q-1.5625 -1.578125 -3.71875 -1.578125q-2.15625 0 -3.71875 1.5625q-1.5625 1.5625 -1.5625 3.71875q0 2.15625 1.5625 3.71875q1.5625 1.5625 3.71875 1.5625q1.234375 0 2.34375 -0.546875q1.109375 -0.5625 2.203125 -2.015625l1.609375 1.375q-1.375 1.765625 -2.890625 2.53125q-1.515625 0.75 -3.265625 0.75q-1.984375 0 -3.6875 -0.984375q-1.703125 -0.984375 -2.703125 -2.703125q-0.984375 -1.71875 -0.984375 -3.6875q0 -1.984375 1.0 -3.703125q1.0 -1.71875 2.6875 -2.6875q1.703125 -0.984375 3.6875 -0.984375q1.984375 0 3.6875 1.0q1.71875 0.984375 2.703125 2.703125q1.0 1.703125 0.5 3.65625l-0.015625 -0.03125z" fill-rule="nonzero"/><path fill="#76a5af" d="m534.94586 58.833523l68.81891 0l0 50.393703l-68.81891 0z" fill-rule="evenodd"/><path stroke="#000000" stroke-width="1.0" stroke-linejoin="round" stroke-linecap="butt" d="m534.94586 58.833523l68.81891 0l0 50.393703l-68.81891 0z" fill-rule="evenodd"/><path fill="#000000" d="m575.5037 86.50662q0.546875 -1.046875 2.96875 -2.265625l-0.03125 1.96875q-1.921875 1.671875 -2.875 3.640625l-1.09375 0q-1.0 -1.953125 -2.921875 -3.609375l-0.078125 -2.0q2.453125 1.21875 2.96875 2.3125l-0.515625 0q0 -2.140625 -1.578125 -3.703125q-1.5625 -1.578125 -3.71875 -1.578125q-2.15625 0 -3.71875 1.5625q-1.5625 1.5625 -1.5625 3.71875q0 2.15625 1.5625 3.71875q1.5625 1.5625 3.71875 1.5625q1.234375 0 2.34375 -0.546875q1.109375 -0.5625 2.203125 -2.015625l1.609375 1.375q-1.375 1.765625 -2.890625 2.53125q-1.515625 0.75 -3.265625 0.75q-1.984375 0 -3.6875 -0.984375q-1.703125 -0.984375 -2.703125 -2.703125q-0.984375 -1.71875 -0.984375 -3.6875q0 -1.984375 1.0 -3.703125q1.0 -1.71875 2.6875 -2.6875q1.703125 -0.984375 3.6875 -0.984375q1.984375 0 3.6875 1.0q1.71875 0.984375 2.703125 2.703125q1.0 1.703125 0.5 3.65625l-0.015625 -0.03125z" fill-rule="nonzero"/><path fill="#76a5af" d="m328.5729 58.833523l68.81891 0l0 50.393703l-68.81891 0z" fill-rule="evenodd"/><path stroke="#000000" stroke-width="1.0" stroke-linejoin="round" stroke-linecap="butt" d="m328.5729 58.833523l68.81891 0l0 50.393703l-68.81891 0z" fill-rule="evenodd"/><path fill="#000000" d="m369.1308 86.50662q0.546875 -1.046875 2.96875 -2.265625l-0.03125 1.96875q-1.921875 1.671875 -2.875 3.640625l-1.09375 0q-1.0 -1.953125 -2.921875 -3.609375l-0.078125 -2.0q2.453125 1.21875 2.96875 2.3125l-0.515625 0q0 -2.140625 -1.578125 -3.703125q-1.5625 -1.578125 -3.71875 -1.578125q-2.15625 0 -3.71875 1.5625q-1.5625 1.5625 -1.5625 3.71875q0 2.15625 1.5625 3.71875q1.5625 1.5625 3.71875 1.5625q1.234375 0 2.34375 -0.546875q1.109375 -0.5625 2.203125 -2.015625l1.609375 1.375q-1.375 1.765625 -2.890625 2.53125q-1.515625 0.75 -3.265625 0.75q-1.984375 0 -3.6875 -0.984375q-1.703125 -0.984375 -2.703125 -2.703125q-0.984375 -1.71875 -0.984375 -3.6875q0 -1.984375 1.0 -3.703125q1.0 -1.71875 2.6875 -2.6875q1.703125 -0.984375 3.6875 -0.984375q1.984375 0 3.6875 1.0q1.71875 0.984375 2.703125 2.703125q1.0 1.703125 0.5 3.65625l-0.015625 -0.03125z" fill-rule="nonzero"/><path fill="#76a5af" d="m603.7368 58.833523l68.81891 0l0 50.393703l-68.81891 0z" fill-rule="evenodd"/><path stroke="#000000" stroke-width="1.0" stroke-linejoin="round" stroke-linecap="butt" d="m603.7368 58.833523l68.81891 0l0 50.393703l-68.81891 0z" fill-rule="evenodd"/><path fill="#000000" d="m644.29474 86.50662q0.546875 -1.046875 2.96875 -2.265625l-0.03125 1.96875q-1.921875 1.671875 -2.875 3.640625l-1.09375 0q-1.0 -1.953125 -2.921875 -3.609375l-0.078125 -2.0q2.453125 1.21875 2.96875 2.3125l-0.515625 0q0 -2.140625 -1.578125 -3.703125q-1.5625 -1.578125 -3.71875 -1.578125q-2.15625 0 -3.71875 1.5625q-1.5625 1.5625 -1.5625 3.71875q0 2.15625 1.5625 3.71875q1.5625 1.5625 3.71875 1.5625q1.234375 0 2.34375 -0.546875q1.109375 -0.5625 2.203125 -2.015625l1.609375 1.375q-1.375 1.765625 -2.890625 2.53125q-1.515625 0.75 -3.265625 0.75q-1.984375 0 -3.6875 -0.984375q-1.703125 -0.984375 -2.703125 -2.703125q-0.984375 -1.71875 -0.984375 -3.6875q0 -1.984375 1.0 -3.703125q1.0 -1.71875 2.6875 -2.6875q1.703125 -0.984375 3.6875 -0.984375q1.984375 0 3.6875 1.0q1.71875 0.984375 2.703125 2.703125q1.0 1.703125 0.5 3.65625l-0.015625 -0.03125z" fill-rule="nonzero"/><path fill="#76a5af" d="m397.3639 58.833523l68.81888 0l0 50.393703l-68.81888 0z" fill-rule="evenodd"/><path stroke="#000000" stroke-width="1.0" stroke-linejoin="round" stroke-linecap="butt" d="m397.3639 58.833523l68.81888 0l0 50.393703l-68.81888 0z" fill-rule="evenodd"/><path fill="#000000" d="m437.92178 86.50662q0.546875 -1.046875 2.96875 -2.265625l-0.03125 1.96875q-1.921875 1.671875 -2.875 3.640625l-1.09375 0q-1.0 -1.953125 -2.921875 -3.609375l-0.078125 -2.0q2.453125 1.21875 2.96875 2.3125l-0.515625 0q0 -2.140625 -1.578125 -3.703125q-1.5625 -1.578125 -3.71875 -1.578125q-2.15625 0 -3.71875 1.5625q-1.5625 1.5625 -1.5625 3.71875q0 2.15625 1.5625 3.71875q1.5625 1.5625 3.71875 1.5625q1.234375 0 2.34375 -0.546875q1.109375 -0.5625 2.203125 -2.015625l1.609375 1.375q-1.375 1.765625 -2.890625 2.53125q-1.515625 0.75 -3.265625 0.75q-1.984375 0 -3.6875 -0.984375q-1.703125 -0.984375 -2.703125 -2.703125q-0.984375 -1.71875 -0.984375 -3.6875q0 -1.984375 1.0 -3.703125q1.0 -1.71875 2.6875 -2.6875q1.703125 -0.984375 3.6875 -0.984375q1.984375 0 3.6875 1.0q1.71875 0.984375 2.703125 2.703125q1.0 1.703125 0.5 3.65625l-0.015625 -0.03125z" fill-rule="nonzero"/><path fill="#76a5af" d="m672.52783 58.833523l68.81891 0l0 50.393703l-68.81891 0z" fill-rule="evenodd"/><path stroke="#000000" stroke-width="1.0" stroke-linejoin="round" stroke-linecap="butt" d="m672.52783 58.833523l68.81891 0l0 50.393703l-68.81891 0z" fill-rule="evenodd"/><path fill="#000000" d="m713.0857 86.50662q0.546875 -1.046875 2.96875 -2.265625l-0.03125 1.96875q-1.921875 1.671875 -2.875 3.640625l-1.09375 0q-1.0 -1.953125 -2.921875 -3.609375l-0.078125 -2.0q2.453125 1.21875 2.96875 2.3125l-0.515625 0q0 -2.140625 -1.578125 -3.703125q-1.5625 -1.578125 -3.71875 -1.578125q-2.15625 0 -3.71875 1.5625q-1.5625 1.5625 -1.5625 3.71875q0 2.15625 1.5625 3.71875q1.5625 1.5625 3.71875 1.5625q1.234375 0 2.34375 -0.546875q1.109375 -0.5625 2.203125 -2.015625l1.609375 1.375q-1.375 1.765625 -2.890625 2.53125q-1.515625 0.75 -3.265625 0.75q-1.984375 0 -3.6875 -0.984375q-1.703125 -0.984375 -2.703125 -2.703125q-0.984375 -1.71875 -0.984375 -3.6875q0 -1.984375 1.0 -3.703125q1.0 -1.71875 2.6875 -2.6875q1.703125 -0.984375 3.6875 -0.984375q1.984375 0 3.6875 1.0q1.71875 0.984375 2.703125 2.703125q1.0 1.703125 0.5 3.65625l-0.015625 -0.03125z" fill-rule="nonzero"/><path fill="#c27ba0" d="m259.78302 8.459708l275.1181 0l0 50.3937l-275.1181 0z" fill-rule="evenodd"/><path stroke="#000000" stroke-width="1.0" stroke-linejoin="round" stroke-linecap="butt" d="m259.78302 8.459708l275.1181 0l0 50.3937l-275.1181 0z" fill-rule="evenodd"/><path fill="#000000" d="m289.51395 36.13281q0.546875 -1.046875 2.96875 -2.265625l-0.03125 1.96875q-1.921875 1.671875 -2.875 3.640625l-1.09375 0q-1.0 -1.953125 -2.921875 -3.609375l-0.078125 -2.0q2.453125 1.21875 2.96875 2.3125l-0.515625 0q0 -2.140625 -1.578125 -3.703125q-1.5625 -1.5781269 -3.71875 -1.5781269q-2.15625 0 -3.71875 1.5625019q-1.5625 1.5625 -1.5625 3.71875q0 2.15625 1.5625 3.71875q1.5625 1.5625 3.71875 1.5625q1.234375 0 2.34375 -0.546875q1.109375 -0.5625 2.203125 -2.015625l1.609375 1.375q-1.375 1.765625 -2.890625 2.53125q-1.515625 0.75 -3.265625 0.75q-1.984375 0 -3.6875 -0.984375q-1.703125 -0.984375 -2.703125 -2.703125q-0.984375 -1.71875 -0.984375 -3.6875q0 -1.984375 1.0 -3.703125q1.0 -1.7187519 2.6875 -2.687502q1.703125 -0.984375 3.6875 -0.984375q1.984375 0 3.6875 1.0q1.71875 0.984375 2.703125 2.703127q1.0 1.703125 0.5 3.65625l-0.015625 -0.03125zm25.328125 0q0.546875 -1.046875 2.96875 -2.265625l-0.03125 1.96875q-1.921875 1.671875 -2.875 3.640625l-1.09375 0q-1.0 -1.953125 -2.921875 -3.609375l-0.078125 -2.0q2.453125 1.21875 2.96875 2.3125l-0.515625 0q0 -2.140625 -1.578125 -3.703125q-1.5625 -1.5781269 -3.71875 -1.5781269q-2.15625 0 -3.71875 1.5625019q-1.5625 1.5625 -1.5625 3.71875q0 2.15625 1.5625 3.71875q1.5625 1.5625 3.71875 1.5625q1.234375 0 2.34375 -0.546875q1.109375 -0.5625 2.203125 -2.015625l1.609375 1.375q-1.375 1.765625 -2.890625 2.53125q-1.515625 0.75 -3.265625 0.75q-1.984375 0 -3.6875 -0.984375q-1.703125 -0.984375 -2.703125 -2.703125q-0.984375 -1.71875 -0.984375 -3.6875q0 -1.984375 1.0 -3.703125q1.0 -1.7187519 2.6875 -2.687502q1.703125 -0.984375 3.6875 -0.984375q1.984375 0 3.6875 1.0q1.71875 0.984375 2.703125 2.703127q1.0 1.703125 0.5 3.65625l-0.015625 -0.03125zm25.328125 0q0.546875 -1.046875 2.96875 -2.265625l-0.03125 1.96875q-1.921875 1.671875 -2.875 3.640625l-1.09375 0q-1.0 -1.953125 -2.921875 -3.609375l-0.078125 -2.0q2.453125 1.21875 2.96875 2.3125l-0.515625 0q0 -2.140625 -1.578125 -3.703125q-1.5625 -1.5781269 -3.71875 -1.5781269q-2.15625 0 -3.71875 1.5625019q-1.5625 1.5625 -1.5625 3.71875q0 2.15625 1.5625 3.71875q1.5625 1.5625 3.71875 1.5625q1.234375 0 2.34375 -0.546875q1.109375 -0.5625 2.203125 -2.015625l1.609375 1.375q-1.375 1.765625 -2.890625 2.53125q-1.515625 0.75 -3.265625 0.75q-1.984375 0 -3.6875 -0.984375q-1.703125 -0.984375 -2.703125 -2.703125q-0.984375 -1.71875 -0.984375 -3.6875q0 -1.984375 1.0 -3.703125q1.0 -1.7187519 2.6875 -2.687502q1.703125 -0.984375 3.6875 -0.984375q1.984375 0 3.6875 1.0q1.71875 0.984375 2.703125 2.703127q1.0 1.703125 0.5 3.65625l-0.015625 -0.03125zm25.328125 0q0.546875 -1.046875 2.96875 -2.265625l-0.03125 1.96875q-1.921875 1.671875 -2.875 3.640625l-1.09375 0q-1.0 -1.953125 -2.921875 -3.609375l-0.078125 -2.0q2.453125 1.21875 2.96875 2.3125l-0.515625 0q0 -2.140625 -1.578125 -3.703125q-1.5625 -1.5781269 -3.71875 -1.5781269q-2.15625 0 -3.71875 1.5625019q-1.5625 1.5625 -1.5625 3.71875q0 2.15625 1.5625 3.71875q1.5625 1.5625 3.71875 1.5625q1.234375 0 2.34375 -0.546875q1.109375 -0.5625 2.203125 -2.015625l1.609375 1.375q-1.375 1.765625 -2.890625 2.53125q-1.515625 0.75 -3.265625 0.75q-1.984375 0 -3.6875 -0.984375q-1.703125 -0.984375 -2.703125 -2.703125q-0.984375 -1.71875 -0.984375 -3.6875q0 -1.984375 1.0 -3.703125q1.0 -1.7187519 2.6875 -2.687502q1.703125 -0.984375 3.6875 -0.984375q1.984375 0 3.6875 1.0q1.71875 0.984375 2.703125 2.703127q1.0 1.703125 0.5 3.65625l-0.015625 -0.03125zm25.328125 0q0.546875 -1.046875 2.96875 -2.265625l-0.03125 1.96875q-1.921875 1.671875 -2.875 3.640625l-1.09375 0q-1.0 -1.953125 -2.921875 -3.609375l-0.078125 -2.0q2.453125 1.21875 2.96875 2.3125l-0.515625 0q0 -2.140625 -1.578125 -3.703125q-1.5625 -1.5781269 -3.71875 -1.5781269q-2.15625 0 -3.71875 1.5625019q-1.5625 1.5625 -1.5625 3.71875q0 2.15625 1.5625 3.71875q1.5625 1.5625 3.71875 1.5625q1.234375 0 2.34375 -0.546875q1.109375 -0.5625 2.203125 -2.015625l1.609375 1.375q-1.375 1.765625 -2.890625 2.53125q-1.515625 0.75 -3.265625 0.75q-1.984375 0 -3.6875 -0.984375q-1.703125 -0.984375 -2.703125 -2.703125q-0.984375 -1.71875 -0.984375 -3.6875q0 -1.984375 1.0 -3.703125q1.0 -1.7187519 2.6875 -2.687502q1.703125 -0.984375 3.6875 -0.984375q1.984375 0 3.6875 1.0q1.71875 0.984375 2.703125 2.703127q1.0 1.703125 0.5 3.65625l-0.015625 -0.03125zm25.328125 0q0.546875 -1.046875 2.96875 -2.265625l-0.03125 1.96875q-1.921875 1.671875 -2.875 3.640625l-1.09375 0q-1.0 -1.953125 -2.921875 -3.609375l-0.078125 -2.0q2.453125 1.21875 2.96875 2.3125l-0.515625 0q0 -2.140625 -1.578125 -3.703125q-1.5625 -1.5781269 -3.71875 -1.5781269q-2.15625 0 -3.71875 1.5625019q-1.5625 1.5625 -1.5625 3.71875q0 2.15625 1.5625 3.71875q1.5625 1.5625 3.71875 1.5625q1.234375 0 2.34375 -0.546875q1.109375 -0.5625 2.203125 -2.015625l1.609375 1.375q-1.375 1.765625 -2.890625 2.53125q-1.515625 0.75 -3.265625 0.75q-1.984375 0 -3.6875 -0.984375q-1.703125 -0.984375 -2.703125 -2.703125q-0.984375 -1.71875 -0.984375 -3.6875q0 -1.984375 1.0 -3.703125q1.0 -1.7187519 2.6875 -2.687502q1.703125 -0.984375 3.6875 -0.984375q1.984375 0 3.6875 1.0q1.71875 0.984375 2.703125 2.703127q1.0 1.703125 0.5 3.65625l-0.015625 -0.03125zm25.328125 0q0.546875 -1.046875 2.96875 -2.265625l-0.03125 1.96875q-1.921875 1.671875 -2.875 3.640625l-1.09375 0q-1.0 -1.953125 -2.921875 -3.609375l-0.078125 -2.0q2.453125 1.21875 2.96875 2.3125l-0.515625 0q0 -2.140625 -1.578125 -3.703125q-1.5625 -1.5781269 -3.71875 -1.5781269q-2.15625 0 -3.71875 1.5625019q-1.5625 1.5625 -1.5625 3.71875q0 2.15625 1.5625 3.71875q1.5625 1.5625 3.71875 1.5625q1.234375 0 2.34375 -0.546875q1.109375 -0.5625 2.203125 -2.015625l1.609375 1.375q-1.375 1.765625 -2.890625 2.53125q-1.515625 0.75 -3.265625 0.75q-1.984375 0 -3.6875 -0.984375q-1.703125 -0.984375 -2.703125 -2.703125q-0.984375 -1.71875 -0.984375 -3.6875q0 -1.984375 1.0 -3.703125q1.0 -1.7187519 2.6875 -2.687502q1.703125 -0.984375 3.6875 -0.984375q1.984375 0 3.6875 1.0q1.71875 0.984375 2.703125 2.703127q1.0 1.703125 0.5 3.65625l-0.015625 -0.03125zm25.328125 0q0.546875 -1.046875 2.96875 -2.265625l-0.03125 1.96875q-1.921875 1.671875 -2.875 3.640625l-1.09375 0q-1.0 -1.953125 -2.921875 -3.609375l-0.078125 -2.0q2.453125 1.21875 2.96875 2.3125l-0.515625 0q0 -2.140625 -1.578125 -3.703125q-1.5625 -1.5781269 -3.71875 -1.5781269q-2.15625 0 -3.71875 1.5625019q-1.5625 1.5625 -1.5625 3.71875q0 2.15625 1.5625 3.71875q1.5625 1.5625 3.71875 1.5625q1.234375 0 2.34375 -0.546875q1.109375 -0.5625 2.203125 -2.015625l1.609375 1.375q-1.375 1.765625 -2.890625 2.53125q-1.515625 0.75 -3.265625 0.75q-1.984375 0 -3.6875 -0.984375q-1.703125 -0.984375 -2.703125 -2.703125q-0.984375 -1.71875 -0.984375 -3.6875q0 -1.984375 1.0 -3.703125q1.0 -1.7187519 2.6875 -2.687502q1.703125 -0.984375 3.6875 -0.984375q1.984375 0 3.6875 1.0q1.71875 0.984375 2.703125 2.703127q1.0 1.703125 0.5 3.65625l-0.015625 -0.03125zm25.328125 0q0.546875 -1.046875 2.96875 -2.265625l-0.03125 1.96875q-1.921875 1.671875 -2.875 3.640625l-1.09375 0q-1.0 -1.953125 -2.921875 -3.609375l-0.078125 -2.0q2.453125 1.21875 2.96875 2.3125l-0.515625 0q0 -2.140625 -1.578125 -3.703125q-1.5625 -1.5781269 -3.71875 -1.5781269q-2.15625 0 -3.71875 1.5625019q-1.5625 1.5625 -1.5625 3.71875q0 2.15625 1.5625 3.71875q1.5625 1.5625 3.71875 1.5625q1.234375 0 2.34375 -0.546875q1.109375 -0.5625 2.203125 -2.015625l1.609375 1.375q-1.375 1.765625 -2.890625 2.53125q-1.515625 0.75 -3.265625 0.75q-1.984375 0 -3.6875 -0.984375q-1.703125 -0.984375 -2.703125 -2.703125q-0.984375 -1.71875 -0.984375 -3.6875q0 -1.984375 1.0 -3.703125q1.0 -1.7187519 2.6875 -2.687502q1.703125 -0.984375 3.6875 -0.984375q1.984375 0 3.6875 1.0q1.71875 0.984375 2.703125 2.703127q1.0 1.703125 0.5 3.65625l-0.015625 -0.03125zm25.328156 0q0.546875 -1.046875 2.96875 -2.265625l-0.03125 1.96875q-1.921875 1.671875 -2.875 3.640625l-1.09375 0q-1.0 -1.953125 -2.921875 -3.609375l-0.078125 -2.0q2.453125 1.21875 2.96875 2.3125l-0.515625 0q0 -2.140625 -1.578125 -3.703125q-1.5625 -1.5781269 -3.7187805 -1.5781269q-2.15625 0 -3.71875 1.5625019q-1.5625 1.5625 -1.5625 3.71875q0 2.15625 1.5625 3.71875q1.5625 1.5625 3.71875 1.5625q1.234375 0 2.3437805 -0.546875q1.109375 -0.5625 2.203125 -2.015625l1.609375 1.375q-1.375 1.765625 -2.890625 2.53125q-1.515625 0.75 -3.2656555 0.75q-1.984375 0 -3.6875 -0.984375q-1.703125 -0.984375 -2.703125 -2.703125q-0.984375 -1.71875 -0.984375 -3.6875q0 -1.984375 1.0 -3.703125q1.0 -1.7187519 2.6875 -2.687502q1.703125 -0.984375 3.6875 -0.984375q1.9844055 0 3.6875305 1.0q1.71875 0.984375 2.703125 2.703127q1.0 1.703125 0.5 3.65625l-0.015625 -0.03125z" fill-rule="nonzero"/><path fill="#c27ba0" d="m672.52765 8.46039l206.36218 0l0 50.3937l-206.36218 0z" fill-rule="evenodd"/><path stroke="#000000" stroke-width="1.0" stroke-linejoin="round" stroke-linecap="butt" d="m672.52765 8.46039l206.36218 0l0 50.3937l-206.36218 0z" fill-rule="evenodd"/><path fill="#000000" d="m705.8728 36.133488q0.546875 -1.046875 2.96875 -2.265625l-0.03125 1.96875q-1.921875 1.671875 -2.875 3.640625l-1.09375 0q-1.0 -1.953125 -2.921875 -3.609375l-0.078125 -2.0q2.453125 1.21875 2.96875 2.3125l-0.515625 0q0 -2.140625 -1.578125 -3.703125q-1.5625 -1.5781231 -3.71875 -1.5781231q-2.15625 0 -3.71875 1.5624981q-1.5625 1.5625 -1.5625 3.71875q0 2.15625 1.5625 3.71875q1.5625 1.5625 3.71875 1.5625q1.234375 0 2.34375 -0.546875q1.109375 -0.5625 2.203125 -2.015625l1.609375 1.375q-1.375 1.765625 -2.890625 2.53125q-1.515625 0.75 -3.265625 0.75q-1.984375 0 -3.6875 -0.984375q-1.703125 -0.984375 -2.703125 -2.703125q-0.984375 -1.71875 -0.984375 -3.6875q0 -1.984375 1.0 -3.703125q1.0 -1.7187481 2.6875 -2.687498q1.703125 -0.984375 3.6875 -0.984375q1.984375 0 3.6875 1.0q1.71875 0.984375 2.703125 2.703123q1.0 1.703125 0.5 3.65625l-0.015625 -0.03125zm25.328125 0q0.546875 -1.046875 2.96875 -2.265625l-0.03125 1.96875q-1.921875 1.671875 -2.875 3.640625l-1.09375 0q-1.0 -1.953125 -2.921875 -3.609375l-0.078125 -2.0q2.453125 1.21875 2.96875 2.3125l-0.515625 0q0 -2.140625 -1.578125 -3.703125q-1.5625 -1.5781231 -3.71875 -1.5781231q-2.15625 0 -3.71875 1.5624981q-1.5625 1.5625 -1.5625 3.71875q0 2.15625 1.5625 3.71875q1.5625 1.5625 3.71875 1.5625q1.234375 0 2.34375 -0.546875q1.109375 -0.5625 2.203125 -2.015625l1.609375 1.375q-1.375 1.765625 -2.890625 2.53125q-1.515625 0.75 -3.265625 0.75q-1.984375 0 -3.6875 -0.984375q-1.703125 -0.984375 -2.703125 -2.703125q-0.984375 -1.71875 -0.984375 -3.6875q0 -1.984375 1.0 -3.703125q1.0 -1.7187481 2.6875 -2.687498q1.703125 -0.984375 3.6875 -0.984375q1.984375 0 3.6875 1.0q1.71875 0.984375 2.703125 2.703123q1.0 1.703125 0.5 3.65625l-0.015625 -0.03125zm25.328125 0q0.546875 -1.046875 2.96875 -2.265625l-0.03125 1.96875q-1.921875 1.671875 -2.875 3.640625l-1.09375 0q-1.0 -1.953125 -2.921875 -3.609375l-0.078125 -2.0q2.453125 1.21875 2.96875 2.3125l-0.515625 0q0 -2.140625 -1.578125 -3.703125q-1.5625 -1.5781231 -3.71875 -1.5781231q-2.15625 0 -3.71875 1.5624981q-1.5625 1.5625 -1.5625 3.71875q0 2.15625 1.5625 3.71875q1.5625 1.5625 3.71875 1.5625q1.234375 0 2.34375 -0.546875q1.109375 -0.5625 2.203125 -2.015625l1.609375 1.375q-1.375 1.765625 -2.890625 2.53125q-1.515625 0.75 -3.265625 0.75q-1.984375 0 -3.6875 -0.984375q-1.703125 -0.984375 -2.703125 -2.703125q-0.984375 -1.71875 -0.984375 -3.6875q0 -1.984375 1.0 -3.703125q1.0 -1.7187481 2.6875 -2.687498q1.703125 -0.984375 3.6875 -0.984375q1.984375 0 3.6875 1.0q1.71875 0.984375 2.703125 2.703123q1.0 1.703125 0.5 3.65625l-0.015625 -0.03125zm25.328125 0q0.546875 -1.046875 2.96875 -2.265625l-0.03125 1.96875q-1.921875 1.671875 -2.875 3.640625l-1.09375 0q-1.0 -1.953125 -2.921875 -3.609375l-0.078125 -2.0q2.453125 1.21875 2.96875 2.3125l-0.515625 0q0 -2.140625 -1.578125 -3.703125q-1.5625 -1.5781231 -3.71875 -1.5781231q-2.15625 0 -3.71875 1.5624981q-1.5625 1.5625 -1.5625 3.71875q0 2.15625 1.5625 3.71875q1.5625 1.5625 3.71875 1.5625q1.234375 0 2.34375 -0.546875q1.109375 -0.5625 2.203125 -2.015625l1.609375 1.375q-1.375 1.765625 -2.890625 2.53125q-1.515625 0.75 -3.265625 0.75q-1.984375 0 -3.6875 -0.984375q-1.703125 -0.984375 -2.703125 -2.703125q-0.984375 -1.71875 -0.984375 -3.6875q0 -1.984375 1.0 -3.703125q1.0 -1.7187481 2.6875 -2.687498q1.703125 -0.984375 3.6875 -0.984375q1.984375 0 3.6875 1.0q1.71875 0.984375 2.703125 2.703123q1.0 1.703125 0.5 3.65625l-0.015625 -0.03125zm25.328125 0q0.546875 -1.046875 2.96875 -2.265625l-0.03125 1.96875q-1.921875 1.671875 -2.875 3.640625l-1.09375 0q-1.0 -1.953125 -2.921875 -3.609375l-0.078125 -2.0q2.453125 1.21875 2.96875 2.3125l-0.515625 0q0 -2.140625 -1.578125 -3.703125q-1.5625 -1.5781231 -3.71875 -1.5781231q-2.15625 0 -3.71875 1.5624981q-1.5625 1.5625 -1.5625 3.71875q0 2.15625 1.5625 3.71875q1.5625 1.5625 3.71875 1.5625q1.234375 0 2.34375 -0.546875q1.109375 -0.5625 2.203125 -2.015625l1.609375 1.375q-1.375 1.765625 -2.890625 2.53125q-1.515625 0.75 -3.265625 0.75q-1.984375 0 -3.6875 -0.984375q-1.703125 -0.984375 -2.703125 -2.703125q-0.984375 -1.71875 -0.984375 -3.6875q0 -1.984375 1.0 -3.703125q1.0 -1.7187481 2.6875 -2.687498q1.703125 -0.984375 3.6875 -0.984375q1.984375 0 3.6875 1.0q1.71875 0.984375 2.703125 2.703123q1.0 1.703125 0.5 3.65625l-0.015625 -0.03125zm25.328125 0q0.546875 -1.046875 2.96875 -2.265625l-0.03125 1.96875q-1.921875 1.671875 -2.875 3.640625l-1.09375 0q-1.0 -1.953125 -2.921875 -3.609375l-0.078125 -2.0q2.453125 1.21875 2.96875 2.3125l-0.515625 0q0 -2.140625 -1.578125 -3.703125q-1.5625 -1.5781231 -3.71875 -1.5781231q-2.15625 0 -3.71875 1.5624981q-1.5625 1.5625 -1.5625 3.71875q0 2.15625 1.5625 3.71875q1.5625 1.5625 3.71875 1.5625q1.234375 0 2.34375 -0.546875q1.109375 -0.5625 2.203125 -2.015625l1.609375 1.375q-1.375 1.765625 -2.890625 2.53125q-1.515625 0.75 -3.265625 0.75q-1.984375 0 -3.6875 -0.984375q-1.703125 -0.984375 -2.703125 -2.703125q-0.984375 -1.71875 -0.984375 -3.6875q0 -1.984375 1.0 -3.703125q1.0 -1.7187481 2.6875 -2.687498q1.703125 -0.984375 3.6875 -0.984375q1.984375 0 3.6875 1.0q1.71875 0.984375 2.703125 2.703123q1.0 1.703125 0.5 3.65625l-0.015625 -0.03125zm25.328125 0q0.546875 -1.046875 2.96875 -2.265625l-0.03125 1.96875q-1.921875 1.671875 -2.875 3.640625l-1.09375 0q-1.0 -1.953125 -2.921875 -3.609375l-0.078125 -2.0q2.453125 1.21875 2.96875 2.3125l-0.515625 0q0 -2.140625 -1.578125 -3.703125q-1.5625 -1.5781231 -3.71875 -1.5781231q-2.15625 0 -3.71875 1.5624981q-1.5625 1.5625 -1.5625 3.71875q0 2.15625 1.5625 3.71875q1.5625 1.5625 3.71875 1.5625q1.234375 0 2.34375 -0.546875q1.109375 -0.5625 2.203125 -2.015625l1.609375 1.375q-1.375 1.765625 -2.890625 2.53125q-1.515625 0.75 -3.265625 0.75q-1.984375 0 -3.6875 -0.984375q-1.703125 -0.984375 -2.703125 -2.703125q-0.984375 -1.71875 -0.984375 -3.6875q0 -1.984375 1.0 -3.703125q1.0 -1.7187481 2.6875 -2.687498q1.703125 -0.984375 3.6875 -0.984375q1.984375 0 3.6875 1.0q1.71875 0.984375 2.703125 2.703123q1.0 1.703125 0.5 3.65625l-0.015625 -0.03125z" fill-rule="nonzero"/><path fill="#76a5af" d="m741.3188 58.833523l68.81891 0l0 50.393703l-68.81891 0z" fill-rule="evenodd"/><path stroke="#000000" stroke-width="1.0" stroke-linejoin="round" stroke-linecap="butt" d="m741.3188 58.833523l68.81891 0l0 50.393703l-68.81891 0z" fill-rule="evenodd"/><path fill="#000000" d="m781.8767 86.50662q0.546875 -1.046875 2.96875 -2.265625l-0.03125 1.96875q-1.921875 1.671875 -2.875 3.640625l-1.09375 0q-1.0 -1.953125 -2.921875 -3.609375l-0.078125 -2.0q2.453125 1.21875 2.96875 2.3125l-0.515625 0q0 -2.140625 -1.578125 -3.703125q-1.5625 -1.578125 -3.71875 -1.578125q-2.15625 0 -3.71875 1.5625q-1.5625 1.5625 -1.5625 3.71875q0 2.15625 1.5625 3.71875q1.5625 1.5625 3.71875 1.5625q1.234375 0 2.34375 -0.546875q1.109375 -0.5625 2.203125 -2.015625l1.609375 1.375q-1.375 1.765625 -2.890625 2.53125q-1.515625 0.75 -3.265625 0.75q-1.984375 0 -3.6875 -0.984375q-1.703125 -0.984375 -2.703125 -2.703125q-0.984375 -1.71875 -0.984375 -3.6875q0 -1.984375 1.0 -3.703125q1.0 -1.71875 2.6875 -2.6875q1.703125 -0.984375 3.6875 -0.984375q1.984375 0 3.6875 1.0q1.71875 0.984375 2.703125 2.703125q1.0 1.703125 0.5 3.65625l-0.015625 -0.03125z" fill-rule="nonzero"/><path fill="#76a5af" d="m810.1098 58.833523l68.81891 0l0 50.393703l-68.81891 0z" fill-rule="evenodd"/><path stroke="#000000" stroke-width="1.0" stroke-linejoin="round" stroke-linecap="butt" d="m810.1098 58.833523l68.81891 0l0 50.393703l-68.81891 0z" fill-rule="evenodd"/><path fill="#000000" d="m850.66766 86.50662q0.546875 -1.046875 2.96875 -2.265625l-0.03125 1.96875q-1.921875 1.671875 -2.875 3.640625l-1.09375 0q-1.0 -1.953125 -2.921875 -3.609375l-0.078125 -2.0q2.453125 1.21875 2.96875 2.3125l-0.515625 0q0 -2.140625 -1.578125 -3.703125q-1.5625 -1.578125 -3.71875 -1.578125q-2.15625 0 -3.71875 1.5625q-1.5625 1.5625 -1.5625 3.71875q0 2.15625 1.5625 3.71875q1.5625 1.5625 3.71875 1.5625q1.234375 0 2.34375 -0.546875q1.109375 -0.5625 2.203125 -2.015625l1.609375 1.375q-1.375 1.765625 -2.890625 2.53125q-1.515625 0.75 -3.265625 0.75q-1.984375 0 -3.6875 -0.984375q-1.703125 -0.984375 -2.703125 -2.703125q-0.984375 -1.71875 -0.984375 -3.6875q0 -1.984375 1.0 -3.703125q1.0 -1.71875 2.6875 -2.6875q1.703125 -0.984375 3.6875 -0.984375q1.984375 0 3.6875 1.0q1.71875 0.984375 2.703125 2.703125q1.0 1.703125 0.5 3.65625l-0.015625 -0.03125z" fill-rule="nonzero"/><path fill="#000000" fill-opacity="0.0" d="m9.896785 65.59627l86.519684 0l0 35.55905l-86.519684 0z" fill-rule="evenodd"/><path fill="#000000" d="m19.490534 84.33376l1.203125 -0.109375q0.078125 0.71875 0.390625 1.1875q0.3125 0.453125 0.953125 0.734375q0.65625 0.28125 1.46875 0.28125q0.71875 0 1.265625 -0.21875q0.5625 -0.21875 0.828125 -0.578125q0.265625 -0.375 0.265625 -0.828125q0 -0.453125 -0.265625 -0.78125q-0.25 -0.328125 -0.84375 -0.5625q-0.390625 -0.15625 -1.703125 -0.46875q-1.3125 -0.3125 -1.84375 -0.59375q-0.671875 -0.359375 -1.015625 -0.890625q-0.328125 -0.53125 -0.328125 -1.1875q0 -0.71875 0.40625 -1.34375q0.40625 -0.625 1.1875 -0.953125q0.796875 -0.328125 1.765625 -0.328125q1.046875 0 1.859375 0.34375q0.8125 0.34375 1.25 1.015625q0.4375 0.65625 0.46875 1.484375l-1.203125 0.09375q-0.109375 -0.90625 -0.671875 -1.359375q-0.5625 -0.46875 -1.65625 -0.46875q-1.140625 0 -1.671875 0.421875q-0.515625 0.421875 -0.515625 1.015625q0 0.515625 0.359375 0.84375q0.375 0.328125 1.90625 0.6875q1.546875 0.34375 2.109375 0.59375q0.84375 0.390625 1.234375 0.984375q0.390625 0.578125 0.390625 1.359375q0 0.75 -0.4375 1.4375q-0.421875 0.671875 -1.25 1.046875q-0.8125 0.359375 -1.828125 0.359375q-1.296875 0 -2.171875 -0.375q-0.875 -0.375 -1.375 -1.125q-0.5 -0.765625 -0.53125 -1.71875zm13.686632 0.53125l1.15625 0.15625q-0.1875 1.1875 -0.96875 1.859375q-0.78125 0.671875 -1.9218769 0.671875q-1.40625 0 -2.28125 -0.921875q-0.859375 -0.9375 -0.859375 -2.65625q0 -1.125 0.375 -1.96875q0.375 -0.84375 1.125 -1.25q0.765625 -0.421875 1.65625 -0.421875q1.1250019 0 1.8437519 0.578125q0.71875 0.5625 0.921875 1.609375l-1.140625 0.171875q-0.171875 -0.703125 -0.59375 -1.046875q-0.40625 -0.359375 -0.9843769 -0.359375q-0.890625 0 -1.453125 0.640625q-0.546875 0.640625 -0.546875 2.0q0 1.40625 0.53125 2.03125q0.546875 0.625 1.40625 0.625q0.6875019 0 1.1406269 -0.421875q0.46875 -0.421875 0.59375 -1.296875zm2.1328125 2.53125l0 -6.90625l1.0625 0l0 1.046875q0.40625 -0.734375 0.734375 -0.96875q0.34375 -0.234375 0.765625 -0.234375q0.59375 0 1.203125 0.375l-0.40625 1.078125q-0.4375 -0.25 -0.859375 -0.25q-0.390625 0 -0.703125 0.234375q-0.296875 0.234375 -0.421875 0.640625q-0.203125 0.625 -0.203125 1.359375l0 3.625l-1.171875 0zm8.985245 0l0 -1.015625q-0.8125 1.171875 -2.1875 1.171875q-0.609375 0 -1.140625 -0.234375q-0.53125 -0.234375 -0.796875 -0.578125q-0.25 -0.359375 -0.359375 -0.875q-0.0625 -0.34375 -0.0625 -1.09375l0 -4.28125l1.171875 0l0 3.828125q0 0.921875 0.0625 1.234375q0.109375 0.46875 0.46875 0.734375q0.359375 0.25 0.890625 0.25q0.515625 0 0.984375 -0.265625q0.46875 -0.265625 0.65625 -0.734375q0.1875 -0.46875 0.1875 -1.34375l0 -3.703125l1.171875 0l0 6.90625l-1.046875 0zm2.8812256 0l0 -6.90625l1.046875 0l0 0.96875q0.328125 -0.515625 0.859375 -0.8125q0.546875 -0.3125 1.234375 -0.3125q0.78125 0 1.265625 0.3125q0.484375 0.3125 0.6875 0.890625q0.828125 -1.203125 2.140625 -1.203125q1.03125 0 1.578125 0.578125q0.5625 0.5625 0.5625 1.734375l0 4.75l-1.171875 0l0 -4.359375q0 -0.703125 -0.125 -1.0q-0.109375 -0.3125 -0.40625 -0.5q-0.296875 -0.1875 -0.703125 -0.1875q-0.71875 0 -1.203125 0.484375q-0.484375 0.484375 -0.484375 1.546875l0 4.015625l-1.171875 0l0 -4.484375q0 -0.78125 -0.296875 -1.171875q-0.28125 -0.390625 -0.921875 -0.390625q-0.5 0 -0.921875 0.265625q-0.421875 0.25 -0.609375 0.75q-0.1875 0.5 -0.1875 1.453125l0 3.578125l-1.171875 0z" fill-rule="nonzero"/><path fill="#000000" fill-opacity="0.0" d="m9.879902 14.643294l86.519684 0l0 35.559055l-86.519684 0z" fill-rule="evenodd"/><path fill="#000000" d="m19.473652 33.380795l1.203125 -0.109375q0.078125 0.71875 0.390625 1.1875q0.3125 0.453125 0.953125 0.734375q0.65625 0.28125 1.46875 0.28125q0.71875 0 1.265625 -0.21875q0.5625 -0.21875 0.828125 -0.578125q0.265625 -0.375 0.265625 -0.828125q0 -0.453125 -0.265625 -0.78125q-0.25 -0.328125 -0.84375 -0.5625q-0.390625 -0.15625 -1.703125 -0.46875q-1.3125 -0.3125019 -1.84375 -0.5937519q-0.671875 -0.359375 -1.015625 -0.890625q-0.328125 -0.53125 -0.328125 -1.1875q0 -0.71875 0.40625 -1.34375q0.40625 -0.625 1.1875 -0.953125q0.796875 -0.328125 1.765625 -0.328125q1.046875 0 1.859375 0.34375q0.8125 0.34375 1.25 1.015625q0.4375 0.65625 0.46875 1.484375l-1.203125 0.09375q-0.109375 -0.90625 -0.671875 -1.359375q-0.5625 -0.46875 -1.65625 -0.46875q-1.140625 0 -1.671875 0.421875q-0.515625 0.421875 -0.515625 1.015625q0 0.515625 0.359375 0.84375q0.375 0.328125 1.90625 0.6875q1.546875 0.34375 2.109375 0.59375q0.84375 0.390625 1.234375 0.9843769q0.390625 0.578125 0.390625 1.359375q0 0.75 -0.4375 1.4375q-0.421875 0.671875 -1.25 1.046875q-0.8125 0.359375 -1.828125 0.359375q-1.296875 0 -2.171875 -0.375q-0.875 -0.375 -1.375 -1.125q-0.5 -0.765625 -0.53125 -1.71875zm9.171005 3.0625l0 -9.546877l1.171875 0l0 3.421875q0.828125 -0.9375 2.078125 -0.9375q0.765625 0 1.328125 0.296875q0.5625 0.296875 0.8125 0.84375q0.25 0.53125 0.25 1.5468769l0 4.375l-1.171875 0l0 -4.375q0 -0.8906269 -0.390625 -1.2812519q-0.375 -0.40625 -1.078125 -0.40625q-0.515625 0 -0.984375 0.28125q-0.453125 0.265625 -0.65625 0.734375q-0.1875 0.453125 -0.1875 1.2656269l0 3.78125l-1.171875 0zm11.928101 -0.859375q-0.65625 0.5625 -1.265625 0.796875q-0.59375 0.21875 -1.28125 0.21875q-1.140625 0 -1.75 -0.546875q-0.609375 -0.5625 -0.609375 -1.4375q0 -0.5 0.21875 -0.921875q0.234375 -0.421875 0.609375 -0.671875q0.375 -0.25 0.84375 -0.390625q0.34375 -0.078125 1.046875 -0.171875q1.421875 -0.171875 2.09375 -0.40625q0 -0.2343769 0 -0.2968769q0 -0.71875 -0.328125 -1.015625q-0.453125 -0.390625 -1.34375 -0.390625q-0.8125 0 -1.21875 0.296875q-0.390625 0.28125 -0.578125 1.015625l-1.140625 -0.15625q0.15625 -0.734375 0.515625 -1.1875q0.359375 -0.453125 1.03125 -0.6875q0.671875 -0.25 1.5625 -0.25q0.890625 0 1.4375 0.203125q0.5625 0.203125 0.8125 0.53125q0.265625 0.3125 0.375 0.796875q0.046875 0.296875 0.046875 1.078125l0 1.5625019q0 1.625 0.078125 2.0625q0.078125 0.4375 0.296875 0.828125l-1.21875 0q-0.1875 -0.359375 -0.234375 -0.859375zm-0.09375 -2.609375q-0.640625 0.265625 -1.921875 0.4375q-0.71875 0.109375 -1.015625 0.25q-0.296875 0.125 -0.46875 0.375q-0.15625 0.25 -0.15625 0.546875q0 0.46875 0.34375 0.78125q0.359375 0.3125 1.046875 0.3125q0.671875 0 1.203125 -0.296875q0.53125 -0.296875 0.78125 -0.8125q0.1875 -0.390625 0.1875 -1.171875l0 -0.421875zm2.9906006 6.125l0 -9.562502l1.078125 0l0 0.890625q0.375 -0.53125 0.84375 -0.78125q0.484375 -0.265625 1.15625 -0.265625q0.875 0 1.546875 0.453125q0.6875 0.453125 1.03125 1.28125q0.34375 0.828125 0.34375 1.8281269q0 1.046875 -0.375 1.90625q-0.375 0.84375 -1.109375 1.296875q-0.71875 0.453125 -1.53125 0.453125q-0.578125 0 -1.046875 -0.25q-0.46875 -0.25 -0.765625 -0.625l0 3.375l-1.171875 0zm1.0625 -6.078125q0 1.34375 0.53125 1.984375q0.546875 0.625 1.3125 0.625q0.78125 0 1.34375 -0.65625q0.5625 -0.65625 0.5625 -2.046875q0 -1.3125019 -0.546875 -1.9687519q-0.546875 -0.671875 -1.296875 -0.671875q-0.75 0 -1.328125 0.703125q-0.578125 0.703125 -0.578125 2.031252zm11.084351 1.203125l1.203125 0.140625q-0.28125 1.0625 -1.0625 1.65625q-0.765625 0.578125 -1.96875 0.578125q-1.515625 0 -2.40625 -0.9375q-0.890625 -0.9375 -0.890625 -2.609375q0 -1.7500019 0.890625 -2.703127q0.90625 -0.96875 2.34375 -0.96875q1.390625 0 2.265625 0.9375q0.875 0.9375 0.875 2.656252q0 0.109375 0 0.3125l-5.15625 0q0.0625 1.140625 0.640625 1.75q0.578125 0.59375 1.4375 0.59375q0.65625 0 1.109375 -0.328125q0.453125 -0.34375 0.71875 -1.078125zm-3.84375 -1.90625l3.859375 0q-0.078125 -0.8593769 -0.4375 -1.2968769q-0.5625 -0.6875 -1.453125 -0.6875q-0.8125 0 -1.359375 0.546875q-0.546875 0.53125 -0.609375 1.4375019zm16.631084 -5.421877l1.265625 0l0 5.515627q0 1.4375 -0.328125 2.296875q-0.3125 0.84375 -1.171875 1.375q-0.84375 0.515625 -2.21875 0.515625q-1.34375 0 -2.2031212 -0.453125q-0.84375 -0.46875 -1.21875 -1.34375q-0.359375 -0.875 -0.359375 -2.390625l0 -5.515627l1.265625 0l0 5.515627q0 1.234375 0.21875 1.828125q0.234375 0.59375 0.7968712 0.921875q0.5625 0.3125 1.390625 0.3125q1.390625 0 1.96875 -0.625q0.59375 -0.640625 0.59375 -2.4375l0 -5.515627zm3.2189026 12.203127l0 -9.562502l1.078125 0l0 0.890625q0.375 -0.53125 0.84375 -0.78125q0.484375 -0.265625 1.15625 -0.265625q0.875 0 1.546875 0.453125q0.6875 0.453125 1.03125 1.28125q0.34375 0.828125 0.34375 1.8281269q0 1.046875 -0.375 1.90625q-0.375 0.84375 -1.109375 1.296875q-0.71875 0.453125 -1.53125 0.453125q-0.578125 0 -1.046875 -0.25q-0.46875 -0.25 -0.765625 -0.625l0 3.375l-1.171875 0zm1.0625 -6.078125q0 1.34375 0.53125 1.984375q0.546875 0.625 1.3125 0.625q0.78125 0 1.34375 -0.65625q0.5625 -0.65625 0.5625 -2.046875q0 -1.3125019 -0.546875 -1.9687519q-0.546875 -0.671875 -1.296875 -0.671875q-0.75 0 -1.328125 0.703125q-0.578125 0.703125 -0.578125 2.031252z" fill-rule="nonzero"/><path fill="#76a5af" d="m878.9006 58.833523l68.81891 0l0 50.393703l-68.81891 0z" fill-rule="evenodd"/><path stroke="#000000" stroke-width="1.0" stroke-linejoin="round" stroke-linecap="butt" d="m878.9006 58.833523l68.81891 0l0 50.393703l-68.81891 0z" fill-rule="evenodd"/><path fill="#000000" d="m919.4585 86.50662q0.546875 -1.046875 2.96875 -2.265625l-0.03125 1.96875q-1.921875 1.671875 -2.875 3.640625l-1.09375 0q-1.0 -1.953125 -2.921875 -3.609375l-0.078125 -2.0q2.453125 1.21875 2.96875 2.3125l-0.515625 0q0 -2.140625 -1.578125 -3.703125q-1.5625 -1.578125 -3.71875 -1.578125q-2.15625 0 -3.71875 1.5625q-1.5625 1.5625 -1.5625 3.71875q0 2.15625 1.5625 3.71875q1.5625 1.5625 3.71875 1.5625q1.234375 0 2.34375 -0.546875q1.109375 -0.5625 2.203125 -2.015625l1.609375 1.375q-1.375 1.765625 -2.890625 2.53125q-1.515625 0.75 -3.265625 0.75q-1.984375 0 -3.6875 -0.984375q-1.703125 -0.984375 -2.703125 -2.703125q-0.984375 -1.71875 -0.984375 -3.6875q0 -1.984375 1.0 -3.703125q1.0 -1.71875 2.6875 -2.6875q1.703125 -0.984375 3.6875 -0.984375q1.984375 0 3.6875 1.0q1.71875 0.984375 2.703125 2.703125q1.0 1.703125 0.5 3.65625l-0.015625 -0.03125z" fill-rule="nonzero"/><path fill="#000000" fill-opacity="0.0" d="m194.33406 109.214714l62.14174 0l0 35.55906l-62.14174 0z" fill-rule="evenodd"/><path fill="#000000" d="m223.58923 129.88971l0 1.125l-6.296875 0q-0.015625 -0.421875 0.140625 -0.8125q0.234375 -0.640625 0.765625 -1.265625q0.53125 -0.625 1.53125 -1.453125q1.5625 -1.265625 2.109375 -2.015625q0.546875 -0.75 0.546875 -1.40625q0 -0.703125 -0.5 -1.171875q-0.5 -0.484375 -1.296875 -0.484375q-0.859375 0 -1.375 0.515625q-0.5 0.5 -0.5 1.390625l-1.203125 -0.109375q0.125 -1.359375 0.921875 -2.0625q0.8125 -0.703125 2.171875 -0.703125q1.375 0 2.171875 0.765625q0.8125 0.75 0.8125 1.875q0 0.578125 -0.234375 1.140625q-0.234375 0.546875 -0.78125 1.15625q-0.546875 0.609375 -1.8125 1.671875q-1.046875 0.890625 -1.359375 1.21875q-0.296875 0.3125 -0.484375 0.625l4.671875 0zm2.8656006 1.125l-2.125 -6.90625l1.21875 0l1.09375 3.984375l0.421875 1.484375q0.015625 -0.109375 0.359375 -1.421875l1.09375 -4.046875l1.203125 0l1.03125 4.0l0.34375 1.328125l0.40625 -1.34375l1.171875 -3.984375l1.140625 0l-2.15625 6.90625l-1.21875 0l-1.09375 -4.140625l-0.265625 -1.171875l-1.40625 5.3125l-1.21875 0z" fill-rule="nonzero"/><path fill="#000000" fill-opacity="0.0" d="m263.16272 109.214714l62.141724 0l0 35.55906l-62.141724 0z" fill-rule="evenodd"/><path fill="#000000" d="m292.41788 129.88971l0 1.125l-6.296875 0q-0.015625 -0.421875 0.140625 -0.8125q0.234375 -0.640625 0.765625 -1.265625q0.53125 -0.625 1.53125 -1.453125q1.5625 -1.265625 2.109375 -2.015625q0.546875 -0.75 0.546875 -1.40625q0 -0.703125 -0.5 -1.171875q-0.5 -0.484375 -1.296875 -0.484375q-0.859375 0 -1.375 0.515625q-0.5 0.5 -0.5 1.390625l-1.203125 -0.109375q0.125 -1.359375 0.921875 -2.0625q0.8125 -0.703125 2.171875 -0.703125q1.375 0 2.171875 0.765625q0.8125 0.75 0.8125 1.875q0 0.578125 -0.234375 1.140625q-0.234375 0.546875 -0.78125 1.15625q-0.546875 0.609375 -1.8125 1.671875q-1.046875 0.890625 -1.359375 1.21875q-0.296875 0.3125 -0.484375 0.625l4.671875 0zm2.8656006 1.125l-2.125 -6.90625l1.21875 0l1.09375 3.984375l0.421875 1.484375q0.015625 -0.109375 0.359375 -1.421875l1.09375 -4.046875l1.203125 0l1.03125 4.0l0.34375 1.328125l0.40625 -1.34375l1.171875 -3.984375l1.140625 0l-2.15625 6.90625l-1.21875 0l-1.09375 -4.140625l-0.265625 -1.171875l-1.40625 5.3125l-1.21875 0z" fill-rule="nonzero"/><path fill="#000000" fill-opacity="0.0" d="m331.99136 109.214714l62.141724 0l0 35.55906l-62.141724 0z" fill-rule="evenodd"/><path fill="#000000" d="m361.24652 129.88971l0 1.125l-6.296875 0q-0.015625 -0.421875 0.140625 -0.8125q0.234375 -0.640625 0.765625 -1.265625q0.53125 -0.625 1.53125 -1.453125q1.5625 -1.265625 2.109375 -2.015625q0.546875 -0.75 0.546875 -1.40625q0 -0.703125 -0.5 -1.171875q-0.5 -0.484375 -1.296875 -0.484375q-0.859375 0 -1.375 0.515625q-0.5 0.5 -0.5 1.390625l-1.203125 -0.109375q0.125 -1.359375 0.921875 -2.0625q0.8125 -0.703125 2.171875 -0.703125q1.375 0 2.171875 0.765625q0.8125 0.75 0.8125 1.875q0 0.578125 -0.234375 1.140625q-0.234375 0.546875 -0.78125 1.15625q-0.546875 0.609375 -1.8125 1.671875q-1.046875 0.890625 -1.359375 1.21875q-0.296875 0.3125 -0.484375 0.625l4.671875 0zm2.8656006 1.125l-2.125 -6.90625l1.21875 0l1.09375 3.984375l0.421875 1.484375q0.015625 -0.109375 0.359375 -1.421875l1.09375 -4.046875l1.203125 0l1.03125 4.0l0.34375 1.328125l0.40625 -1.34375l1.171875 -3.984375l1.140625 0l-2.15625 6.90625l-1.21875 0l-1.09375 -4.140625l-0.265625 -1.171875l-1.40625 5.3125l-1.21875 0z" fill-rule="nonzero"/><path fill="#000000" fill-opacity="0.0" d="m400.82 109.214714l62.141724 0l0 35.55906l-62.141724 0z" fill-rule="evenodd"/><path fill="#000000" d="m430.07516 129.88971l0 1.125l-6.296875 0q-0.015625 -0.421875 0.140625 -0.8125q0.234375 -0.640625 0.765625 -1.265625q0.53125 -0.625 1.53125 -1.453125q1.5625 -1.265625 2.109375 -2.015625q0.546875 -0.75 0.546875 -1.40625q0 -0.703125 -0.5 -1.171875q-0.5 -0.484375 -1.296875 -0.484375q-0.859375 0 -1.375 0.515625q-0.5 0.5 -0.5 1.390625l-1.203125 -0.109375q0.125 -1.359375 0.921875 -2.0625q0.8125 -0.703125 2.171875 -0.703125q1.375 0 2.171875 0.765625q0.8125 0.75 0.8125 1.875q0 0.578125 -0.234375 1.140625q-0.234375 0.546875 -0.78125 1.15625q-0.546875 0.609375 -1.8125 1.671875q-1.046875 0.890625 -1.359375 1.21875q-0.296875 0.3125 -0.484375 0.625l4.671875 0zm2.8656006 1.125l-2.125 -6.90625l1.21875 0l1.09375 3.984375l0.421875 1.484375q0.015625 -0.109375 0.359375 -1.421875l1.09375 -4.046875l1.203125 0l1.03125 4.0l0.34375 1.328125l0.40625 -1.34375l1.171875 -3.984375l1.140625 0l-2.15625 6.90625l-1.21875 0l-1.09375 -4.140625l-0.265625 -1.171875l-1.40625 5.3125l-1.21875 0z" fill-rule="nonzero"/><path fill="#000000" fill-opacity="0.0" d="m469.64865 109.214714l62.141754 0l0 35.55906l-62.141754 0z" fill-rule="evenodd"/><path fill="#000000" d="m498.9038 129.88971l0 1.125l-6.296875 0q-0.015625 -0.421875 0.140625 -0.8125q0.234375 -0.640625 0.765625 -1.265625q0.53125 -0.625 1.53125 -1.453125q1.5625 -1.265625 2.109375 -2.015625q0.546875 -0.75 0.546875 -1.40625q0 -0.703125 -0.5 -1.171875q-0.5 -0.484375 -1.296875 -0.484375q-0.859375 0 -1.375 0.515625q-0.5 0.5 -0.5 1.390625l-1.203125 -0.109375q0.125 -1.359375 0.921875 -2.0625q0.8125 -0.703125 2.171875 -0.703125q1.375 0 2.171875 0.765625q0.8125 0.75 0.8125 1.875q0 0.578125 -0.234375 1.140625q-0.234375 0.546875 -0.78125 1.15625q-0.546875 0.609375 -1.8125 1.671875q-1.046875 0.890625 -1.359375 1.21875q-0.296875 0.3125 -0.484375 0.625l4.671875 0zm2.8656006 1.125l-2.125 -6.90625l1.21875 0l1.09375 3.984375l0.421875 1.484375q0.015625 -0.109375 0.359375 -1.421875l1.09375 -4.046875l1.203125 0l1.03125 4.0l0.34375 1.328125l0.40625 -1.34375l1.171875 -3.984375l1.140625 0l-2.15625 6.90625l-1.21875 0l-1.09375 -4.140625l-0.265625 -1.171875l-1.40625 5.3125l-1.21875 0z" fill-rule="nonzero"/><path fill="#000000" fill-opacity="0.0" d="m538.4773 109.214714l62.141724 0l0 35.55906l-62.141724 0z" fill-rule="evenodd"/><path fill="#000000" d="m567.7325 129.88971l0 1.125l-6.296875 0q-0.015625 -0.421875 0.140625 -0.8125q0.234375 -0.640625 0.765625 -1.265625q0.53125 -0.625 1.53125 -1.453125q1.5625 -1.265625 2.109375 -2.015625q0.546875 -0.75 0.546875 -1.40625q0 -0.703125 -0.5 -1.171875q-0.5 -0.484375 -1.296875 -0.484375q-0.859375 0 -1.375 0.515625q-0.5 0.5 -0.5 1.390625l-1.203125 -0.109375q0.125 -1.359375 0.921875 -2.0625q0.8125 -0.703125 2.171875 -0.703125q1.375 0 2.171875 0.765625q0.8125 0.75 0.8125 1.875q0 0.578125 -0.234375 1.140625q-0.234375 0.546875 -0.78125 1.15625q-0.546875 0.609375 -1.8125 1.671875q-1.046875 0.890625 -1.359375 1.21875q-0.296875 0.3125 -0.484375 0.625l4.671875 0zm2.8656006 1.125l-2.125 -6.90625l1.21875 0l1.09375 3.984375l0.421875 1.484375q0.015625 -0.109375 0.359375 -1.421875l1.09375 -4.046875l1.203125 0l1.03125 4.0l0.34375 1.328125l0.40625 -1.34375l1.171875 -3.984375l1.140625 0l-2.15625 6.90625l-1.21875 0l-1.09375 -4.140625l-0.265625 -1.171875l-1.40625 5.3125l-1.21875 0z" fill-rule="nonzero"/><path fill="#000000" fill-opacity="0.0" d="m607.3059 109.214714l62.141785 0l0 35.55906l-62.141785 0z" fill-rule="evenodd"/><path fill="#000000" d="m636.5611 129.88971l0 1.125l-6.296875 0q-0.015625 -0.421875 0.140625 -0.8125q0.234375 -0.640625 0.765625 -1.265625q0.53125 -0.625 1.53125 -1.453125q1.5625 -1.265625 2.109375 -2.015625q0.546875 -0.75 0.546875 -1.40625q0 -0.703125 -0.5 -1.171875q-0.5 -0.484375 -1.296875 -0.484375q-0.859375 0 -1.375 0.515625q-0.5 0.5 -0.5 1.390625l-1.203125 -0.109375q0.125 -1.359375 0.921875 -2.0625q0.8125 -0.703125 2.171875 -0.703125q1.375 0 2.171875 0.765625q0.8125 0.75 0.8125 1.875q0 0.578125 -0.234375 1.140625q-0.234375 0.546875 -0.78125 1.15625q-0.546875 0.609375 -1.8125 1.671875q-1.046875 0.890625 -1.359375 1.21875q-0.296875 0.3125 -0.484375 0.625l4.671875 0zm2.8656006 1.125l-2.125 -6.90625l1.21875 0l1.09375 3.984375l0.421875 1.484375q0.015625 -0.109375 0.359375 -1.421875l1.09375 -4.046875l1.203125 0l1.03125 4.0l0.34375 1.328125l0.40625 -1.34375l1.171875 -3.984375l1.140625 0l-2.15625 6.90625l-1.21875 0l-1.09375 -4.140625l-0.265625 -1.171875l-1.40625 5.3125l-1.21875 0z" fill-rule="nonzero"/><path fill="#000000" fill-opacity="0.0" d="m676.1346 109.214714l62.141724 0l0 35.55906l-62.141724 0z" fill-rule="evenodd"/><path fill="#000000" d="m705.3898 129.88971l0 1.125l-6.296875 0q-0.015625 -0.421875 0.140625 -0.8125q0.234375 -0.640625 0.765625 -1.265625q0.53125 -0.625 1.53125 -1.453125q1.5625 -1.265625 2.109375 -2.015625q0.546875 -0.75 0.546875 -1.40625q0 -0.703125 -0.5 -1.171875q-0.5 -0.484375 -1.296875 -0.484375q-0.859375 0 -1.375 0.515625q-0.5 0.5 -0.5 1.390625l-1.203125 -0.109375q0.125 -1.359375 0.921875 -2.0625q0.8125 -0.703125 2.171875 -0.703125q1.375 0 2.171875 0.765625q0.8125 0.75 0.8125 1.875q0 0.578125 -0.234375 1.140625q-0.234375 0.546875 -0.78125 1.15625q-0.546875 0.609375 -1.8125 1.671875q-1.046875 0.890625 -1.359375 1.21875q-0.296875 0.3125 -0.484375 0.625l4.671875 0zm2.8656006 1.125l-2.125 -6.90625l1.21875 0l1.09375 3.984375l0.421875 1.484375q0.015625 -0.109375 0.359375 -1.421875l1.09375 -4.046875l1.203125 0l1.03125 4.0l0.34375 1.328125l0.40625 -1.34375l1.171875 -3.984375l1.140625 0l-2.15625 6.90625l-1.21875 0l-1.09375 -4.140625l-0.265625 -1.171875l-1.40625 5.3125l-1.21875 0z" fill-rule="nonzero"/><path fill="#000000" fill-opacity="0.0" d="m744.96326 109.214714l62.141724 0l0 35.55906l-62.141724 0z" fill-rule="evenodd"/><path fill="#000000" d="m774.2184 129.88971l0 1.125l-6.296875 0q-0.015625 -0.421875 0.140625 -0.8125q0.234375 -0.640625 0.765625 -1.265625q0.53125 -0.625 1.53125 -1.453125q1.5625 -1.265625 2.109375 -2.015625q0.546875 -0.75 0.546875 -1.40625q0 -0.703125 -0.5 -1.171875q-0.5 -0.484375 -1.296875 -0.484375q-0.859375 0 -1.375 0.515625q-0.5 0.5 -0.5 1.390625l-1.203125 -0.109375q0.125 -1.359375 0.921875 -2.0625q0.8125 -0.703125 2.171875 -0.703125q1.375 0 2.171875 0.765625q0.8125 0.75 0.8125 1.875q0 0.578125 -0.234375 1.140625q-0.234375 0.546875 -0.78125 1.15625q-0.546875 0.609375 -1.8125 1.671875q-1.046875 0.890625 -1.359375 1.21875q-0.296875 0.3125 -0.484375 0.625l4.671875 0zm2.8656006 1.125l-2.125 -6.90625l1.21875 0l1.09375 3.984375l0.421875 1.484375q0.015625 -0.109375 0.359375 -1.421875l1.09375 -4.046875l1.203125 0l1.03125 4.0l0.34375 1.328125l0.40625 -1.34375l1.171875 -3.984375l1.140625 0l-2.15625 6.90625l-1.21875 0l-1.09375 -4.140625l-0.265625 -1.171875l-1.40625 5.3125l-1.21875 0z" fill-rule="nonzero"/><path fill="#000000" fill-opacity="0.0" d="m813.7919 109.214714l62.141724 0l0 35.55906l-62.141724 0z" fill-rule="evenodd"/><path fill="#000000" d="m843.04706 129.88971l0 1.125l-6.296875 0q-0.015625 -0.421875 0.140625 -0.8125q0.234375 -0.640625 0.765625 -1.265625q0.53125 -0.625 1.53125 -1.453125q1.5625 -1.265625 2.109375 -2.015625q0.546875 -0.75 0.546875 -1.40625q0 -0.703125 -0.5 -1.171875q-0.5 -0.484375 -1.296875 -0.484375q-0.859375 0 -1.375 0.515625q-0.5 0.5 -0.5 1.390625l-1.203125 -0.109375q0.125 -1.359375 0.921875 -2.0625q0.8125 -0.703125 2.171875 -0.703125q1.375 0 2.171875 0.765625q0.8125 0.75 0.8125 1.875q0 0.578125 -0.234375 1.140625q-0.234375 0.546875 -0.78125 1.15625q-0.546875 0.609375 -1.8125 1.671875q-1.046875 0.890625 -1.359375 1.21875q-0.296875 0.3125 -0.484375 0.625l4.671875 0zm2.8656006 1.125l-2.125 -6.90625l1.21875 0l1.09375 3.984375l0.421875 1.484375q0.015625 -0.109375 0.359375 -1.421875l1.09375 -4.046875l1.203125 0l1.03125 4.0l0.34375 1.328125l0.40625 -1.34375l1.171875 -3.984375l1.140625 0l-2.15625 6.90625l-1.21875 0l-1.09375 -4.140625l-0.265625 -1.171875l-1.40625 5.3125l-1.21875 0z" fill-rule="nonzero"/><path fill="#000000" fill-opacity="0.0" d="m882.62054 109.214714l62.141724 0l0 35.55906l-62.141724 0z" fill-rule="evenodd"/><path fill="#000000" d="m911.8757 129.88971l0 1.125l-6.296875 0q-0.015625 -0.421875 0.140625 -0.8125q0.234375 -0.640625 0.765625 -1.265625q0.53125 -0.625 1.53125 -1.453125q1.5625 -1.265625 2.109375 -2.015625q0.546875 -0.75 0.546875 -1.40625q0 -0.703125 -0.5 -1.171875q-0.5 -0.484375 -1.296875 -0.484375q-0.859375 0 -1.375 0.515625q-0.5 0.5 -0.5 1.390625l-1.203125 -0.109375q0.125 -1.359375 0.921875 -2.0625q0.8125 -0.703125 2.171875 -0.703125q1.375 0 2.171875 0.765625q0.8125 0.75 0.8125 1.875q0 0.578125 -0.234375 1.140625q-0.234375 0.546875 -0.78125 1.15625q-0.546875 0.609375 -1.8125 1.671875q-1.046875 0.890625 -1.359375 1.21875q-0.296875 0.3125 -0.484375 0.625l4.671875 0zm2.8656006 1.125l-2.125 -6.90625l1.21875 0l1.09375 3.984375l0.421875 1.484375q0.015625 -0.109375 0.359375 -1.421875l1.09375 -4.046875l1.203125 0l1.03125 4.0l0.34375 1.328125l0.40625 -1.34375l1.171875 -3.984375l1.140625 0l-2.15625 6.90625l-1.21875 0l-1.09375 -4.140625l-0.265625 -1.171875l-1.40625 5.3125l-1.21875 0z" fill-rule="nonzero"/><path fill="#76a5af" d="m122.20014 58.833523l68.8189 0l0 50.393703l-68.8189 0z" fill-rule="evenodd"/><path stroke="#000000" stroke-width="1.0" stroke-linejoin="round" stroke-linecap="butt" d="m122.20014 58.833523l68.8189 0l0 50.393703l-68.8189 0z" fill-rule="evenodd"/><path fill="#000000" d="m162.75803 86.50662q0.546875 -1.046875 2.96875 -2.265625l-0.03125 1.96875q-1.921875 1.671875 -2.875 3.640625l-1.09375 0q-1.0 -1.953125 -2.921875 -3.609375l-0.078125 -2.0q2.453125 1.21875 2.96875 2.3125l-0.515625 0q0 -2.140625 -1.578125 -3.703125q-1.5625 -1.578125 -3.71875 -1.578125q-2.15625 0 -3.71875 1.5625q-1.5625 1.5625 -1.5625 3.71875q0 2.15625 1.5625 3.71875q1.5625 1.5625 3.71875 1.5625q1.234375 0 2.34375 -0.546875q1.109375 -0.5625 2.203125 -2.015625l1.609375 1.375q-1.375 1.765625 -2.890625 2.53125q-1.515625 0.75 -3.265625 0.75q-1.984375 0 -3.6875 -0.984375q-1.703125 -0.984375 -2.703125 -2.703125q-0.984375 -1.71875 -0.984375 -3.6875q0 -1.984375 1.0 -3.703125q1.0 -1.71875 2.6875 -2.6875q1.703125 -0.984375 3.6875 -0.984375q1.984375 0 3.6875 1.0q1.71875 0.984375 2.703125 2.703125q1.0 1.703125 0.5 3.65625l-0.015625 -0.03125z" fill-rule="nonzero"/></g></svg>