<svg version="1.1" viewBox="0.0 0.0 960.0 540.0" fill="none" stroke="none" stroke-linecap="square" stroke-miterlimit="10" xmlns:xlink="http://www.w3.org/1999/xlink" xmlns="http://www.w3.org/2000/svg"><clipPath id="g2c971498042_0_0.0"><path d="m0 0l960.0 0l0 540.0l-960.0 0l0 -540.0z" clip-rule="nonzero"/></clipPath><g clip-path="url(#g2c971498042_0_0.0)"><path fill="#1e1e1e" d="m0 0l960.0 0l0 540.0l-960.0 0z" fill-rule="evenodd"/><path fill="#000000" fill-opacity="0.0" d="m232.59055 29.291338l0 479.59055" fill-rule="evenodd"/><path stroke="#858585" stroke-width="1.0" stroke-linejoin="round" stroke-linecap="butt" d="m232.59055 29.291338l0 479.59055" fill-rule="evenodd"/><path fill="#000000" fill-opacity="0.0" d="m412.80753 29.291338l0 479.59055" fill-rule="evenodd"/><path stroke="#858585" stroke-width="1.0" stroke-linejoin="round" stroke-linecap="butt" d="m412.80753 29.291338l0 479.59055" fill-rule="evenodd"/><path fill="#000000" fill-opacity="0.0" d="m593.0245 29.291338l0 479.59055" fill-rule="evenodd"/><path stroke="#858585" stroke-width="1.0" stroke-linejoin="round" stroke-linecap="butt" d="m593.0245 29.291338l0 479.59055" fill-rule="evenodd"/><path fill="#000000" fill-opacity="0.0" d="m773.24146 29.291338l0 479.59055" fill-rule="evenodd"/><path stroke="#858585" stroke-width="1.0" stroke-linejoin="round" stroke-linecap="butt" d="m773.24146 29.291338l0 479.59055" fill-rule="evenodd"/><path fill="#eeeeee" d="m52.879436 78.430435l179.2126 0l0 52.283463l-179.2126 0z" fill-rule="evenodd"/><path stroke="#e11d48" stroke-width="3.0" stroke-linejoin="round" stroke-linecap="butt" d="m52.879436 78.430435l179.2126 0l0 52.283463l-179.2126 0z" fill-rule="evenodd"/><path fill="#000000" d="m86.25826 100.492165l0 -11.640625l-2.96875 0l0 -2.171875l8.3125 0l0 2.171875l-2.96875 0l0 11.640625l-2.375 0zm11.152496 0q-1.78125 0 -2.671875 -0.796875q-0.875 -0.8125 -0.875 -2.5625l0 -3.359375q0 -1.765625 0.796875 -2.5625q0.8125 -0.796875 2.5625 -0.796875l0.875 0q1.484375 0 2.265625 0.859375q0.796875 0.84375 0.796875 2.40625l0 2.796875l-4.953125 0l0 1.03125q0 0.40625 0.234375 0.625q0.234375 0.203125 0.78125 0.203125l3.34375 0l0 2.15625l-3.15625 0zm1.453125 -7.1875q0 -0.328125 -0.203125 -0.53125q-0.203125 -0.203125 -0.53125 -0.203125l-1.09375 0q-0.5 0 -0.671875 0.1875q-0.15625 0.1875 -0.15625 0.640625l0 0.9375l2.65625 0l0 -1.03125zm11.480621 7.1875q-0.34375 0 -0.71875 -0.1875q-0.359375 -0.1875 -0.3125 -0.34375q-0.234375 0.53125 -1.140625 0.53125l-1.65625 0q-1.5625 0 -2.328125 -0.671875q-0.75 -0.671875 -0.75 -2.21875l0 -0.375q0 -3.265625 3.09375 -3.265625l1.9375 0l0 -0.5625q0 -0.40625 -0.234375 -0.609375q-0.234375 -0.21875 -0.78125 -0.21875l-3.265625 0l0 -2.15625l3.078125 0q1.765625 0 2.65625 0.8125q0.890625 0.8125 0.890625 2.546875l0 4.484375q0 0.078125 0.078125 0.125q0.078125 0.046875 0.859375 0.046875l0 2.0625l-1.40625 0zm-2.359375 -2.15625q0.34375 0 0.40625 -0.109375q0.078125 -0.125 0.078125 -0.4375l0 -1.6875l-1.953125 0q-0.328125 0 -0.546875 0.21875q-0.203125 0.203125 -0.203125 0.53125l0 0.9375q0 0.328125 0.109375 0.4375q0.125 0.109375 0.453125 0.109375l1.65625 0zm7.2306213 -7.921875l-0.1875 0.375q0.15625 -0.375 0.96875 -0.375l0.109375 0q1.5 0 1.875 0.515625q0.421875 -0.515625 1.59375 -0.515625l0.109375 0q1.296875 0 1.9375 0.703125q0.65625 0.6875 0.65625 2.296875l0 7.078125l-2.234375 0l0 -7.09375q0 -0.671875 -0.078125 -0.828125q-0.078125 -0.15625 -0.421875 -0.15625l-0.109375 0q-0.34375 0 -0.484375 0.25q-0.140625 0.25 -0.15625 0.609375l0 7.21875l-2.234375 0l0 -7.09375q0 -0.671875 -0.109375 -0.828125q-0.09375 -0.15625 -0.375 -0.15625l-0.109375 0q-0.359375 0 -0.5 0.203125q-0.140625 0.203125 -0.15625 0.484375l0 7.390625l-2.25 0l0 -10.078125l2.15625 0zm22.961235 10.078125q-1.765625 0 -2.75 -0.890625q-0.984375 -0.890625 -0.984375 -2.65625l0 -6.71875q0 -1.75 0.984375 -2.640625q0.984375 -0.90625 2.75 -0.90625l3.03125 0l0 2.171875l-3.21875 0q-0.53125 0 -0.859375 0.296875q-0.3125 0.296875 -0.3125 0.71875l0 7.4375q0 0.421875 0.3125 0.71875q0.328125 0.296875 0.859375 0.296875l3.21875 0l0 2.171875l-3.03125 0zm8.261871 -13.8125l-0.015625 3.8125q0.09375 -0.078125 1.046875 -0.078125l0.859375 0q1.671875 0 2.515625 0.828125q0.84375 0.8125 0.84375 2.53125l0 6.71875l-2.34375 0l0 -7.09375q0 -0.40625 -0.21875 -0.609375q-0.203125 -0.21875 -0.609375 -0.21875l-1.234375 0q-0.4375 0 -0.640625 0.203125q-0.1875 0.203125 -0.203125 0.40625l0 7.3125l-2.328125 0l0 -13.8125l2.328125 0zm11.418121 13.8125q-1.78125 0 -2.671875 -0.796875q-0.875 -0.8125 -0.875 -2.5625l0 -3.359375q0 -1.765625 0.796875 -2.5625q0.8125 -0.796875 2.5625 -0.796875l0.875 0q1.484375 0 2.265625 0.859375q0.796875 0.84375 0.796875 2.40625l0 2.796875l-4.953125 0l0 1.03125q0 0.40625 0.234375 0.625q0.234375 0.203125 0.78125 0.203125l3.34375 0l0 2.15625l-3.15625 0zm1.453125 -7.1875q0 -0.328125 -0.203125 -0.53125q-0.203125 -0.203125 -0.53125 -0.203125l-1.09375 0q-0.5 0 -0.671875 0.1875q-0.15625 0.1875 -0.15625 0.640625l0 0.9375l2.65625 0l0 -1.03125zm9.105621 7.1875q-1.78125 0 -2.671875 -0.796875q-0.875 -0.8125 -0.875 -2.5625l0 -3.359375q0 -1.734375 0.890625 -2.546875q0.890625 -0.8125 2.65625 -0.8125l2.78125 0l0 2.15625l-2.96875 0q-0.546875 0 -0.78125 0.21875q-0.234375 0.203125 -0.234375 0.609375l0 4.109375q0 0.40625 0.234375 0.625q0.234375 0.203125 0.78125 0.203125l2.96875 0l0 2.15625l-2.78125 0zm8.418121 -4.234375l0 4.234375l-2.328125 0l0 -13.8125l2.328125 0l0 6.453125l2.390625 -2.71875l2.984375 0l-3.59375 4.09375l3.703125 5.984375l-2.84375 0l-2.59375 -4.296875l-0.046875 0.0625zm12.605621 -9.578125l0 2.4375l-2.515625 0l0 -2.4375l2.515625 0zm-5.15625 5.890625l0 -2.15625l5.078125 0l0 7.921875l2.75 0l0 2.15625l-5.09375 0l0 -7.921875l-2.734375 0zm12.433746 -2.15625l-0.15625 0.375q0.234375 -0.375 1.28125 -0.375l0.859375 0q1.671875 0 2.515625 0.828125q0.84375 0.8125 0.84375 2.53125l0 6.71875l-2.34375 0l0 -7.09375q0 -0.40625 -0.21875 -0.609375q-0.203125 -0.21875 -0.609375 -0.21875l-1.234375 0q-0.453125 0 -0.65625 0.21875q-0.1875 0.203125 -0.1875 0.421875l0 7.28125l-2.328125 0l0 -10.078125l2.234375 0z" fill-rule="nonzero"/><path fill="#000000" d="m110.397316 112.69529q0 -2.234375 0.578125 -3.640625q0.578125 -1.40625 1.734375 -2.609375l2.609375 0q-1.40625 1.671875 -1.8125 2.375q-0.390625 0.6875 -0.59375 1.5625q-0.1875 0.875 -0.1875 2.28125l0 5.859375q0 1.40625 0.1875 2.28125q0.203125 0.859375 0.59375 1.5625q0.40625 0.6875 1.8125 2.359375l-2.609375 0q-1.15625 -1.1875 -1.734375 -2.59375q-0.578125 -1.40625 -0.578125 -3.65625l0 -5.78125zm15.058746 9.796875q-0.34375 0 -0.71875 -0.1875q-0.359375 -0.1875 -0.3125 -0.34375q-0.234375 0.53125 -1.140625 0.53125l-1.65625 0q-1.5625 0 -2.328125 -0.671875q-0.75 -0.671875 -0.75 -2.21875l0 -0.375q0 -3.265625 3.09375 -3.265625l1.9375 0l0 -0.5625q0 -0.40625 -0.234375 -0.609375q-0.234375 -0.21875 -0.78125 -0.21875l-3.265625 0l0 -2.15625l3.078125 0q1.765625 0 2.65625 0.8125q0.890625 0.8125 0.890625 2.546875l0 4.484375q0 0.078125 0.078125 0.125q0.078125 0.046875 0.859375 0.046875l0 2.0625l-1.40625 0zm-2.359375 -2.15625q0.34375 0 0.40625 -0.109375q0.078125 -0.125 0.078125 -0.4375l0 -1.6875l-1.953125 0q-0.328125 0 -0.546875 0.21875q-0.203125 0.203125 -0.203125 0.53125l0 0.9375q0 0.328125 0.109375 0.4375q0.125 0.109375 0.453125 0.109375l1.65625 0zm12.902489 -0.546875q0 1.34375 -0.84375 2.03125q-0.84375 0.671875 -2.328125 0.671875l-3.15625 0l0 -2.15625l3.34375 0q0.359375 0 0.5 -0.109375q0.140625 -0.109375 0.140625 -0.34375l0 -1.0q0 -0.453125 -0.421875 -0.453125l-0.6875 0q-1.453125 0 -2.21875 -0.671875q-0.75 -0.671875 -0.75 -2.078125l0 -0.546875q0 -1.4375 0.828125 -2.078125q0.84375 -0.640625 2.34375 -0.640625l2.875 0l0 2.15625l-3.0625 0q-0.34375 0 -0.5 0.125q-0.15625 0.109375 -0.15625 0.328125l0 0.671875q0 0.25 0.125 0.359375q0.140625 0.109375 0.40625 0.109375l0.625 0q1.390625 0 2.15625 0.71875q0.78125 0.71875 0.78125 2.0625l0 0.84375zm5.1837463 3.71875q0.328125 0 0.4375 -0.09375q0.125 -0.078125 0.203125 -0.359375l0.25 -0.640625l-0.265625 0.078125l-3.328125 -10.078125l2.515625 0l2.015625 6.796875l1.765625 -6.796875l2.421875 0l-3.03125 10.796875q-0.25 1.03125 -0.671875 1.578125q-0.421875 0.546875 -0.9375 0.703125q-0.515625 0.171875 -1.265625 0.171875l-1.265625 0l0 -2.15625l1.15625 0zm10.199371 -11.09375l-0.15625 0.375q0.234375 -0.375 1.28125 -0.375l0.859375 0q1.671875 0 2.515625 0.828125q0.84375 0.8125 0.84375 2.53125l0 6.71875l-2.34375 0l0 -7.09375q0 -0.40625 -0.21875 -0.609375q-0.203125 -0.21875 -0.609375 -0.21875l-1.234375 0q-0.453125 0 -0.65625 0.21875q-0.1875 0.203125 -0.1875 0.421875l0 7.28125l-2.328125 0l0 -10.078125l2.234375 0zm11.996246 10.078125q-1.78125 0 -2.671875 -0.796875q-0.875 -0.8125 -0.875 -2.5625l0 -3.359375q0 -1.734375 0.890625 -2.546875q0.890625 -0.8125 2.65625 -0.8125l2.78125 0l0 2.15625l-2.96875 0q-0.546875 0 -0.78125 0.21875q-0.234375 0.203125 -0.234375 0.609375l0 4.109375q0 0.40625 0.234375 0.625q0.234375 0.203125 0.78125 0.203125l2.96875 0l0 2.15625l-2.78125 0zm11.949371 -4.015625q0 2.25 -0.59375 3.65625q-0.578125 1.40625 -1.71875 2.59375l-2.59375 0q1.375 -1.671875 1.78125 -2.359375q0.40625 -0.703125 0.59375 -1.5625q0.1875 -0.875 0.1875 -2.28125l0 -5.859375q0 -1.40625 -0.1875 -2.28125q-0.1875 -0.875 -0.59375 -1.5625q-0.40625 -0.703125 -1.78125 -2.375l2.59375 0q1.140625 1.203125 1.71875 2.609375q0.59375 1.40625 0.59375 3.640625l0 5.78125z" fill-rule="nonzero"/><path fill="#eeeeee" d="m593.53125 78.430435l179.21259 0l0 173.88977l-179.21259 0z" fill-rule="evenodd"/><path stroke="#e11d48" stroke-width="3.0" stroke-linejoin="round" stroke-linecap="butt" d="m593.53125 78.430435l179.21259 0l0 173.88977l-179.21259 0z" fill-rule="evenodd"/><path fill="#000000" d="m667.52 115.13907l0 -9.265625l-2.625 0.96875l0 -2.296875l2.75 -1.0625l2.21875 0l0 11.65625l2.03125 0l0 2.15625l-6.8125 0l0 -2.15625l2.4375 0zm14.793152 -1.203125q0 1.734375 -0.890625 2.546875q-0.890625 0.8125 -2.65625 0.8125l-0.609375 0q-1.765625 0 -2.65625 -0.8125q-0.890625 -0.8125 -0.890625 -2.546875l0 -3.359375q0 -1.734375 0.890625 -2.546875q0.890625 -0.8125 2.65625 -0.8125l0.609375 0q1.765625 0 2.65625 0.8125q0.890625 0.8125 0.890625 2.546875l0 3.359375zm-2.328125 -3.734375q0 -0.40625 -0.234375 -0.609375q-0.234375 -0.21875 -0.796875 -0.21875l-0.984375 0q-0.546875 0 -0.78125 0.21875q-0.234375 0.203125 -0.234375 0.609375l0 4.109375q0 0.40625 0.234375 0.625q0.234375 0.203125 0.78125 0.203125l0.984375 0q0.5625 0 0.796875 -0.203125q0.234375 -0.21875 0.234375 -0.625l0 -4.109375zm7.011841 -2.984375l-0.15625 0.375q0.234375 -0.375 1.28125 -0.375l0.859375 0q1.671875 0 2.515625 0.828125q0.84375 0.8125 0.84375 2.53125l0 6.71875l-2.34375 0l0 -7.09375q0 -0.40625 -0.21875 -0.609375q-0.203125 -0.21875 -0.609375 -0.21875l-1.234375 0q-0.453125 0 -0.65625 0.21875q-0.1875 0.203125 -0.1875 0.421875l0 7.28125l-2.328125 0l0 -10.078125l2.234375 0zm10.746277 7.921875l0 -9.265625l-2.625 0.96875l0 -2.296875l2.75 -1.0625l2.21875 0l0 11.65625l2.03125 0l0 2.15625l-6.8125 0l0 -2.15625l2.4375 0z" fill-rule="nonzero"/><path fill="#000000" d="m667.52 137.13907l0 -9.265625l-2.625 0.96875l0 -2.296875l2.75 -1.0625l2.21875 0l0 11.65625l2.03125 0l0 2.15625l-6.8125 0l0 -2.15625l2.4375 0zm14.793152 -1.203125q0 1.734375 -0.890625 2.546875q-0.890625 0.8125 -2.65625 0.8125l-0.609375 0q-1.765625 0 -2.65625 -0.8125q-0.890625 -0.8125 -0.890625 -2.546875l0 -3.359375q0 -1.734375 0.890625 -2.546875q0.890625 -0.8125 2.65625 -0.8125l0.609375 0q1.765625 0 2.65625 0.8125q0.890625 0.8125 0.890625 2.546875l0 3.359375zm-2.328125 -3.734375q0 -0.40625 -0.234375 -0.609375q-0.234375 -0.21875 -0.796875 -0.21875l-0.984375 0q-0.546875 0 -0.78125 0.21875q-0.234375 0.203125 -0.234375 0.609375l0 4.109375q0 0.40625 0.234375 0.625q0.234375 0.203125 0.78125 0.203125l0.984375 0q0.5625 0 0.796875 -0.203125q0.234375 -0.21875 0.234375 -0.625l0 -4.109375zm7.011841 -2.984375l-0.15625 0.375q0.234375 -0.375 1.28125 -0.375l0.859375 0q1.671875 0 2.515625 0.828125q0.84375 0.8125 0.84375 2.53125l0 6.71875l-2.34375 0l0 -7.09375q0 -0.40625 -0.21875 -0.609375q-0.203125 -0.21875 -0.609375 -0.21875l-1.234375 0q-0.453125 0 -0.65625 0.21875q-0.1875 0.203125 -0.1875 0.421875l0 7.28125l-2.328125 0l0 -10.078125l2.234375 0zm10.746277 7.921875l0 -9.265625l-2.625 0.96875l0 -2.296875l2.75 -1.0625l2.21875 0l0 11.65625l2.03125 0l0 2.15625l-6.8125 0l0 -2.15625l2.4375 0z" fill-rule="nonzero"/><path fill="#000000" d="m667.52 159.13907l0 -9.265625l-2.625 0.96875l0 -2.296875l2.75 -1.0625l2.21875 0l0 11.65625l2.03125 0l0 2.15625l-6.8125 0l0 -2.15625l2.4375 0zm14.793152 -1.203125q0 1.734375 -0.890625 2.546875q-0.890625 0.8125 -2.65625 0.8125l-0.609375 0q-1.765625 0 -2.65625 -0.8125q-0.890625 -0.8125 -0.890625 -2.546875l0 -3.359375q0 -1.734375 0.890625 -2.546875q0.890625 -0.8125 2.65625 -0.8125l0.609375 0q1.765625 0 2.65625 0.8125q0.890625 0.8125 0.890625 2.546875l0 3.359375zm-2.328125 -3.734375q0 -0.40625 -0.234375 -0.609375q-0.234375 -0.21875 -0.796875 -0.21875l-0.984375 0q-0.546875 0 -0.78125 0.21875q-0.234375 0.203125 -0.234375 0.609375l0 4.109375q0 0.40625 0.234375 0.625q0.234375 0.203125 0.78125 0.203125l0.984375 0q0.5625 0 0.796875 -0.203125q0.234375 -0.21875 0.234375 -0.625l0 -4.109375zm7.011841 -2.984375l-0.15625 0.375q0.234375 -0.375 1.28125 -0.375l0.859375 0q1.671875 0 2.515625 0.828125q0.84375 0.8125 0.84375 2.53125l0 6.71875l-2.34375 0l0 -7.09375q0 -0.40625 -0.21875 -0.609375q-0.203125 -0.21875 -0.609375 -0.21875l-1.234375 0q-0.453125 0 -0.65625 0.21875q-0.1875 0.203125 -0.1875 0.421875l0 7.28125l-2.328125 0l0 -10.078125l2.234375 0zm10.746277 7.921875l0 -9.265625l-2.625 0.96875l0 -2.296875l2.75 -1.0625l2.21875 0l0 11.65625l2.03125 0l0 2.15625l-6.8125 0l0 -2.15625l2.4375 0z" fill-rule="nonzero"/><path fill="#000000" d="m667.52 181.13907l0 -9.265625l-2.625 0.96875l0 -2.296875l2.75 -1.0625l2.21875 0l0 11.65625l2.03125 0l0 2.15625l-6.8125 0l0 -2.15625l2.4375 0zm14.793152 -1.203125q0 1.734375 -0.890625 2.546875q-0.890625 0.8125 -2.65625 0.8125l-0.609375 0q-1.765625 0 -2.65625 -0.8125q-0.890625 -0.8125 -0.890625 -2.546875l0 -3.359375q0 -1.734375 0.890625 -2.546875q0.890625 -0.8125 2.65625 -0.8125l0.609375 0q1.765625 0 2.65625 0.8125q0.890625 0.8125 0.890625 2.546875l0 3.359375zm-2.328125 -3.734375q0 -0.40625 -0.234375 -0.609375q-0.234375 -0.21875 -0.796875 -0.21875l-0.984375 0q-0.546875 0 -0.78125 0.21875q-0.234375 0.203125 -0.234375 0.609375l0 4.109375q0 0.40625 0.234375 0.625q0.234375 0.203125 0.78125 0.203125l0.984375 0q0.5625 0 0.796875 -0.203125q0.234375 -0.21875 0.234375 -0.625l0 -4.109375zm7.011841 -2.984375l-0.15625 0.375q0.234375 -0.375 1.28125 -0.375l0.859375 0q1.671875 0 2.515625 0.828125q0.84375 0.8125 0.84375 2.53125l0 6.71875l-2.34375 0l0 -7.09375q0 -0.40625 -0.21875 -0.609375q-0.203125 -0.21875 -0.609375 -0.21875l-1.234375 0q-0.453125 0 -0.65625 0.21875q-0.1875 0.203125 -0.1875 0.421875l0 7.28125l-2.328125 0l0 -10.078125l2.234375 0zm10.746277 7.921875l0 -9.265625l-2.625 0.96875l0 -2.296875l2.75 -1.0625l2.21875 0l0 11.65625l2.03125 0l0 2.15625l-6.8125 0l0 -2.15625l2.4375 0z" fill-rule="nonzero"/><path fill="#000000" d="m667.52 203.13907l0 -9.265625l-2.625 0.96875l0 -2.296875l2.75 -1.0625l2.21875 0l0 11.65625l2.03125 0l0 2.15625l-6.8125 0l0 -2.15625l2.4375 0zm14.793152 -1.203125q0 1.734375 -0.890625 2.546875q-0.890625 0.8125 -2.65625 0.8125l-0.609375 0q-1.765625 0 -2.65625 -0.8125q-0.890625 -0.8125 -0.890625 -2.546875l0 -3.359375q0 -1.734375 0.890625 -2.546875q0.890625 -0.8125 2.65625 -0.8125l0.609375 0q1.765625 0 2.65625 0.8125q0.890625 0.8125 0.890625 2.546875l0 3.359375zm-2.328125 -3.734375q0 -0.40625 -0.234375 -0.609375q-0.234375 -0.21875 -0.796875 -0.21875l-0.984375 0q-0.546875 0 -0.78125 0.21875q-0.234375 0.203125 -0.234375 0.609375l0 4.109375q0 0.40625 0.234375 0.625q0.234375 0.203125 0.78125 0.203125l0.984375 0q0.5625 0 0.796875 -0.203125q0.234375 -0.21875 0.234375 -0.625l0 -4.109375zm7.011841 -2.984375l-0.15625 0.375q0.234375 -0.375 1.28125 -0.375l0.859375 0q1.671875 0 2.515625 0.828125q0.84375 0.8125 0.84375 2.53125l0 6.71875l-2.34375 0l0 -7.09375q0 -0.40625 -0.21875 -0.609375q-0.203125 -0.21875 -0.609375 -0.21875l-1.234375 0q-0.453125 0 -0.65625 0.21875q-0.1875 0.203125 -0.1875 0.421875l0 7.28125l-2.328125 0l0 -10.078125l2.234375 0zm10.746277 7.921875l0 -9.265625l-2.625 0.96875l0 -2.296875l2.75 -1.0625l2.21875 0l0 11.65625l2.03125 0l0 2.15625l-6.8125 0l0 -2.15625l2.4375 0z" fill-rule="nonzero"/><path fill="#000000" d="m667.52 225.13907l0 -9.265625l-2.625 0.96875l0 -2.296875l2.75 -1.0625l2.21875 0l0 11.65625l2.03125 0l0 2.15625l-6.8125 0l0 -2.15625l2.4375 0zm14.793152 -1.203125q0 1.734375 -0.890625 2.546875q-0.890625 0.8125 -2.65625 0.8125l-0.609375 0q-1.765625 0 -2.65625 -0.8125q-0.890625 -0.8125 -0.890625 -2.546875l0 -3.359375q0 -1.734375 0.890625 -2.546875q0.890625 -0.8125 2.65625 -0.8125l0.609375 0q1.765625 0 2.65625 0.8125q0.890625 0.8125 0.890625 2.546875l0 3.359375zm-2.328125 -3.734375q0 -0.40625 -0.234375 -0.609375q-0.234375 -0.21875 -0.796875 -0.21875l-0.984375 0q-0.546875 0 -0.78125 0.21875q-0.234375 0.203125 -0.234375 0.609375l0 4.109375q0 0.40625 0.234375 0.625q0.234375 0.203125 0.78125 0.203125l0.984375 0q0.5625 0 0.796875 -0.203125q0.234375 -0.21875 0.234375 -0.625l0 -4.109375zm7.011841 -2.984375l-0.15625 0.375q0.234375 -0.375 1.28125 -0.375l0.859375 0q1.671875 0 2.515625 0.828125q0.84375 0.8125 0.84375 2.53125l0 6.71875l-2.34375 0l0 -7.09375q0 -0.40625 -0.21875 -0.609375q-0.203125 -0.21875 -0.609375 -0.21875l-1.234375 0q-0.453125 0 -0.65625 0.21875q-0.1875 0.203125 -0.1875 0.421875l0 7.28125l-2.328125 0l0 -10.078125l2.234375 0zm10.746277 7.921875l0 -9.265625l-2.625 0.96875l0 -2.296875l2.75 -1.0625l2.21875 0l0 11.65625l2.03125 0l0 2.15625l-6.8125 0l0 -2.15625l2.4375 0z" fill-rule="nonzero"/><path fill="#eeeeee" d="m594.54144 290.9187l179.21259 0l0 52.283447l-179.21259 0z" fill-rule="evenodd"/><path stroke="#e11d48" stroke-width="3.0" stroke-linejoin="round" stroke-linecap="butt" d="m594.54144 290.9187l179.21259 0l0 52.283447l-179.21259 0z" fill-rule="evenodd"/><path fill="#000000" d="m622.88306 312.98044l0 -11.640625l-2.96875 0l0 -2.171875l8.3125 0l0 2.171875l-2.96875 0l0 11.640625l-2.375 0zm11.152527 0q-1.78125 0 -2.671875 -0.796875q-0.875 -0.8125 -0.875 -2.5625l0 -3.359375q0 -1.765625 0.796875 -2.5625q0.8125 -0.796875 2.5625 -0.796875l0.875 0q1.484375 0 2.265625 0.859375q0.796875 0.84375 0.796875 2.40625l0 2.796875l-4.953125 0l0 1.03125q0 0.40625 0.234375 0.625q0.234375 0.203125 0.78125 0.203125l3.34375 0l0 2.15625l-3.15625 0zm1.453125 -7.1875q0 -0.328125 -0.203125 -0.53125q-0.203125 -0.203125 -0.53125 -0.203125l-1.09375 0q-0.5 0 -0.671875 0.1875q-0.15625 0.1875 -0.15625 0.640625l0 0.9375l2.65625 0l0 -1.03125zm11.480591 7.1875q-0.34375 0 -0.71875 -0.1875q-0.359375 -0.1875 -0.3125 -0.34375q-0.234375 0.53125 -1.140625 0.53125l-1.65625 0q-1.5625 0 -2.328125 -0.671875q-0.75 -0.671875 -0.75 -2.21875l0 -0.375q0 -3.265625 3.09375 -3.265625l1.9375 0l0 -0.5625q0 -0.40625 -0.234375 -0.609375q-0.234375 -0.21875 -0.78125 -0.21875l-3.265625 0l0 -2.15625l3.078125 0q1.765625 0 2.65625 0.8125q0.890625 0.8125 0.890625 2.546875l0 4.484375q0 0.078125 0.078125 0.125q0.078125 0.046875 0.859375 0.046875l0 2.0625l-1.40625 0zm-2.359375 -2.15625q0.34375 0 0.40625 -0.109375q0.078125 -0.125 0.078125 -0.4375l0 -1.6875l-1.953125 0q-0.328125 0 -0.546875 0.21875q-0.203125 0.203125 -0.203125 0.53125l0 0.9375q0 0.328125 0.109375 0.4375q0.125 0.109375 0.453125 0.109375l1.65625 0zm7.230652 -7.921875l-0.1875 0.375q0.15625 -0.375 0.96875 -0.375l0.109375 0q1.5 0 1.875 0.515625q0.421875 -0.515625 1.59375 -0.515625l0.109375 0q1.296875 0 1.9375 0.703125q0.65625 0.6875 0.65625 2.296875l0 7.078125l-2.234375 0l0 -7.09375q0 -0.671875 -0.078125 -0.828125q-0.078125 -0.15625 -0.421875 -0.15625l-0.109375 0q-0.34375 0 -0.484375 0.25q-0.140625 0.25 -0.15625 0.609375l0 7.21875l-2.234375 0l0 -7.09375q0 -0.671875 -0.109375 -0.828125q-0.09375 -0.15625 -0.375 -0.15625l-0.109375 0q-0.359375 0 -0.5 0.203125q-0.140625 0.203125 -0.15625 0.484375l0 7.390625l-2.25 0l0 -10.078125l2.15625 0zm22.961243 10.078125q-1.765625 0 -2.75 -0.890625q-0.984375 -0.890625 -0.984375 -2.65625l0 -6.71875q0 -1.75 0.984375 -2.640625q0.984375 -0.90625 2.75 -0.90625l3.03125 0l0 2.171875l-3.21875 0q-0.53125 0 -0.859375 0.296875q-0.3125 0.296875 -0.3125 0.71875l0 7.4375q0 0.421875 0.3125 0.71875q0.328125 0.296875 0.859375 0.296875l3.21875 0l0 2.171875l-3.03125 0zm8.261841 -13.8125l-0.015625 3.8125q0.09375 -0.078125 1.046875 -0.078125l0.859375 0q1.671875 0 2.515625 0.828125q0.84375 0.8125 0.84375 2.53125l0 6.71875l-2.34375 0l0 -7.09375q0 -0.40625 -0.21875 -0.609375q-0.203125 -0.21875 -0.609375 -0.21875l-1.234375 0q-0.4375 0 -0.640625 0.203125q-0.1875 0.203125 -0.203125 0.40625l0 7.3125l-2.328125 0l0 -13.8125l2.328125 0zm11.418152 13.8125q-1.78125 0 -2.671875 -0.796875q-0.875 -0.8125 -0.875 -2.5625l0 -3.359375q0 -1.765625 0.796875 -2.5625q0.8125 -0.796875 2.5625 -0.796875l0.875 0q1.484375 0 2.265625 0.859375q0.796875 0.84375 0.796875 2.40625l0 2.796875l-4.953125 0l0 1.03125q0 0.40625 0.234375 0.625q0.234375 0.203125 0.78125 0.203125l3.34375 0l0 2.15625l-3.15625 0zm1.453125 -7.1875q0 -0.328125 -0.203125 -0.53125q-0.203125 -0.203125 -0.53125 -0.203125l-1.09375 0q-0.5 0 -0.671875 0.1875q-0.15625 0.1875 -0.15625 0.640625l0 0.9375l2.65625 0l0 -1.03125zm9.105591 7.1875q-1.78125 0 -2.671875 -0.796875q-0.875 -0.8125 -0.875 -2.5625l0 -3.359375q0 -1.734375 0.890625 -2.546875q0.890625 -0.8125 2.65625 -0.8125l2.78125 0l0 2.15625l-2.96875 0q-0.546875 0 -0.78125 0.21875q-0.234375 0.203125 -0.234375 0.609375l0 4.109375q0 0.40625 0.234375 0.625q0.234375 0.203125 0.78125 0.203125l2.96875 0l0 2.15625l-2.78125 0zm8.418152 -4.234375l0 4.234375l-2.328125 0l0 -13.8125l2.328125 0l0 6.453125l2.390625 -2.71875l2.984375 0l-3.59375 4.09375l3.703125 5.984375l-2.84375 0l-2.59375 -4.296875l-0.046875 0.0625zm15.199402 0.875q0 1.734375 -0.890625 2.546875q-0.890625 0.8125 -2.65625 0.8125l-0.609375 0q-1.765625 0 -2.656311 -0.8125q-0.890625 -0.8125 -0.890625 -2.546875l0 -3.359375q0 -1.734375 0.890625 -2.546875q0.89068604 -0.8125 2.656311 -0.8125l0.609375 0q1.765625 0 2.65625 0.8125q0.890625 0.8125 0.890625 2.546875l0 3.359375zm-2.328125 -3.734375q0 -0.40625 -0.234375 -0.609375q-0.234375 -0.21875 -0.796875 -0.21875l-0.984375 0q-0.546875 0 -0.78125 0.21875q-0.234375 0.203125 -0.234375 0.609375l0 4.109375q0 0.40625 0.234375 0.625q0.234375 0.203125 0.78125 0.203125l0.984375 0q0.5625 0 0.796875 -0.203125q0.234375 -0.21875 0.234375 -0.625l0 -4.109375zm10.152466 6.71875q-0.28125 0.375 -1.265625 0.375l-0.640625 0q-1.671875 0 -2.515625 -0.8125q-0.84375 -0.828125 -0.84375 -2.546875l0 -6.71875l2.34375 0l0 7.09375q0 0.40625 0.203125 0.625q0.21875 0.203125 0.625 0.203125l1.015625 0q0.4375 0 0.625 -0.1875q0.1875 -0.203125 0.203125 -0.421875l0 -7.3125l2.34375 0l0 10.078125l-2.25 0l0.15625 -0.375zm9.183777 0.375q-1.125 0 -1.734375 -0.734375q-0.609375 -0.734375 -0.609375 -1.875l0 -5.3125l-1.765625 0l0 -2.15625l1.765625 0l0 -2.234375l2.34375 0l0 2.234375l2.71875 0l0 2.15625l-2.71875 0l0 5.40625q0 0.234375 0.078125 0.296875q0.078125 0.0625 0.375 0.0625l2.265625 0l0 2.15625l-2.71875 0z" fill-rule="nonzero"/><path fill="#000000" d="m657.0965 325.18356q0 -2.234375 0.578125 -3.640625q0.578125 -1.40625 1.734375 -2.609375l2.609375 0q-1.40625 1.671875 -1.8125 2.375q-0.390625 0.6875 -0.59375 1.5625q-0.1875 0.875 -0.1875 2.28125l0 5.859375q0 1.40625 0.1875 2.28125q0.203125 0.859375 0.59375 1.5625q0.40625 0.6875 1.8125 2.359375l-2.609375 0q-1.15625 -1.1875 -1.734375 -2.59375q-0.578125 -1.40625 -0.578125 -3.65625l0 -5.78125zm15.527527 7.09375q0 1.34375 -0.84375 2.03125q-0.84375 0.671875 -2.328125 0.671875l-3.15625 0l0 -2.15625l3.34375 0q0.359375 0 0.5 -0.109375q0.140625 -0.109375 0.140625 -0.34375l0 -1.0q0 -0.453125 -0.421875 -0.453125l-0.6875 0q-1.453125 0 -2.21875 -0.671875q-0.75 -0.671875 -0.75 -2.078125l0 -0.546875q0 -1.4375 0.828125 -2.078125q0.84375 -0.640625 2.34375 -0.640625l2.875 0l0 2.15625l-3.0625 0q-0.34375 0 -0.5 0.125q-0.15625 0.109375 -0.15625 0.328125l0 0.671875q0 0.25 0.125 0.359375q0.140625 0.109375 0.40625 0.109375l0.625 0q1.390625 0 2.15625 0.71875q0.78125 0.71875 0.78125 2.0625l0 0.84375zm5.183716 3.71875q0.328125 0 0.4375 -0.09375q0.125 -0.078125 0.203125 -0.359375l0.25 -0.640625l-0.265625 0.078125l-3.328125 -10.078125l2.515625 0l2.015625 6.796875l1.765625 -6.796875l2.421875 0l-3.03125 10.796875q-0.25 1.03125 -0.671875 1.578125q-0.421875 0.546875 -0.9375 0.703125q-0.515625 0.171875 -1.265625 0.171875l-1.265625 0l0 -2.15625l1.15625 0zm10.199402 -11.09375l-0.15625 0.375q0.234375 -0.375 1.28125 -0.375l0.859375 0q1.671875 0 2.515625 0.828125q0.84375 0.8125 0.84375 2.53125l0 6.71875l-2.34375 0l0 -7.09375q0 -0.40625 -0.21875 -0.609375q-0.203125 -0.21875 -0.609375 -0.21875l-1.234375 0q-0.453125 0 -0.65625 0.21875q-0.1875 0.203125 -0.1875 0.421875l0 7.28125l-2.328125 0l0 -10.078125l2.234375 0zm11.996216 10.078125q-1.78125 0 -2.671875 -0.796875q-0.875 -0.8125 -0.875 -2.5625l0 -3.359375q0 -1.734375 0.890625 -2.546875q0.890625 -0.8125 2.65625 -0.8125l2.78125 0l0 2.15625l-2.96875 0q-0.546875 0 -0.78125 0.21875q-0.234375 0.203125 -0.234375 0.609375l0 4.109375q0 0.40625 0.234375 0.625q0.234375 0.203125 0.78125 0.203125l2.96875 0l0 2.15625l-2.78125 0zm11.949402 -4.015625q0 2.25 -0.59375 3.65625q-0.578125 1.40625 -1.71875 2.59375l-2.59375 0q1.375 -1.671875 1.78125 -2.359375q0.40625 -0.703125 0.59375 -1.5625q0.1875 -0.875 0.1875 -2.28125l0 -5.859375q0 -1.40625 -0.1875 -2.28125q-0.1875 -0.875 -0.59375 -1.5625q-0.40625 -0.703125 -1.78125 -2.375l2.59375 0q1.140625 1.203125 1.71875 2.609375q0.59375 1.40625 0.59375 3.640625l0 5.78125z" fill-rule="nonzero"/><path fill="#eeeeee" d="m773.7475 423.27115l179.21265 0l0 52.283478l-179.21265 0z" fill-rule="evenodd"/><path stroke="#e11d48" stroke-width="3.0" stroke-linejoin="round" stroke-linecap="butt" d="m773.7475 423.27115l179.21265 0l0 52.283478l-179.21265 0z" fill-rule="evenodd"/><path fill="#000000" d="m821.87854 450.3329l0 6.0l-2.359375 0l0 -13.8125l2.359375 0l0 5.671875l3.09375 0l0 -5.671875l2.375 0l0 13.8125l-2.375 0l0 -6.0l-3.09375 0zm11.511841 6.0q-1.78125 0 -2.671875 -0.796875q-0.875 -0.8125 -0.875 -2.5625l0 -3.359375q0 -1.765625 0.796875 -2.5625q0.8125 -0.796875 2.5625 -0.796875l0.875 0q1.484375 0 2.265625 0.859375q0.796875 0.84375 0.796875 2.40625l0 2.796875l-4.953125 0l0 1.03125q0 0.40625 0.234375 0.625q0.234375 0.203125 0.78125 0.203125l3.34375 0l0 2.15625l-3.15625 0zm1.453125 -7.1875q0 -0.328125 -0.203125 -0.53125q-0.203125 -0.203125 -0.53125 -0.203125l-1.09375 0q-0.5 0 -0.671875 0.1875q-0.15625 0.1875 -0.15625 0.640625l0 0.9375l2.65625 0l0 -1.03125zm11.480652 7.1875q-0.34375 0 -0.71875 -0.1875q-0.359375 -0.1875 -0.3125 -0.34375q-0.234375 0.53125 -1.140625 0.53125l-1.65625 0q-1.5625 0 -2.328125 -0.671875q-0.75 -0.671875 -0.75 -2.21875l0 -0.375q0 -3.265625 3.09375 -3.265625l1.9375 0l0 -0.5625q0 -0.40625 -0.234375 -0.609375q-0.234375 -0.21875 -0.78125 -0.21875l-3.265625 0l0 -2.15625l3.078125 0q1.765625 0 2.65625 0.8125q0.890625 0.8125 0.890625 2.546875l0 4.484375q0 0.078125 0.078125 0.125q0.078125 0.046875 0.859375 0.046875l0 2.0625l-1.40625 0zm-2.359375 -2.15625q0.34375 0 0.40625 -0.109375q0.078125 -0.125 0.078125 -0.4375l0 -1.6875l-1.953125 0q-0.328125 0 -0.546875 0.21875q-0.203125 0.203125 -0.203125 0.53125l0 0.9375q0 0.328125 0.109375 0.4375q0.125 0.109375 0.453125 0.109375l1.65625 0zm7.511841 0l0 -5.765625l-1.375 0l0 -2.15625l3.609375 0l-0.140625 0.375q0.234375 -0.375 1.265625 -0.375l2.296875 0l0 2.25l-2.484375 0q-0.421875 0 -0.625 0.265625q-0.203125 0.25 -0.21875 0.515625l0 4.890625l2.03125 0l0 2.15625l-5.734375 0l0 -2.15625l1.375 0zm12.949402 2.15625q-1.125 0 -1.734375 -0.734375q-0.609375 -0.734375 -0.609375 -1.875l0 -5.3125l-1.765625 0l0 -2.15625l1.765625 0l0 -2.234375l2.34375 0l0 2.234375l2.71875 0l0 2.15625l-2.71875 0l0 5.40625q0 0.234375 0.078125 0.296875q0.078125 0.0625 0.375 0.0625l2.265625 0l0 2.15625l-2.71875 0zm13.168091 -3.359375q0 1.734375 -0.890625 2.546875q-0.890625 0.8125 -2.65625 0.8125l-4.03125 0l0 -13.8125l2.328125 0l-0.015625 3.8125q0.09375 -0.078125 1.046875 -0.078125l0.671875 0q1.78125 0 2.65625 0.8125q0.890625 0.796875 0.890625 2.546875l0 3.359375zm-4.40625 -4.5625q-0.453125 0 -0.65625 0.21875q-0.1875 0.203125 -0.1875 0.421875l0 5.125l1.890625 0q0.546875 0 0.78125 -0.203125q0.234375 -0.21875 0.234375 -0.625l0 -4.109375q0 -0.40625 -0.234375 -0.609375q-0.234375 -0.21875 -0.78125 -0.21875l-1.046875 0zm10.574402 7.921875q-1.78125 0 -2.671875 -0.796875q-0.875 -0.8125 -0.875 -2.5625l0 -3.359375q0 -1.765625 0.796875 -2.5625q0.8125 -0.796875 2.5625 -0.796875l0.875 0q1.484375 0 2.265625 0.859375q0.796875 0.84375 0.796875 2.40625l0 2.796875l-4.953125 0l0 1.03125q0 0.40625 0.234375 0.625q0.234375 0.203125 0.78125 0.203125l3.34375 0l0 2.15625l-3.15625 0zm1.453125 -7.1875q0 -0.328125 -0.203125 -0.53125q-0.203125 -0.203125 -0.53125 -0.203125l-1.09375 0q-0.5 0 -0.671875 0.1875q-0.15625 0.1875 -0.15625 0.640625l0 0.9375l2.65625 0l0 -1.03125zm11.480591 7.1875q-0.34375 0 -0.71875 -0.1875q-0.359375 -0.1875 -0.3125 -0.34375q-0.234375 0.53125 -1.140625 0.53125l-1.65625 0q-1.5625 0 -2.328125 -0.671875q-0.75 -0.671875 -0.75 -2.21875l0 -0.375q0 -3.265625 3.09375 -3.265625l1.9375 0l0 -0.5625q0 -0.40625 -0.234375 -0.609375q-0.234375 -0.21875 -0.78125 -0.21875l-3.265625 0l0 -2.15625l3.078125 0q1.765625 0 2.65625 0.8125q0.890625 0.8125 0.890625 2.546875l0 4.484375q0 0.078125 0.078125 0.125q0.078125 0.046875 0.859375 0.046875l0 2.0625l-1.40625 0zm-2.359375 -2.15625q0.34375 0 0.40625 -0.109375q0.078125 -0.125 0.078125 -0.4375l0 -1.6875l-1.953125 0q-0.328125 0 -0.546875 0.21875q-0.203125 0.203125 -0.203125 0.53125l0 0.9375q0 0.328125 0.109375 0.4375q0.125 0.109375 0.453125 0.109375l1.65625 0zm10.386902 2.15625q-1.125 0 -1.734375 -0.734375q-0.609375 -0.734375 -0.609375 -1.875l0 -5.3125l-1.765625 0l0 -2.15625l1.765625 0l0 -2.234375l2.34375 0l0 2.234375l2.71875 0l0 2.15625l-2.71875 0l0 5.40625q0 0.234375 0.078125 0.296875q0.078125 0.0625 0.375 0.0625l2.265625 0l0 2.15625l-2.71875 0z" fill-rule="nonzero"/><path fill="#000000" fill-opacity="0.0" d="m52.879436 29.291338l179.2126 0l0 37.291344l-179.2126 0z" fill-rule="evenodd"/><path fill="#000000" fill-opacity="0.0" d="m123.0458 40.091404l38.879875 0l0 27.047916l-38.879875 0l0 -27.047916z" fill-rule="nonzero"/><path fill="#d4d4d4" d="m131.37392 55.690716l-2.765625 0l-1.9687424 -9.9375l0.5 15.578125l-2.828125 0l0 -17.796875l4.2499924 0l1.515625 6.8125l1.53125 -6.8125l4.15625 0l0 17.796875l-2.875 0l0.5 -15.578125l-2.015625 9.9375zm16.569336 1.296875q0 2.234375 -1.15625 3.296875q-1.140625 1.046875 -3.421875 1.046875l-0.78125 0q-2.28125 0 -3.4375 -1.046875q-1.15625 -1.0625 -1.15625 -3.296875l0 -4.3125q0 -2.234375 1.15625 -3.28125q1.15625 -1.0625 3.4375 -1.0625l0.78125 0q2.28125 0 3.421875 1.0625q1.15625 1.046875 1.15625 3.28125l0 4.3125zm-3.03125 -4.796875q0 -0.53125 -0.3125 -0.796875q-0.296875 -0.265625 -0.984375 -0.265625l-1.28125 0q-0.703125 0 -1.0 0.265625q-0.296875 0.265625 -0.296875 0.796875l0 5.28125q0 0.53125 0.296875 0.796875q0.296875 0.265625 1.0 0.265625l1.28125 0q0.6875 0 0.984375 -0.265625q0.3125 -0.265625 0.3125 -0.796875l0 -5.28125zm9.069336 -3.859375l-0.21875 0.5q0.28125 -0.5 1.625 -0.5l1.109375 0q2.140625 0 3.234375 1.0625q1.109375 1.046875 1.109375 3.28125l0 8.65625l-3.046875 0l0 -9.140625q0 -0.515625 -0.28125 -0.78125q-0.265625 -0.28125 -0.78125 -0.28125l-1.578125 0q-0.578125 0 -0.828125 0.265625q-0.234375 0.265625 -0.234375 0.5625l0 9.375l-3.03125 0l0 -13.0l2.921875 0z" fill-rule="nonzero"/><path fill="#000000" fill-opacity="0.0" d="m161.92567 40.091404l0 0l0 27.047916l0 0l0 -27.047916z" fill-rule="nonzero"/><path fill="#d4d4d4" d="m123.0458 62.89134l38.879875 0l0 2.1599998l-38.879875 0l0 -2.1599998z" fill-rule="nonzero"/><path fill="#000000" fill-opacity="0.0" d="m233.09648 29.291338l179.2126 0l0 37.291344l-179.2126 0z" fill-rule="evenodd"/><path fill="#000000" fill-opacity="0.0" d="m303.26285 40.091404l38.879883 0l0 27.047916l-38.879883 0l0 -27.047916z" fill-rule="nonzero"/><path fill="#d4d4d4" d="m308.68472 61.33134l0 -14.96875l-3.8125 0l0 -2.828125l10.71875 0l0 2.828125l-3.8125 0l0 14.96875l-3.09375 0zm16.569336 -0.5q-0.359375 0.5 -1.640625 0.5l-0.8125 0q-2.15625 0 -3.25 -1.046875q-1.09375 -1.0625 -1.09375 -3.296875l0 -8.65625l3.03125 0l0 9.140625q0 0.515625 0.265625 0.796875q0.28125 0.265625 0.796875 0.265625l1.296875 0q0.5625 0 0.796875 -0.234375q0.234375 -0.25 0.265625 -0.546875l0 -9.421875l3.046875 0l0 13.0l-2.921875 0l0.21875 -0.5zm10.772461 0.5q-2.3125 0 -3.453125 -1.03125q-1.140625 -1.046875 -1.140625 -3.3125l0 -4.3125q0 -2.265625 1.03125 -3.296875q1.046875 -1.046875 3.3125 -1.046875l1.125 0q1.921875 0 2.9375 1.09375q1.03125 1.09375 1.03125 3.125l0 3.625l-6.390625 0l0 1.296875q0 0.53125 0.296875 0.796875q0.296875 0.265625 1.0 0.265625l4.3125 0l0 2.796875l-4.0625 0zm1.84375 -9.265625q0 -0.421875 -0.265625 -0.671875q-0.25 -0.265625 -0.671875 -0.265625l-1.390625 0q-0.640625 0 -0.859375 0.25q-0.203125 0.234375 -0.203125 0.8125l0 1.1875l3.390625 0l0 -1.3125z" fill-rule="nonzero"/><path fill="#000000" fill-opacity="0.0" d="m342.14273 40.091404l0 0l0 27.047916l0 0l0 -27.047916z" fill-rule="nonzero"/><path fill="#d4d4d4" d="m303.26285 62.89134l38.879883 0l0 2.1599998l-38.879883 0l0 -2.1599998z" fill-rule="nonzero"/><path fill="#000000" fill-opacity="0.0" d="m413.31354 29.291338l179.21259 0l0 37.291344l-179.21259 0z" fill-rule="evenodd"/><path fill="#000000" fill-opacity="0.0" d="m483.4799 40.091404l38.879852 0l0 27.047916l-38.879852 0l0 -27.047916z" fill-rule="nonzero"/><path fill="#d4d4d4" d="m490.38614 56.440716l-1.078125 4.890625l-3.75 0l-0.890625 -17.796875l2.796875 0l0.234375 15.5l1.609375 -8.421875l2.265625 0l1.640625 8.421875l0.28125 -15.5l2.65625 0l-0.875 17.796875l-3.90625 0l-0.984375 -4.890625zm12.897461 4.890625q-2.3125 0 -3.453125 -1.03125q-1.140625 -1.046875 -1.140625 -3.3125l0 -4.3125q0 -2.265625 1.03125 -3.296875q1.046875 -1.046875 3.3125 -1.046875l1.125 0q1.921875 0 2.9375 1.09375q1.03125 1.09375 1.03125 3.125l0 3.625l-6.390625 0l0 1.296875q0 0.53125 0.296875 0.796875q0.296875 0.265625 1.0 0.265625l4.3125 0l0 2.796875l-4.0625 0zm1.84375 -9.265625q0 -0.421875 -0.265625 -0.671875q-0.25 -0.265625 -0.671875 -0.265625l-1.390625 0q-0.640625 0 -0.859375 0.25q-0.203125 0.234375 -0.203125 0.8125l0 1.1875l3.390625 0l0 -1.3125zm13.49118 8.765625q-0.359375 0.5 -1.640625 0.5l-0.984375 0q-2.296875 0 -3.4375 -1.03125q-1.1405945 -1.046875 -1.1405945 -3.3125l0 -4.3125q0 -2.234375 1.1562195 -3.28125q1.15625 -1.0625 3.421875 -1.0625l2.28125 0l0 -4.796875l3.046875 0l0 17.796875l-2.921875 0l0.21875 -0.5zm-1.40625 -2.296875q0.578125 0 0.8125 -0.265625q0.25 -0.265625 0.25 -0.5625l0 -6.578125l-2.515625 0q-0.703125 0 -1.0 0.265625q-0.296875 0.265625 -0.296875 0.796875l0 5.28125q0 0.53125 0.296875 0.796875q0.296875 0.265625 1.0 0.265625l1.453125 0z" fill-rule="nonzero"/><path fill="#000000" fill-opacity="0.0" d="m522.35974 40.091404l0 0l0 27.047916l0 0l0 -27.047916z" fill-rule="nonzero"/><path fill="#d4d4d4" d="m483.4799 62.89134l38.879852 0l0 2.1599998l-38.879852 0l0 -2.1599998z" fill-rule="nonzero"/><path fill="#000000" fill-opacity="0.0" d="m593.5306 29.291338l179.21259 0l0 37.291344l-179.21259 0z" fill-rule="evenodd"/><path fill="#000000" fill-opacity="0.0" d="m663.69696 40.091404l38.879883 0l0 27.047916l-38.879883 0l0 -27.047916z" fill-rule="nonzero"/><path fill="#d4d4d4" d="m669.11884 61.33134l0 -14.96875l-3.8125 0l0 -2.828125l10.71875 0l0 2.828125l-3.8125 0l0 14.96875l-3.09375 0zm12.663086 -17.796875l-0.046875 4.921875q0.109375 -0.125 1.34375 -0.125l1.109375 0q2.140625 0 3.234375 1.0625q1.109375 1.046875 1.109375 3.28125l0 8.65625l-3.046875 0l0 -9.140625q0 -0.515625 -0.28125 -0.78125q-0.265625 -0.28125 -0.78125 -0.28125l-1.578125 0q-0.546875 0 -0.796875 0.265625q-0.25 0.25 -0.265625 0.5l0 9.4375l-3.03125 0l0 -17.796875l3.03125 0zm16.86621 17.296875q-0.359375 0.5 -1.640625 0.5l-0.8125 0q-2.15625 0 -3.25 -1.046875q-1.09375 -1.0625 -1.09375 -3.296875l0 -8.65625l3.03125 0l0 9.140625q0 0.515625 0.265625 0.796875q0.28125 0.265625 0.796875 0.265625l1.296875 0q0.5625 0 0.796875 -0.234375q0.234375 -0.25 0.265625 -0.546875l0 -9.421875l3.046875 0l0 13.0l-2.921875 0l0.21875 -0.5z" fill-rule="nonzero"/><path fill="#000000" fill-opacity="0.0" d="m702.57684 40.091404l0 0l0 27.047916l0 0l0 -27.047916z" fill-rule="nonzero"/><path fill="#d4d4d4" d="m663.69696 62.89134l38.879883 0l0 2.1599998l-38.879883 0l0 -2.1599998z" fill-rule="nonzero"/><path fill="#000000" fill-opacity="0.0" d="m773.7476 29.291338l179.21259 0l0 37.291344l-179.21259 0z" fill-rule="evenodd"/><path fill="#000000" fill-opacity="0.0" d="m843.914 40.091404l38.879883 0l0 27.047916l-38.879883 0l0 -27.047916z" fill-rule="nonzero"/><path fill="#d4d4d4" d="m854.8671 51.01884l0 2.75l-5.328125 0l0 7.5625l-3.078125 0l0 -17.796875l9.015625 0l0 2.75l-5.9375 0l0 4.734375l5.328125 0zm6.163086 7.515625l0 -7.40625l-1.75 0l0 -2.796875l4.671875 0l-0.203125 0.5q0.3125 -0.5 1.609375 -0.5l2.984375 0l0 2.921875l-3.21875 0q-0.515625 0 -0.78125 0.34375q-0.265625 0.328125 -0.28125 0.65625l0 6.28125l2.625 0l0 2.796875l-7.40625 0l0 -2.796875l1.75 0zm17.413086 -15.0l0 3.15625l-3.28125 0l0 -3.15625l3.28125 0zm-6.6875 7.59375l0 -2.796875l6.5625 0l0 10.203125l3.5625 0l0 2.796875l-6.59375 0l0 -10.203125l-3.53125 0z" fill-rule="nonzero"/><path fill="#000000" fill-opacity="0.0" d="m882.7939 40.091404l0 0l0 27.047916l0 0l0 -27.047916z" fill-rule="nonzero"/><path fill="#d4d4d4" d="m843.914 62.89134l38.879883 0l0 2.1599998l-38.879883 0l0 -2.1599998z" fill-rule="nonzero"/><path fill="#000000" fill-opacity="0.0" d="m683.1375 252.3202l1.0078735 38.61418" fill-rule="evenodd"/><path stroke="#e11d48" stroke-width="3.0" stroke-linejoin="round" stroke-linecap="butt" d="m683.1376 252.32019l0.538208 20.6203" fill-rule="evenodd"/><path fill="#e11d48" stroke="#e11d48" stroke-width="3.0" stroke-linecap="butt" d="m678.7222 273.0698l5.308777 13.480347l4.5982666 -13.738953z" fill-rule="evenodd"/><path fill="#000000" fill-opacity="0.0" d="m772.74384 165.37532c45.307068 0 90.6142 128.94487 90.6142 257.88977" fill-rule="evenodd"/><path stroke="#e11d48" stroke-width="3.0" stroke-linejoin="round" stroke-linecap="butt" d="m772.74384 165.37532c22.653564 0 45.30713 32.236206 62.29724 80.590546c8.495117 24.17717 15.574341 52.383865 20.529785 82.60533c2.4777222 15.110718 4.4245605 30.725159 5.751892 46.5914c0.66363525 7.933136 1.1724854 15.92923 1.5154419 23.956818c0.08569336 2.006897 0.16101074 4.015747 0.22589111 6.0260925l0.0037231445 0.121917725" fill-rule="evenodd"/><path fill="#e11d48" stroke="#e11d48" stroke-width="3.0" stroke-linecap="butt" d="m858.1132 405.34732l5.1740723 13.532623l4.7350464 -13.692413z" fill-rule="evenodd"/><path fill="#000000" fill-opacity="0.0" d="m773.754 317.06042c44.80316 0 89.60632 53.102356 89.60632 106.20471" fill-rule="evenodd"/><path stroke="#e11d48" stroke-width="3.0" stroke-linejoin="round" stroke-linecap="butt" d="m773.754 317.06042c22.40155 0 44.80316 13.275604 61.60431 33.188965c8.400574 9.956696 15.401123 21.572815 20.301453 34.018707c2.4501343 6.222931 4.375305 12.65329 5.6879272 19.187378c0.081970215 0.4083557 0.1616211 0.8171692 0.2388916 1.2263184l0.12042236 0.6594238" fill-rule="evenodd"/><path fill="#e11d48" stroke="#e11d48" stroke-width="3.0" stroke-linecap="butt" d="m856.77277 405.79636l6.1847534 13.101593l3.6837769 -14.011871z" fill-rule="evenodd"/><path fill="#000000" fill-opacity="0.0" d="m863.3538 475.55463c0 12.50058 -221.96057 48.0672 -417.73776 25.00116c-195.7772 -23.06607 -365.37103 -104.76483 -417.73776 -197.99664c-52.366722 -93.23181 12.493675 -197.99664 24.98735 -197.99664" fill-rule="evenodd"/><path stroke="#e11d48" stroke-width="3.0" stroke-linejoin="round" stroke-linecap="butt" stroke-dasharray="12.0,9.0" d="m863.3538 475.55463c0 12.50058 -221.96057 48.0672 -417.73776 25.00116c-195.7772 -23.06607 -365.37103 -104.76486 -417.73776 -197.99664c-26.183363 -46.615906 -23.059944 -96.11508 -11.828976 -133.96025c5.615484 -18.922592 13.257854 -34.9317 20.277212 -46.21015c0.8774185 -1.4097977 1.7451019 -2.745697 2.5978775 -4.00412c0.2131958 -0.3146057 0.425457 -0.62436676 0.6367035 -0.92923737l0.30795288 -0.4394226" fill-rule="evenodd"/><path fill="#e11d48" stroke="#e11d48" stroke-width="3.0" stroke-linecap="butt" d="m43.297356 120.59377l6.401657 -12.996986l-13.258255 5.841362z" fill-rule="evenodd"/><path fill="#000000" fill-opacity="0.0" d="m232.09204 104.57217l361.7008 0" fill-rule="evenodd"/><path stroke="#e11d48" stroke-width="3.0" stroke-linejoin="round" stroke-linecap="butt" d="m232.09203 104.57217l343.70074 0" fill-rule="evenodd"/><path fill="#e11d48" stroke="#e11d48" stroke-width="3.0" stroke-linecap="butt" d="m575.7928 109.52737l13.614319 -4.9552l-13.614319 -4.9551926z" fill-rule="evenodd"/></g></svg>