<svg version="1.1" viewBox="0.0 0.0 933.0734908136483 239.5564304461942" fill="none" stroke="none" stroke-linecap="square" stroke-miterlimit="10" xmlns:xlink="http://www.w3.org/1999/xlink" xmlns="http://www.w3.org/2000/svg"><clipPath id="p.0"><path d="m0 0l933.0735 0l0 239.55643l-933.0735 0l0 -239.55643z" clip-rule="nonzero"/></clipPath><g clip-path="url(#p.0)"><path fill="#000000" fill-opacity="0.0" d="m0 0l933.0735 0l0 239.55643l-933.0735 0z" fill-rule="evenodd"/><path fill="#1e1e1e" d="m-9.755905 -0.80052495l947.0866 0l0 240.97638l-947.0866 0z" fill-rule="evenodd"/><path fill="#8e7cc3" d="m367.22296 40.754265l533.6063 0l0 130.33072l-533.6063 0z" fill-rule="evenodd"/><path stroke="#000000" stroke-width="1.0" stroke-linejoin="round" stroke-linecap="butt" d="m367.22296 40.754265l533.6063 0l0 130.33072l-533.6063 0z" fill-rule="evenodd"/><path fill="#000000" d="m596.33875 110.132744q0 2.15625 -1.046875 3.109375q-1.03125 0.9375 -3.28125 0.9375l-5.0 0l0 -16.796875l4.734375 0q2.1875 0 3.265625 0.9375q1.09375 0.9375 1.09375 3.0625l0 1.296875q0 2.0 -0.828125 2.578125q1.0625 0.578125 1.0625 2.828125l0 2.046875zm-3.140625 -8.953125q0 -0.65625 -0.265625 -0.90625q-0.25 -0.25 -0.921875 -0.25l-2.09375 0l0 4.0625l2.09375 0q0.515625 0 0.84375 -0.3125q0.34375 -0.328125 0.34375 -0.875l0 -1.71875zm0.234375 6.703125q0 -0.53125 -0.3125 -0.84375q-0.3125 -0.3125 -0.875 -0.3125l-2.328125 0l0 4.8125l2.296875 0q0.671875 0 0.9375 -0.25q0.28125 -0.265625 0.28125 -0.9375l0 -2.46875zm12.40625 5.828125q-0.34375 0.46875 -1.546875 0.46875l-0.765625 0q-2.03125 0 -3.0625 -0.984375q-1.03125 -1.0 -1.03125 -3.109375l0 -8.171875l2.859375 0l0 8.625q0 0.484375 0.25 0.75q0.265625 0.25 0.75 0.25l1.234375 0q0.515625 0 0.734375 -0.21875q0.234375 -0.234375 0.265625 -0.515625l0 -8.890625l2.859375 0l0 12.265625l-2.75 0l0.203125 -0.46875zm11.843689 -16.328125l0 2.984375l-3.09375 0l0 -2.984375l3.09375 0zm-6.3125 7.171875l0 -2.640625l6.1875 0l0 9.625l3.359375 0l0 2.640625l-6.21875 0l0 -9.625l-3.328125 0zm17.734375 9.625q-0.953125 0 -1.671875 -0.671875q-0.71875 -0.6875 -0.71875 -2.0625l0 -11.421875l-3.34375 0l0 -2.640625l6.203125 0l0 13.953125q0 0.140625 0.03125 0.171875q0.03125 0.03125 0.296875 0.03125l3.46875 0l0 2.640625l-4.265625 0zm13.624939 -0.46875q-0.34375 0.46875 -1.546875 0.46875l-0.9375 0q-2.171875 0 -3.25 -0.984375q-1.0625 -0.984375 -1.0625 -3.109375l0 -4.078125q0 -2.109375 1.078125 -3.09375q1.078125 -1.0 3.234375 -1.0l2.15625 0l0 -4.53125l2.875 0l0 16.796875l-2.75 0l0.203125 -0.46875zm-1.328125 -2.171875q0.546875 0 0.765625 -0.25q0.234375 -0.25 0.234375 -0.515625l0 -6.21875l-2.375 0q-0.671875 0 -0.953125 0.25q-0.28125 0.25 -0.28125 0.75l0 4.984375q0 0.5 0.28125 0.75q0.28125 0.25 0.953125 0.25l1.375 0zm12.984375 -14.15625l0 2.984375l-3.09375 0l0 -2.984375l3.09375 0zm-6.3125 7.171875l0 -2.640625l6.1875 0l0 9.625l3.359375 0l0 2.640625l-6.21875 0l0 -9.625l-3.328125 0zm15.140564 -2.640625l-0.203125 0.46875q0.28125 -0.46875 1.546875 -0.46875l1.046875 0q2.015625 0 3.046875 1.0q1.046875 0.984375 1.046875 3.09375l0 8.171875l-2.859375 0l0 -8.625q0 -0.484375 -0.265625 -0.734375q-0.25 -0.265625 -0.75 -0.265625l-1.484375 0q-0.546875 0 -0.78125 0.265625q-0.234375 0.25 -0.234375 0.515625l0 8.84375l-2.859375 0l0 -12.265625l2.75 0zm19.03125 12.59375q0 1.75 -1.0625 2.625q-1.0625 0.890625 -3.1875 0.890625l-5.1875 0l0 -2.625l5.40625 0q0.671875 0 0.921875 -0.203125q0.25 -0.203125 0.25 -0.46875l0 -0.71875q0 -0.28125 -0.25 -0.46875q-0.25 -0.203125 -0.921875 -0.203125l-4.375 0l0 -3.3125q-0.640625 -0.34375 -1.0625 -1.21875q-0.421875 -0.890625 -0.421875 -2.234375l0 -0.5625q0 -2.109375 1.078125 -3.09375q1.09375 -1.0 3.25 -1.0l5.21875 0l0 4.65625q0 1.890625 -1.0625 3.0q-1.0625 1.09375 -2.796875 1.09375l-1.34375 0l0 0.046875l1.296875 0q2.125 0 3.1875 0.890625q1.0625 0.875 1.0625 2.625l0 0.28125zm-4.203125 -6.46875q0.484375 0 0.71875 -0.3125q0.25 -0.3125 0.28125 -0.640625l0 -2.53125l-2.59375 0q-0.65625 0 -0.9375 0.25q-0.28125 0.25 -0.28125 0.75l0 1.46875q0 0.5 0.28125 0.765625q0.296875 0.25 0.9375 0.25l1.59375 0z" fill-rule="nonzero"/><path fill="#000000" fill-opacity="0.0" d="m367.23105 171.09892l533.6063 0l0 43.62204l-533.6063 0z" fill-rule="evenodd"/><path fill="#ffffff" d="m631.2041 188.48642l-1.75 0.140625q-0.234375 -1.03125 -0.65625 -1.5q-0.71875 -0.765625 -1.765625 -0.765625q-0.84375 0 -1.46875 0.46875q-0.828125 0.609375 -1.3125 1.78125q-0.484375 1.15625 -0.5 3.296875q0.640625 -0.953125 1.546875 -1.421875q0.921875 -0.46875 1.9375 -0.46875q1.75 0 2.984375 1.296875q1.234375 1.28125 1.234375 3.328125q0 1.359375 -0.578125 2.515625q-0.578125 1.15625 -1.59375 1.78125q-1.015625 0.609375 -2.3125 0.609375q-2.1875 0 -3.578125 -1.609375q-1.390625 -1.625 -1.390625 -5.34375q0 -4.140625 1.53125 -6.03125q1.34375 -1.640625 3.609375 -1.640625q1.6875 0 2.765625 0.953125q1.078125 0.9375 1.296875 2.609375zm-7.171875 6.171875q0 0.90625 0.375 1.734375q0.390625 0.828125 1.078125 1.265625q0.703125 0.4375 1.453125 0.4375q1.125 0 1.921875 -0.890625q0.796875 -0.90625 0.796875 -2.453125q0 -1.484375 -0.796875 -2.328125q-0.78125 -0.859375 -1.984375 -0.859375q-1.1875 0 -2.015625 0.859375q-0.828125 0.84375 -0.828125 2.234375zm11.576172 4.640625l-3.171875 -10.375l1.8125 0l1.65625 5.984375l0.609375 2.234375q0.046875 -0.171875 0.53125 -2.140625l1.65625 -6.078125l1.8125 0l1.546875 6.015625l0.515625 1.984375l0.59375 -2.0l1.78125 -6.0l1.703125 0l-3.234375 10.375l-1.828125 0l-1.65625 -6.21875l-0.390625 -1.765625l-2.109375 7.984375l-1.828125 0z" fill-rule="nonzero"/><path fill="#f6b26b" d="m122.80246 40.754444l208.97638 0l0 130.33072l-208.97638 0z" fill-rule="evenodd"/><path stroke="#000000" stroke-width="1.0" stroke-linejoin="round" stroke-linecap="butt" d="m122.80246 40.754444l208.97638 0l0 130.33072l-208.97638 0z" fill-rule="evenodd"/><path fill="#000000" d="m195.36107 109.867294q0 2.125 -1.203125 3.21875q-1.1875 1.09375 -3.34375 1.09375l-3.6875 0l0 -2.65625l3.90625 0q0.65625 0 1.03125 -0.359375q0.375 -0.375 0.375 -0.875l0 -2.359375q0 -0.5 -0.234375 -0.765625q-0.21875 -0.28125 -0.703125 -0.28125l-0.671875 0q-1.859375 0 -2.984375 -1.125q-1.109375 -1.125 -1.109375 -3.1875l0 -0.859375q0 -2.140625 1.1875 -3.234375q1.203125 -1.09375 3.359375 -1.09375l3.703125 0l0 2.65625l-3.9375 0q-0.640625 0 -1.03125 0.375q-0.375 0.359375 -0.375 0.859375l0 1.71875q0 0.515625 0.3125 0.84375q0.328125 0.328125 0.859375 0.328125l0.671875 0q1.8125 0 2.84375 1.0625q1.03125 1.0625 1.03125 3.140625l0 1.5zm6.1718445 -12.484375l-0.015625 4.625q0.09375 -0.09375 1.25 -0.09375l1.046875 0q2.015625 0 3.046875 1.0q1.046875 0.984375 1.046875 3.09375l0 8.171875l-2.859375 0l0 -8.625q0 -0.484375 -0.265625 -0.734375q-0.25 -0.265625 -0.75 -0.265625l-1.484375 0q-0.53125 0 -0.765625 0.25q-0.234375 0.234375 -0.25 0.46875l0 8.90625l-2.859375 0l0 -16.796875l2.859375 0zm17.328094 16.796875q-0.40625 0 -0.859375 -0.21875q-0.4375 -0.234375 -0.390625 -0.40625q-0.28125 0.625 -1.390625 0.625l-2.015625 0q-1.890625 0 -2.828125 -0.8125q-0.921875 -0.8125 -0.921875 -2.71875l0 -0.453125q0 -3.96875 3.78125 -3.96875l2.34375 0l0 -0.671875q0 -0.5 -0.28125 -0.75q-0.28125 -0.25 -0.953125 -0.25l-3.984375 0l0 -2.640625l3.75 0q2.171875 0 3.25 1.0q1.078125 0.984375 1.078125 3.09375l0 5.4375q0 0.09375 0.09375 0.15625q0.09375 0.0625 1.03125 0.0625l0 2.515625l-1.703125 0zm-2.859375 -2.640625q0.40625 0 0.484375 -0.140625q0.09375 -0.140625 0.09375 -0.515625l0 -2.03125l-2.375 0q-0.390625 0 -0.640625 0.25q-0.25 0.25 -0.25 0.640625l0 1.140625q0 0.390625 0.125 0.53125q0.140625 0.125 0.546875 0.125l2.015625 0zm9.8905945 -9.625l-0.203125 0.46875q0.28125 -0.46875 1.546875 -0.46875l0.8125 0q2.1875 0 3.25 0.984375q1.078125 0.984375 1.078125 3.109375l0 4.078125q0 2.109375 -1.09375 3.109375q-1.078125 0.984375 -3.234375 0.984375l-2.046875 0l0 3.84375l-2.859375 0l0 -16.109375l2.75 0zm1.125 2.640625q-0.546875 0 -0.78125 0.265625q-0.234375 0.25 -0.234375 0.515625l0 6.203125l2.28125 0q0.65625 0 0.9375 -0.25q0.296875 -0.265625 0.296875 -0.75l0 -4.984375q0 -0.484375 -0.296875 -0.734375q-0.28125 -0.265625 -0.9375 -0.265625l-1.265625 0zm14.5155945 -7.171875l0 2.984375l-3.09375 0l0 -2.984375l3.09375 0zm-6.3125 7.171875l0 -2.640625l6.1875 0l0 9.625l3.359375 0l0 2.640625l-6.21875 0l0 -9.625l-3.328125 0zm15.1405945 -2.640625l-0.203125 0.46875q0.28125 -0.46875 1.546875 -0.46875l1.046875 0q2.015625 0 3.046875 1.0q1.0468597 0.984375 1.0468597 3.09375l0 8.171875l-2.8593597 0l0 -8.625q0 -0.484375 -0.265625 -0.734375q-0.25 -0.265625 -0.75 -0.265625l-1.484375 0q-0.546875 0 -0.78125 0.265625q-0.234375 0.25 -0.234375 0.515625l0 8.84375l-2.859375 0l0 -12.265625l2.75 0zm19.031204 12.59375q0 1.75 -1.0625 2.625q-1.0625 0.890625 -3.1875 0.890625l-5.1875 0l0 -2.625l5.40625 0q0.671875 0 0.921875 -0.203125q0.25 -0.203125 0.25 -0.46875l0 -0.71875q0 -0.28125 -0.25 -0.46875q-0.25 -0.203125 -0.921875 -0.203125l-4.375 0l0 -3.3125q-0.640625 -0.34375 -1.0625 -1.21875q-0.421875 -0.890625 -0.421875 -2.234375l0 -0.5625q0 -2.109375 1.078125 -3.09375q1.09375 -1.0 3.25 -1.0l5.21875 0l0 4.65625q0 1.890625 -1.0625 3.0q-1.0625 1.09375 -2.796875 1.09375l-1.34375 0l0 0.046875l1.296875 0q2.125 0 3.1875 0.890625q1.0625 0.875 1.0625 2.625l0 0.28125zm-4.203125 -6.46875q0.484375 0 0.71875 -0.3125q0.25 -0.3125 0.28125 -0.640625l0 -2.53125l-2.59375 0q-0.65625 0 -0.9375 0.25q-0.28125 0.25 -0.28125 0.75l0 1.46875q0 0.5 0.28125 0.765625q0.296875 0.25 0.9375 0.25l1.59375 0z" fill-rule="nonzero"/><path fill="#000000" fill-opacity="0.0" d="m125.56463 171.09892l208.97638 0l0 43.62204l-208.97638 0z" fill-rule="evenodd"/><path fill="#ffffff" d="m227.33212 197.61142l0 1.6875l-9.453125 0q-0.015625 -0.640625 0.203125 -1.21875q0.359375 -0.96875 1.15625 -1.90625q0.796875 -0.9375 2.296875 -2.171875q2.34375 -1.90625 3.15625 -3.015625q0.828125 -1.125 0.828125 -2.125q0 -1.046875 -0.75 -1.765625q-0.75 -0.71875 -1.953125 -0.71875q-1.265625 0 -2.03125 0.765625q-0.765625 0.765625 -0.765625 2.109375l-1.8125 -0.1875q0.1875 -2.015625 1.390625 -3.078125q1.21875 -1.0625 3.265625 -1.0625q2.046875 0 3.25 1.140625q1.203125 1.140625 1.203125 2.828125q0 0.859375 -0.359375 1.703125q-0.34375 0.828125 -1.15625 1.75q-0.8125 0.90625 -2.703125 2.515625q-1.59375 1.328125 -2.046875 1.796875q-0.4375 0.46875 -0.734375 0.953125l7.015625 0zm4.294922 1.6875l-3.171875 -10.375l1.8125 0l1.65625 5.984375l0.609375 2.234375q0.046875 -0.171875 0.53125 -2.140625l1.65625 -6.078125l1.8125 0l1.546875 6.015625l0.515625 1.984375l0.59375 -2.0l1.78125 -6.0l1.703125 0l-3.234375 10.375l-1.828125 0l-1.65625 -6.21875l-0.390625 -1.765625l-2.109375 7.984375l-1.828125 0z" fill-rule="nonzero"/><path fill="#76a5af" d="m33.49217 172.0316l0 -134.74016l56.629917 0l0 134.74016z" fill-rule="evenodd"/><path stroke="#000000" stroke-width="1.0" stroke-linejoin="round" stroke-linecap="butt" d="m33.49217 172.0316l0 -134.74016l56.629917 0l0 134.74016z" fill-rule="evenodd"/><path fill="#000000" d="m66.02025 148.40358q2.15625 0 3.109375 1.03125q0.9375 1.03125 0.9375 3.28125l0 5.140625l-16.796871 0l0 -4.859375q0 -2.203125 0.953125 -3.390625q0.953125 -1.203125 3.046875 -1.203125l8.749996 0zm-8.953121 2.90625q-0.546875 0 -0.84375 0.3125q-0.3125 0.3125 -0.3125 0.875l0 2.453125l11.515621 0l0 -2.4375q0 -0.671875 -0.25 -0.9375q-0.265625 -0.265625 -0.9375 -0.265625l-9.171871 0zm-3.796875 -11.9530945l2.984375 0l0 3.09375l-2.984375 0l0 -3.09375zm7.171875 6.3125l-2.640625 0l0 -6.1875l9.624996 0l0 -3.359375l2.640625 0l0 6.21875l-9.624996 0l0 3.328125zm6.328121 -20.921852q1.640625 0 2.46875 1.03125q0.828125 1.015625 0.828125 2.8437576l0 3.84375l-2.640625 0l0 -4.078125q0 -0.43750763 -0.125 -0.6093826q-0.140625 -0.171875 -0.421875 -0.171875l-1.203125 0q-0.546875 0 -0.546875 0.5156326l0 0.828125q0 1.765625 -0.828125 2.703125q-0.8281212 0.921875 -2.5156212 0.921875l-0.65625 0q-1.75 0 -2.53125 -1.015625q-0.796875 -1.015625 -0.796875 -2.859375l0 -3.5000076l2.640625 0l0 3.7343826q0 0.40625 0.140625 0.59375q0.140625 0.1875 0.40625 0.1875l0.8125 0q0.3125 0 0.4375 -0.140625q0.109375 -0.15625 0.109375 -0.484375l0 -0.765625q0 -1.7031326 0.875 -2.6406326q0.8749962 -0.9375 2.5312462 -0.9375l1.015625 0zm3.296875 -8.7655945q0 2.171875 -0.984375 3.25q-0.984375 1.0625 -3.109375 1.0625l-4.078121 0q-2.109375 0 -3.09375 -1.078125q-1.0 -1.078125 -1.0 -3.234375l0 -3.40625l2.640625 0l0 3.625q0 0.671875 0.25 0.953125q0.25 0.28125 0.75 0.28125l4.984371 0q0.5 0 0.75 -0.28125q0.25 -0.28125 0.25 -0.953125l0 -3.625l2.640625 0l0 3.40625zm-4.09375 -16.46872q2.109375 0 3.109375 1.078125q0.984375 1.078125 0.984375 3.234375l0 0.75q0 2.15625 -0.984375 3.25q-1.0 1.078125 -3.109375 1.078125l-4.078121 0q-2.109375 0 -3.09375 -1.078125q-1.0 -1.09375 -1.0 -3.25l0 -0.75q0 -2.15625 1.0 -3.234375q0.984375 -1.078125 3.09375 -1.078125l4.078121 0zm-4.531246 2.859375q-0.5 0 -0.75 0.28125q-0.25 0.28125 -0.25 0.953125l0 1.203125q0 0.65625 0.25 0.9375q0.25 0.28125 0.75 0.28125l4.984371 0q0.5 0 0.75 -0.28125q0.25 -0.28125 0.25 -0.9375l0 -1.203125q0 -0.671875 -0.25 -0.953125q-0.25 -0.28125 -0.75 -0.28125l-4.984371 0zm-3.640625 -5.1249695l0 -3.0625l8.421871 -2.296875l-8.421871 -2.21875l0 -3.0l12.265621 3.53125l0 3.5l-12.265621 3.546875zm12.265621 -17.390594q0 2.1875 -0.984375 3.265625q-0.984375 1.0625 -3.109375 1.0625l-4.078121 0q-2.15625 0 -3.125 -0.984375q-0.96875 -0.984375 -0.96875 -3.109375l0 -1.0625q0 -1.8125 1.046875 -2.765625q1.03125 -0.96875 2.9375 -0.96875l3.4062462 0l0 6.015625l1.234375 0q0.5 0 0.75 -0.28125q0.25 -0.28125 0.25 -0.9375l0 -4.078125l2.640625 0l0 3.84375zm-8.734371 -1.75q-0.40625 0 -0.640625 0.25q-0.25 0.234375 -0.25 0.640625l0 1.3125q0 0.59375 0.234375 0.796875q0.21875 0.203125 0.765625 0.203125l1.125 0l0 -3.203125l-1.234375 0zm6.093746 -7.9530945l-6.984371 0l0 1.65625l-2.640625 0l0 -4.40625l0.46875 0.171875q-0.46875 -0.28125 -0.46875 -1.515625l0 -2.7968712l2.75 0l0 3.0312462q0 0.484375 0.3125 0.734375q0.3125 0.25 0.640625 0.265625l5.921871 0l0 -2.46875l2.640625 0l0 6.984375l-2.640625 0l0 -1.65625zm3.859375 -12.859341q0 -0.390625 -0.109375 -0.53125q-0.109375 -0.140625 -0.4375 -0.234375l-0.796875 -0.328125l0.125 0.34375l-12.265621 4.0625l0 -3.09375l8.218746 -2.453125l-8.218746 -2.140625l0 -2.953125l13.140621 3.6875q1.234375 0.296875 1.90625 0.8125q0.671875 0.515625 0.859375 1.15625q0.203125 0.625 0.203125 1.53125l0 1.5625l-2.625 0l0 -1.421875z" fill-rule="nonzero"/><path fill="#000000" fill-opacity="0.0" d="m33.492638 171.09586l56.62992 0l0 43.62204l-56.62992 0z" fill-rule="evenodd"/><path fill="#ffffff" d="m60.74705 197.60835l0 1.6875l-9.453125 0q-0.015625 -0.640625 0.203125 -1.21875q0.359375 -0.96875 1.15625 -1.90625q0.796875 -0.9375 2.296875 -2.171875q2.34375 -1.90625 3.15625 -3.015625q0.828125 -1.125 0.828125 -2.125q0 -1.046875 -0.75 -1.765625q-0.75 -0.71875 -1.953125 -0.71875q-1.265625 0 -2.03125 0.765625q-0.765625 0.765625 -0.765625 2.109375l-1.8125 -0.1875q0.1875 -2.015625 1.390625 -3.078125q1.21875 -1.0625 3.265625 -1.0625q2.046875 0 3.25 1.140625q1.203125 1.140625 1.203125 2.828125q0 0.859375 -0.359375 1.703125q-0.34375 0.828125 -1.15625 1.75q-0.8125 0.90625 -2.703125 2.515625q-1.59375 1.328125 -2.046875 1.796875q-0.4375 0.46875 -0.734375 0.953125l7.015625 0zm2.3730469 1.6875l0 -14.3125l1.7656212 0l0 5.125q1.234375 -1.421875 3.109375 -1.421875q1.140625 0 1.984375 0.453125q0.859375 0.453125 1.21875 1.265625q0.375 0.796875 0.375 2.3125l0 6.578125l-1.75 0l0 -6.578125q0 -1.3125 -0.578125 -1.90625q-0.578125 -0.609375 -1.609375 -0.609375q-0.78125 0 -1.484375 0.40625q-0.6875 0.40625 -0.984375 1.109375q-0.28125 0.6875 -0.28125 1.90625l0 5.671875l-1.7656212 0z" fill-rule="nonzero"/></g></svg>