<svg version="1.1" viewBox="0.0 0.0 934.3307086614174 316.3228346456693" fill="none" stroke="none" stroke-linecap="square" stroke-miterlimit="10" xmlns:xlink="http://www.w3.org/1999/xlink" xmlns="http://www.w3.org/2000/svg"><clipPath id="p.0"><path d="m0 0l934.3307 0l0 316.32285l-934.3307 0l0 -316.32285z" clip-rule="nonzero"/></clipPath><g clip-path="url(#p.0)"><path fill="#000000" fill-opacity="0.0" d="m0 0l934.3307 0l0 316.32285l-934.3307 0z" fill-rule="evenodd"/><path fill="#1e1e1e" d="m-9.755905 -0.80052495l947.0866 0l0 317.92126l-947.0866 0z" fill-rule="evenodd"/><path fill="#20124d" d="m527.08435 164.07196l386.6142 0l0 94.456696l-386.6142 0z" fill-rule="evenodd"/><path stroke="#d4d4d4" stroke-width="1.0" stroke-linejoin="round" stroke-linecap="butt" d="m527.08435 164.07196l386.6142 0l0 94.456696l-386.6142 0z" fill-rule="evenodd"/><path fill="#d4d4d4" d="m589.051 218.55968q0 3.796875 -1.828125 5.46875q-1.828125 1.671875 -5.796875 1.671875l-8.828125 0l0 -29.65625l8.34375 0q3.875 0 5.78125 1.671875q1.921875 1.65625 1.921875 5.390625l0 2.28125q0 3.5 -1.46875 4.546875q1.875 1.046875 1.875 5.015625l0 3.609375zm-5.546875 -15.8125q0 -1.171875 -0.453125 -1.609375q-0.453125 -0.4375 -1.625 -0.4375l-3.703125 0l0 7.1875l3.703125 0q0.90625 0 1.484375 -0.5625q0.59375 -0.578125 0.59375 -1.53125l0 -3.046875zm0.40625 11.84375q0 -0.96875 -0.5625 -1.5q-0.546875 -0.546875 -1.53125 -0.546875l-4.09375 0l0 8.5l4.0625 0q1.171875 0 1.640625 -0.453125q0.484375 -0.46875 0.484375 -1.640625l0 -4.359375zm21.912476 10.28125q-0.578125 0.828125 -2.71875 0.828125l-1.359375 0q-3.578125 0 -5.40625 -1.75q-1.828125 -1.765625 -1.828125 -5.484375l0 -14.421875l5.0625 0l0 15.234375q0 0.84375 0.453125 1.3125q0.453125 0.453125 1.3125 0.453125l2.15625 0q0.9375 0 1.328125 -0.40625q0.40625 -0.421875 0.453125 -0.890625l0 -15.703125l5.046875 0l0 21.65625l-4.84375 0l0.34375 -0.828125zm20.912476 -28.828125l0 5.25l-5.46875 0l0 -5.25l5.46875 0zm-11.140625 12.65625l0 -4.65625l10.9375 0l0 17.0l5.921875 0l0 4.65625l-10.984375 0l0 -17.0l-5.875 0zm31.3031 17.0q-1.6875 0 -2.953125 -1.1875q-1.265625 -1.203125 -1.265625 -3.640625l0 -20.171875l-5.890625 0l0 -4.65625l10.9375 0l0 24.625q0 0.265625 0.0625 0.328125q0.0625 0.046875 0.515625 0.046875l6.140625 0l0 4.65625l-7.546875 0zm24.037476 -0.828125q-0.5625 0.828125 -2.71875 0.828125l-1.640625 0q-3.84375 0 -5.734375 -1.734375q-1.890625 -1.734375 -1.890625 -5.5l0 -7.1875q0 -3.71875 1.90625 -5.46875q1.921875 -1.765625 5.71875 -1.765625l3.8125 0l0 -8.0l5.0625 0l0 29.65625l-4.859375 0l0.34375 -0.828125zm-2.3125 -3.828125q0.953125 0 1.359375 -0.453125q0.40625 -0.453125 0.40625 -0.921875l0 -10.96875l-4.203125 0q-1.171875 0 -1.671875 0.453125q-0.5 0.453125 -0.5 1.3125l0 8.8125q0 0.859375 0.5 1.3125q0.5 0.453125 1.671875 0.453125l2.4375 0zm22.912476 -25.0l0 5.25l-5.46875 0l0 -5.25l5.46875 0zm-11.140625 12.65625l0 -4.65625l10.9375 0l0 17.0l5.921875 0l0 4.65625l-10.984375 0l0 -17.0l-5.875 0zm26.7406 -4.65625l-0.359375 0.828125q0.484375 -0.828125 2.71875 -0.828125l1.84375 0q3.5625 0 5.390625 1.765625q1.84375 1.75 1.84375 5.46875l0 14.421875l-5.0625 0l0 -15.234375q0 -0.84375 -0.46875 -1.296875q-0.453125 -0.46875 -1.296875 -0.46875l-2.640625 0q-0.96875 0 -1.375 0.453125q-0.40625 0.453125 -0.40625 0.921875l0 15.625l-5.046875 0l0 -21.65625l4.859375 0zm33.599976 22.234375q0 3.109375 -1.890625 4.65625q-1.890625 1.5625 -5.625 1.5625l-9.140625 0l0 -4.65625l9.546875 0q1.15625 0 1.59375 -0.34375q0.453125 -0.34375 0.453125 -0.828125l0 -1.28125q0 -0.5 -0.453125 -0.828125q-0.4375 -0.34375 -1.59375 -0.34375l-7.75 0l0 -5.84375q-1.140625 -0.625 -1.875 -2.1875q-0.734375 -1.5625 -0.734375 -3.90625l0 -1.0q0 -3.71875 1.90625 -5.46875q1.921875 -1.765625 5.734375 -1.765625l9.21875 0l0 8.234375q0 3.328125 -1.890625 5.28125q-1.875 1.9375 -4.9375 1.9375l-2.375 0l0 0.0625l2.296875 0q3.734375 0 5.625 1.5625q1.890625 1.5625 1.890625 4.671875l0 0.484375zm-7.4375 -11.4375q0.84375 0 1.28125 -0.546875q0.4375 -0.546875 0.5 -1.15625l0 -4.4375l-4.578125 0q-1.171875 0 -1.671875 0.453125q-0.5 0.453125 -0.5 1.3125l0 2.609375q0 0.859375 0.5 1.3125q0.5 0.453125 1.671875 0.453125l2.796875 0zm42.684326 10.859375q-3.8125 0 -5.921875 -1.9375q-2.109375 -1.9375 -2.109375 -5.6875l0 -14.40625q0 -3.75 2.109375 -5.6875q2.109375 -1.9375 5.921875 -1.9375l6.5 0l0 4.703125l-6.90625 0q-1.140625 0 -1.8125 0.640625q-0.671875 0.640625 -0.671875 1.53125l0 15.90625q0 0.890625 0.671875 1.53125q0.671875 0.640625 1.8125 0.640625l6.90625 0l0 4.703125l-6.5 0zm17.24054 2.140625q0.671875 0 0.9375 -0.203125q0.265625 -0.1875 0.421875 -0.765625l0.5625 -1.375l-0.59375 0.203125l-7.15625 -21.65625l5.453125 0l4.328125 14.515625l3.765625 -14.515625l5.21875 0l-6.5 23.203125q-0.5625 2.203125 -1.453125 3.359375q-0.890625 1.171875 -2.015625 1.53125q-1.125 0.359375 -2.734375 0.359375l-2.75 0l0 -4.65625l2.515625 0zm25.9906 -2.140625q-3.84375 0 -5.734375 -1.734375q-1.890625 -1.734375 -1.890625 -5.5l0 -7.1875q0 -3.71875 1.90625 -5.46875q1.921875 -1.765625 5.71875 -1.765625l6.0 0l0 4.65625l-6.390625 0q-1.171875 0 -1.671875 0.453125q-0.5 0.453125 -0.5 1.3125l0 8.8125q0 0.859375 0.5 1.3125q0.5 0.453125 1.671875 0.453125l6.390625 0l0 4.65625l-6.0 0zm22.08435 0q-1.6875 0 -2.953125 -1.1875q-1.265625 -1.203125 -1.265625 -3.640625l0 -20.171875l-5.890625 0l0 -4.65625l10.9375 0l0 24.625q0 0.265625 0.0625 0.328125q0.0625 0.046875 0.515625 0.046875l6.140625 0l0 4.65625l-7.546875 0zm20.08435 0q-3.84375 0 -5.734375 -1.734375q-1.890625 -1.734375 -1.890625 -5.5l0 -7.1875q0 -3.796875 1.71875 -5.515625q1.71875 -1.71875 5.5 -1.71875l1.890625 0q3.1875 0 4.875 1.828125q1.703125 1.828125 1.703125 5.203125l0 6.03125l-10.640625 0l0 2.171875q0 0.859375 0.5 1.3125q0.515625 0.453125 1.671875 0.453125l7.1875 0l0 4.65625l-6.78125 0zm3.09375 -15.421875q0 -0.703125 -0.4375 -1.140625q-0.4375 -0.4375 -1.140625 -0.4375l-2.3125 0q-1.078125 0 -1.4375 0.40625q-0.34375 0.390625 -0.34375 1.359375l0 1.984375l5.671875 0l0 -2.171875z" fill-rule="nonzero"/><path fill="#000000" fill-opacity="0.0" d="m410.65536 256.78656l116.409454 0l0 51.716522l-116.409454 0z" fill-rule="evenodd"/><path fill="#d4d4d4" d="m461.622 282.1053q0.859375 -1.21875 1.125 -1.6875q0.28125 -0.46875 0.375 -0.921875q0.09375 -0.46875 0.09375 -1.421875l0 -1.875q0 -0.578125 -0.453125 -1.015625q-0.453125 -0.4375 -1.21875 -0.4375l-3.75 0l0 -3.109375l3.484375 0q2.53125 0 3.9375 1.296875q1.40625 1.28125 1.40625 3.78125l0 1.109375q0 1.40625 -0.203125 2.296875q-0.203125 0.890625 -0.578125 1.578125q-0.359375 0.671875 -1.171875 1.859375l-3.34375 4.703125l5.828125 0l0 3.125l-9.890625 0l0 -3.0625l4.359375 -6.21875zm15.003693 4.796875l-0.96875 4.484375l-3.375 0l-2.59375 -14.421875l3.390625 0l1.046875 11.125l1.328125 -8.71875l2.609375 0l1.15625 8.71875l1.046875 -11.125l3.265625 0l-2.578125 14.421875l-3.46875 0l-0.859375 -4.484375z" fill-rule="nonzero"/><path fill="#000000" fill-opacity="0.0" d="m529.4307 256.78802l386.6142 0l0 51.716522l-386.6142 0z" fill-rule="evenodd"/><path fill="#d4d4d4" d="m721.37476 286.3099q0 2.421875 -1.359375 3.75q-1.359375 1.328125 -3.390625 1.328125l-0.9375 0q-2.03125 0 -3.40625 -1.328125q-1.359375 -1.328125 -1.359375 -3.75l0 -9.59375q0 -2.5 1.375 -3.78125q1.390625 -1.296875 3.921875 -1.296875l3.875 0l0 3.109375l-4.140625 0q-0.765625 0 -1.21875 0.4375q-0.453125 0.4375 -0.453125 1.015625l0 2.359375l2.078125 0q2.5 0 3.75 1.171875q1.265625 1.171875 1.265625 3.640625l0 2.9375zm-7.09375 0.5q0 0.640625 0.40625 1.0625q0.40625 0.421875 1.140625 0.421875l0.65625 0q0.734375 0 1.125 -0.421875q0.40625 -0.421875 0.40625 -1.0625l0 -3.9375q0 -0.59375 -0.328125 -0.90625q-0.328125 -0.3125 -1.0625 -0.3125l-2.34375 0l0 5.15625zm16.222412 0.09375l-0.96875 4.484375l-3.375 0l-2.59375 -14.421875l3.390625 0l1.046875 11.125l1.328125 -8.71875l2.609375 0l1.15625 8.71875l1.046875 -11.125l3.265625 0l-2.578125 14.421875l-3.46875 0l-0.859375 -4.484375z" fill-rule="nonzero"/><path fill="#783f04" d="m26.516994 61.699364l386.61417 0l0 94.45669l-386.61417 0z" fill-rule="evenodd"/><path stroke="#d4d4d4" stroke-width="1.0" stroke-linejoin="round" stroke-linecap="butt" d="m26.516994 61.699364l386.61417 0l0 94.45669l-386.61417 0z" fill-rule="evenodd"/><path fill="#d4d4d4" d="m163.44292 115.702705q0 3.75 -2.109375 5.6875q-2.109375 1.9375 -5.921875 1.9375l-6.5 0l0 -4.703125l6.90625 0q1.140625 0 1.8125 -0.640625q0.671875 -0.640625 0.671875 -1.53125l0 -4.15625q0 -0.90625 -0.40625 -1.375q-0.390625 -0.46875 -1.25 -0.46875l-1.1875 0q-3.3125 0 -5.28125 -1.984375q-1.953125 -1.984375 -1.953125 -5.65625l0 -1.515625q0 -3.75 2.109375 -5.6875q2.109375 -1.9375 5.921875 -1.9375l6.546875 0l0 4.703125l-6.953125 0q-1.15625 0 -1.828125 0.640625q-0.65625 0.640625 -0.65625 1.53125l0 3.03125q0 0.890625 0.546875 1.46875q0.5625 0.578125 1.5 0.578125l1.203125 0q3.203125 0 5.015625 1.890625q1.8125 1.890625 1.8125 5.546875l0 2.640625zm10.912476 -22.03125l-0.0625 8.1875q0.1875 -0.1875 2.234375 -0.1875l1.84375 0q3.5625 0 5.390625 1.765625q1.84375 1.75 1.84375 5.46875l0 14.421875l-5.0625 0l0 -15.234375q0 -0.84375 -0.46875 -1.296875q-0.453125 -0.46875 -1.296875 -0.46875l-2.640625 0q-0.9375 0 -1.34375 0.421875q-0.40625 0.421875 -0.4375 0.859375l0 15.71875l-5.046875 0l0 -29.65625l5.046875 0zm30.58435 29.65625q-0.734375 0 -1.53125 -0.40625q-0.78125 -0.40625 -0.671875 -0.71875q-0.515625 1.125 -2.4375 1.125l-3.5625 0q-3.359375 0 -5.0 -1.4375q-1.625 -1.453125 -1.625 -4.796875l0 -0.796875q0 -7.03125 6.65625 -7.03125l4.140625 0l0 -1.171875q0 -0.859375 -0.515625 -1.3125q-0.5 -0.453125 -1.65625 -0.453125l-7.03125 0l0 -4.65625l6.625 0q3.8125 0 5.71875 1.765625q1.90625 1.75 1.90625 5.46875l0 9.59375q0 0.15625 0.171875 0.265625q0.171875 0.109375 1.828125 0.109375l0 4.453125l-3.015625 0zm-5.046875 -4.65625q0.71875 0 0.859375 -0.25q0.15625 -0.265625 0.15625 -0.921875l0 -3.578125l-4.171875 0q-0.703125 0 -1.140625 0.4375q-0.4375 0.4375 -0.4375 1.140625l0 2.0q0 0.703125 0.234375 0.9375q0.25 0.234375 0.9375 0.234375l3.5625 0zm17.474976 -17.0l-0.359375 0.828125q0.484375 -0.828125 2.71875 -0.828125l1.4375 0q3.859375 0 5.75 1.734375q1.890625 1.734375 1.890625 5.5l0 7.1875q0 3.71875 -1.921875 5.484375q-1.90625 1.75 -5.71875 1.75l-3.609375 0l0 6.7968826l-5.046875 0l0 -28.453133l4.859375 0zm1.96875 4.65625q-0.96875 0 -1.375 0.453125q-0.40625 0.453125 -0.40625 0.921875l0 10.96875l4.015625 0q1.171875 0 1.671875 -0.453125q0.5 -0.453125 0.5 -1.3125l0 -8.8125q0 -0.859375 -0.5 -1.3125q-0.5 -0.453125 -1.671875 -0.453125l-2.234375 0zm25.631226 -12.65625l0 5.25l-5.46875 0l0 -5.25l5.46875 0zm-11.140625 12.65625l0 -4.65625l10.9375 0l0 17.0l5.921875 0l0 4.65625l-10.984375 0l0 -17.0l-5.875 0zm26.740585 -4.65625l-0.359375 0.828125q0.484375 -0.828125 2.71875 -0.828125l1.84375 0q3.5625 0 5.390625 1.765625q1.84375 1.75 1.84375 5.46875l0 14.421875l-5.0625 0l0 -15.234375q0 -0.84375 -0.46875 -1.296875q-0.453125 -0.46875 -1.296875 -0.46875l-2.640625 0q-0.96875 0 -1.375 0.453125q-0.40625 0.453125 -0.40625 0.921875l0 15.625l-5.0468597 0l0 -21.65625l4.8593597 0zm33.599976 22.234375q0 3.109375 -1.890625 4.6562576q-1.890625 1.5625 -5.625 1.5625l-9.140625 0l0 -4.6562576l9.546875 0q1.15625 0 1.59375 -0.34375q0.453125 -0.34375 0.453125 -0.828125l0 -1.28125q0 -0.5 -0.453125 -0.828125q-0.4375 -0.34375 -1.59375 -0.34375l-7.75 0l0 -5.84375q-1.140625 -0.625 -1.875 -2.1875q-0.734375 -1.5625 -0.734375 -3.90625l0 -1.0q0 -3.71875 1.90625 -5.46875q1.921875 -1.765625 5.734375 -1.765625l9.21875 0l0 8.234375q0 3.328125 -1.890625 5.28125q-1.875 1.9375 -4.9375 1.9375l-2.375 0l0 0.0625l2.296875 0q3.734375 0 5.625 1.5625q1.890625 1.5625 1.890625 4.671875l0 0.484375zm-7.4375 -11.4375q0.84375 0 1.28125 -0.546875q0.4375 -0.546875 0.5 -1.15625l0 -4.4375l-4.578125 0q-1.171875 0 -1.671875 0.453125q-0.5 0.453125 -0.5 1.3125l0 2.609375q0 0.859375 0.5 1.3125q0.5 0.453125 1.671875 0.453125l2.796875 0z" fill-rule="nonzero"/><path fill="#000000" fill-opacity="0.0" d="m527.0852 7.8198814l386.61414 0l0 51.716537l-386.61414 0z" fill-rule="evenodd"/><path fill="#d4d4d4" d="m646.2295 38.20113q0 2.296875 -1.046875 3.265625q-1.046875 0.953125 -3.484375 0.953125l-5.484375 0l0 -18.65625l5.171875 0q2.390625 0 3.609375 0.96875q1.234375 0.96875 1.234375 3.1875l0 10.28125zm-2.3125 -10.515625q0 -0.890625 -0.53125 -1.40625q-0.53125 -0.515625 -1.421875 -0.515625l-3.4375 0l0 14.65625l3.421875 0q1.015625 0 1.484375 -0.46875q0.484375 -0.46875 0.484375 -1.46875l0 -10.796875zm11.534912 14.734375q-2.34375 0 -3.4375 -1.0q-1.09375 -1.0 -1.09375 -3.265625l0 -4.796875q0 -2.296875 0.984375 -3.28125q1.0 -0.984375 3.28125 -0.984375l1.265625 0q1.890625 0 2.859375 1.0625q0.96875 1.046875 0.96875 3.0625l0 3.46875l-7.09375 0l0 2.0q0 0.828125 0.5 1.28125q0.515625 0.453125 1.5 0.453125l4.25 0l0 2.0l-3.984375 0zm2.625 -9.734375q0 -0.6875 -0.453125 -1.140625q-0.453125 -0.453125 -1.15625 -0.453125l-1.546875 0q-0.953125 0 -1.34375 0.4375q-0.390625 0.4375 -0.390625 1.296875l0 1.859375l4.890625 0l0 -2.0zm6.441223 -3.59375l2.453125 0l3.125 11.484375l3.03125 -11.484375l2.375 0l-3.84375 13.328125l-3.265625 0l-3.875 -13.328125zm33.21051 10.1875l0 -4.1875l-4.015625 0l0 -2.0l4.015625 0l0 -4.21875l2.140625 0l0 4.21875l4.0 0l0 2.0l-4.0 0l0 4.1875l-2.140625 0zm34.86676 -1.078125q0 2.296875 -1.046875 3.265625q-1.046875 0.953125 -3.484375 0.953125l-5.484375 0l0 -18.65625l5.171875 0q2.390625 0 3.609375 0.96875q1.234375 0.96875 1.234375 3.1875l0 10.28125zm-2.3125 -10.515625q0 -0.890625 -0.53125 -1.40625q-0.53125 -0.515625 -1.421875 -0.515625l-3.4375 0l0 14.65625l3.421875 0q1.015625 0 1.484375 -0.46875q0.484375 -0.46875 0.484375 -1.46875l0 -10.796875zm11.534912 14.734375q-2.34375 0 -3.4375 -1.0q-1.09375 -1.0 -1.09375 -3.265625l0 -4.796875q0 -2.296875 0.984375 -3.28125q1.0 -0.984375 3.28125 -0.984375l1.265625 0q1.890625 0 2.859375 1.0625q0.96875 1.046875 0.96875 3.0625l0 3.46875l-7.09375 0l0 2.0q0 0.828125 0.5 1.28125q0.515625 0.453125 1.5 0.453125l4.25 0l0 2.0l-3.984375 0zm2.625 -9.734375q0 -0.6875 -0.453125 -1.140625q-0.453125 -0.453125 -1.15625 -0.453125l-1.546875 0q-0.953125 0 -1.34375 0.4375q-0.390625 0.4375 -0.390625 1.296875l0 1.859375l4.890625 0l0 -2.0zm15.988098 6.40625q0 1.671875 -1.03125 2.5q-1.015625 0.828125 -2.96875 0.828125l-3.96875 0l0 -2.0l4.234375 0q0.71875 0 1.09375 -0.296875q0.375 -0.3125 0.375 -0.90625l0 -1.40625q0 -1.203125 -1.140625 -1.203125l-1.0 0q-1.859375 0 -2.78125 -0.8125q-0.921875 -0.8125 -0.921875 -2.578125l0 -0.765625q0 -1.78125 1.015625 -2.5625q1.015625 -0.796875 2.984375 -0.796875l3.578125 0l0 2.0l-3.84375 0q-0.671875 0 -1.078125 0.3125q-0.390625 0.296875 -0.390625 0.890625l0 0.953125q0 0.609375 0.359375 0.90625q0.359375 0.296875 0.921875 0.296875l0.90625 0q1.796875 0 2.71875 0.875q0.9375 0.859375 0.9375 2.5625l0 1.203125zm11.597412 -15.328125l0 2.390625l-2.53125 0l0 -2.390625l2.53125 0zm-6.328125 7.328125l0 -2.0l6.1875 0l0 11.328125l3.953125 0l0 2.0l-6.21875 0l0 -11.328125l-3.921875 0zm24.722473 12.265625q0 1.8125 -1.078125 2.703125q-1.078125 0.890625 -3.375 0.890625l-5.546875 0l0 -2.0l5.8125 0q0.953125 0 1.4375 -0.375q0.484375 -0.375 0.484375 -0.953125l0 -0.859375q0 -0.609375 -0.484375 -0.96875q-0.484375 -0.359375 -1.4375 -0.359375l-4.609375 0l0 -3.6875q-0.890625 -0.46875 -1.3125 -1.375q-0.421875 -0.90625 -0.421875 -2.34375l0 -0.671875q0 -2.234375 1.09375 -3.25q1.109375 -1.015625 3.4375 -1.015625l5.59375 0l0 4.9375q0 2.0 -1.09375 3.140625q-1.09375 1.125 -2.90625 1.125l-2.125 0l0 1.140625l2.078125 0q2.296875 0 3.375 0.890625q1.078125 0.890625 1.078125 2.703125l0 0.328125zm-4.40625 -7.0625q0.828125 0 1.25 -0.53125q0.4375 -0.546875 0.484375 -1.125l0 -3.546875l-3.59375 0q-0.984375 0 -1.5 0.453125q-0.5 0.453125 -0.5 1.28125l0 1.734375q0 0.828125 0.5 1.28125q0.515625 0.453125 1.5 0.453125l1.859375 0zm10.800598 -7.203125l0 0.640625q0.828125 -0.640625 2.125 -0.640625l1.234375 0q2.15625 0 3.203125 1.015625q1.0625 1.015625 1.0625 3.25l0 9.0625l-2.265625 0l0 -9.59375q0 -0.796875 -0.46875 -1.265625q-0.46875 -0.46875 -1.265625 -0.46875l-1.765625 0q-0.875 0 -1.3125 0.46875q-0.421875 0.46875 -0.421875 1.0l0 9.859375l-2.265625 0l0 -13.328125l2.140625 0z" fill-rule="nonzero"/><path fill="#000000" fill-opacity="0.0" d="m26.516462 7.817687l386.6142 0l0 51.716534l-386.6142 0z" fill-rule="evenodd"/><path fill="#d4d4d4" d="m73.50168 30.948935q0 2.171877 -1.140625 3.203127q-1.140625 1.015625 -3.390625 1.015625l-2.765625 0l0 7.25l-2.3125 0l0 -18.656252l5.03125 0q2.265625 0 3.421875 1.0q1.15625 1.0 1.15625 3.15625l0 3.03125zm-2.3125 -3.265625q0 -1.015625 -0.46875 -1.46875q-0.46875 -0.453125 -1.484375 -0.453125l-3.03125 0l0 7.406252l3.03125 0q1.015625 0 1.484375 -0.46875q0.46875 -0.46875 0.46875 -1.4843769l0 -3.53125zm9.300568 12.734377l0 -9.328127l-1.9375 0l0 -2.0l4.078125 0l0 0.71875q0.875 -0.71875 2.125 -0.71875l2.75 0l0 2.125l-3.015625 0q-0.859375 0 -1.28125 0.546875q-0.421875 0.5468769 -0.453125 1.1093769l0 7.546875l2.90625 0l0 2.0l-7.109375 0l0 -2.0l1.9375 0zm21.941193 -2.265625q0 2.234375 -1.109375 3.25q-1.109375 1.015625 -3.421875 1.015625l-0.875 0q-2.328125 0 -3.4375 -1.015625q-1.09375 -1.015625 -1.09375 -3.25l0 -4.796875q0 -2.234377 1.09375 -3.250002q1.109375 -1.015625 3.4375 -1.015625l0.875 0q2.3125 0 3.421875 1.015625q1.109375 1.015625 1.109375 3.250002l0 4.796875zm-2.265625 -5.328125q0 -0.8281269 -0.515625 -1.2812519q-0.5 -0.453125 -1.484375 -0.453125l-1.40625 0q-1.0 0 -1.5 0.453125q-0.5 0.453125 -0.5 1.2812519l0 5.859375q0 0.828125 0.5 1.28125q0.5 0.453125 1.5 0.453125l1.40625 0q0.984375 0 1.484375 -0.453125q0.515625 -0.453125 0.515625 -1.28125l0 -5.859375zm14.503693 8.984375q-0.890625 0.609375 -2.140625 0.609375l-1.09375 0q-2.34375 0 -3.4375 -1.0q-1.09375 -1.0 -1.09375 -3.265625l0 -4.796875q0 -2.234377 1.109375 -3.250002q1.109375 -1.015625 3.421875 -1.015625l3.09375 0l0 -5.328125l2.265625 0l0 18.656252l-2.125 0l0 -0.609375zm-1.875 -1.390625q0.890625 0 1.3125 -0.46875q0.421875 -0.46875 0.421875 -1.0l0 -7.859377l-3.359375 0q-0.984375 0 -1.5 0.453125q-0.5 0.453125 -0.5 1.2812519l0 5.859375q0 0.828125 0.5 1.28125q0.515625 0.453125 1.5 0.453125l1.625 0zm16.050568 1.390625q-0.875 0.609375 -2.125 0.609375l-0.90625 0q-2.171875 0 -3.21875 -1.015625q-1.046875 -1.015625 -1.046875 -3.25l0 -9.062502l2.265625 0l0 9.593752q0 0.796875 0.453125 1.265625q0.46875 0.46875 1.28125 0.46875l1.4375 0q0.84375 0 1.25 -0.421875q0.421875 -0.4375 0.484375 -0.96875l0 -9.937502l2.265625 0l0 13.328127l-2.140625 0l0 -0.609375zm12.347443 0.609375q-2.34375 0 -3.4375 -1.0q-1.09375 -1.0 -1.09375 -3.265625l0 -4.796875q0 -2.234377 1.09375 -3.250002q1.109375 -1.015625 3.4375 -1.015625l3.4375 0l0 2.0l-3.703125 0q-0.984375 0 -1.5 0.453125q-0.5 0.453125 -0.5 1.2812519l0 5.859375q0 0.828125 0.5 1.28125q0.515625 0.453125 1.5 0.453125l3.703125 0l0 2.0l-3.4375 0zm14.847443 0q-1.359375 0 -2.078125 -0.875q-0.71875 -0.890625 -0.71875 -2.328125l0 -8.125002l-2.53125 0l0 -2.0l2.53125 0l0 -3.203125l2.265625 0l0 3.203125l3.890625 0l0 2.0l-3.890625 0l0 8.265627q0 0.578125 0.28125 0.828125q0.296875 0.234375 0.90625 0.234375l2.703125 0l0 2.0l-3.359375 0zm26.726135 -3.140625l0 -4.1875l-4.015625 0l0 -2.0l4.015625 0l0 -4.218752l2.140625 0l0 4.218752l4.0 0l0 2.0l-4.0 0l0 4.1875l-2.140625 0zm34.86676 -1.078125q0 2.296875 -1.046875 3.265625q-1.046875 0.953125 -3.484375 0.953125l-5.484375 0l0 -18.656252l5.171875 0q2.390625 0 3.609375 0.96875q1.234375 0.96875 1.234375 3.1875l0 10.281252zm-2.3125 -10.515627q0 -0.890625 -0.53125 -1.40625q-0.53125 -0.515625 -1.421875 -0.515625l-3.4375 0l0 14.656252l3.421875 0q1.015625 0 1.484375 -0.46875q0.484375 -0.46875 0.484375 -1.46875l0 -10.796877zm11.534943 14.734377q-2.34375 0 -3.4375 -1.0q-1.09375 -1.0 -1.09375 -3.265625l0 -4.796875q0 -2.296877 0.984375 -3.281252q1.0 -0.984375 3.28125 -0.984375l1.265625 0q1.890625 0 2.859375 1.0625q0.96875 1.046875 0.96875 3.062502l0 3.46875l-7.09375 0l0 2.0q0 0.828125 0.5 1.28125q0.515625 0.453125 1.5 0.453125l4.25 0l0 2.0l-3.984375 0zm2.625 -9.734375q0 -0.6875019 -0.453125 -1.1406269q-0.453125 -0.453125 -1.15625 -0.453125l-1.546875 0q-0.953125 0 -1.34375 0.4375q-0.390625 0.4375 -0.390625 1.2968769l0 1.859375l4.890625 0l0 -2.0zm6.4411926 -3.593752l2.453125 0l3.125 11.484377l3.03125 -11.484377l2.375 0l-3.84375 13.328127l-3.265625 0l-3.875 -13.328127zm33.21051 10.187502l0 -4.1875l-4.015625 0l0 -2.0l4.015625 0l0 -4.218752l2.140625 0l0 4.218752l4.0 0l0 2.0l-4.0 0l0 4.1875l-2.140625 0zm34.86676 -1.078125q0 2.296875 -1.046875 3.265625q-1.046875 0.953125 -3.484375 0.953125l-5.484375 0l0 -18.656252l5.171875 0q2.390625 0 3.609375 0.96875q1.234375 0.96875 1.234375 3.1875l0 10.281252zm-2.3125 -10.515627q0 -0.890625 -0.53125 -1.40625q-0.53125 -0.515625 -1.421875 -0.515625l-3.4375 0l0 14.656252l3.421875 0q1.015625 0 1.484375 -0.46875q0.484375 -0.46875 0.484375 -1.46875l0 -10.796877zm11.534912 14.734377q-2.34375 0 -3.4375 -1.0q-1.09375 -1.0 -1.09375 -3.265625l0 -4.796875q0 -2.296877 0.984375 -3.281252q1.0 -0.984375 3.28125 -0.984375l1.265625 0q1.890625 0 2.859375 1.0625q0.96875 1.046875 0.96875 3.062502l0 3.46875l-7.09375 0l0 2.0q0 0.828125 0.5 1.28125q0.515625 0.453125 1.5 0.453125l4.25 0l0 2.0l-3.984375 0zm2.625 -9.734375q0 -0.6875019 -0.453125 -1.1406269q-0.453125 -0.453125 -1.15625 -0.453125l-1.546875 0q-0.953125 0 -1.34375 0.4375q-0.390625 0.4375 -0.390625 1.2968769l0 1.859375l4.890625 0l0 -2.0zm15.988098 6.40625q0 1.671875 -1.03125 2.5q-1.015625 0.828125 -2.96875 0.828125l-3.96875 0l0 -2.0l4.234375 0q0.71875 0 1.09375 -0.296875q0.375 -0.3125 0.375 -0.90625l0 -1.40625q0 -1.203125 -1.140625 -1.203125l-1.0 0q-1.859375 0 -2.78125 -0.8125q-0.921875 -0.8125 -0.921875 -2.578125l0 -0.765625q0 -1.7812519 1.015625 -2.562502q1.015625 -0.796875 2.984375 -0.796875l3.578125 0l0 2.0l-3.84375 0q-0.671875 0 -1.078125 0.3125q-0.390625 0.296875 -0.390625 0.8906269l0 0.953125q0 0.609375 0.359375 0.90625q0.359375 0.296875 0.921875 0.296875l0.90625 0q1.796875 0 2.71875 0.875q0.9375 0.859375 0.9375 2.5625l0 1.203125zm11.597412 -15.328127l0 2.390625l-2.53125 0l0 -2.390625l2.53125 0zm-6.328125 7.328125l0 -2.0l6.1875 0l0 11.328127l3.953125 0l0 2.0l-6.21875 0l0 -11.328127l-3.921875 0zm24.722473 12.265627q0 1.8125 -1.078125 2.703125q-1.078125 0.890625 -3.375 0.890625l-5.546875 0l0 -2.0l5.8125 0q0.953125 0 1.4375 -0.375q0.484375 -0.375 0.484375 -0.953125l0 -0.859375q0 -0.609375 -0.484375 -0.96875q-0.484375 -0.359375 -1.4375 -0.359375l-4.609375 0l0 -3.6875q-0.890625 -0.46875 -1.3125 -1.375q-0.421875 -0.90625 -0.421875 -2.34375l0 -0.671875q0 -2.234377 1.09375 -3.250002q1.109375 -1.015625 3.4375 -1.015625l5.59375 0l0 4.937502q0 2.0 -1.09375 3.140625q-1.09375 1.125 -2.90625 1.125l-2.125 0l0 1.140625l2.078125 0q2.296875 0 3.375 0.890625q1.078125 0.890625 1.078125 2.703125l0 0.328125zm-4.40625 -7.0625q0.828125 0 1.25 -0.53125q0.4375 -0.546875 0.484375 -1.125l0 -3.546877l-3.59375 0q-0.984375 0 -1.5 0.453125q-0.5 0.453125 -0.5 1.2812519l0 1.734375q0 0.828125 0.5 1.28125q0.515625 0.453125 1.5 0.453125l1.859375 0zm10.800537 -7.203127l0 0.640625q0.828125 -0.640625 2.125 -0.640625l1.234375 0q2.15625 0 3.203125 1.015625q1.0625 1.015625 1.0625 3.250002l0 9.0625l-2.265625 0l0 -9.59375q0 -0.796875 -0.46875 -1.2656269q-0.46875 -0.46875 -1.265625 -0.46875l-1.765625 0q-0.875 0 -1.3125 0.46875q-0.421875 0.4687519 -0.421875 1.0000019l0 9.859375l-2.265625 0l0 -13.328127l2.140625 0z" fill-rule="nonzero"/><path fill="#0c343d" d="m410.65573 61.699493l116.409454 0l0 196.81891l-116.409454 0z" fill-rule="evenodd"/><path stroke="#d4d4d4" stroke-width="1.0" stroke-linejoin="round" stroke-linecap="butt" d="m410.65573 61.699493l116.409454 0l0 196.81891l-116.409454 0z" fill-rule="evenodd"/><path fill="#d4d4d4" d="m438.05115 149.67561q-3.8125 0 -5.921875 -1.9375q-2.109375 -1.9375 -2.109375 -5.6875l0 -14.406258q0 -3.75 2.109375 -5.6875q2.109375 -1.9375 5.921875 -1.9375l6.5 0l0 4.703125l-6.90625 0q-1.140625 0 -1.8125 0.640625q-0.671875 0.640625 -0.671875 1.53125l0 15.906258q0 0.890625 0.671875 1.53125q0.671875 0.640625 1.8125 0.640625l6.90625 0l0 4.703125l-6.5 0zm29.099976 -7.234375q0 3.71875 -1.90625 5.484375q-1.90625 1.75 -5.71875 1.75l-1.3125 0q-3.8125 0 -5.734375 -1.75q-1.90625 -1.765625 -1.90625 -5.484375l0 -7.1875q0 -3.71875 1.90625 -5.46875q1.921875 -1.765625 5.734375 -1.765625l1.3125 0q3.8125 0 5.71875 1.765625q1.90625 1.75 1.90625 5.46875l0 7.1875zm-5.046875 -8.0q0 -0.859375 -0.515625 -1.3125q-0.5 -0.453125 -1.65625 -0.453125l-2.125 0q-1.171875 0 -1.671875 0.453125q-0.5 0.453125 -0.5 1.3125l0 8.8125q0 0.859375 0.5 1.3125q0.5 0.453125 1.671875 0.453125l2.125 0q1.15625 0 1.65625 -0.453125q0.515625 -0.453125 0.515625 -1.3125l0 -8.8125zm26.64685 8.0q0 3.71875 -1.90625 5.484375q-1.90625 1.75 -5.71875 1.75l-1.3125 0q-3.8125 0 -5.734375 -1.75q-1.90625 -1.765625 -1.90625 -5.484375l0 -7.1875q0 -3.71875 1.90625 -5.46875q1.921875 -1.765625 5.734375 -1.765625l1.3125 0q3.8125 0 5.71875 1.765625q1.90625 1.75 1.90625 5.46875l0 7.1875zm-5.046875 -8.0q0 -0.859375 -0.515625 -1.3125q-0.5 -0.453125 -1.65625 -0.453125l-2.125 0q-1.171875 0 -1.671875 0.453125q-0.5 0.453125 -0.5 1.3125l0 8.8125q0 0.859375 0.5 1.3125q0.5 0.453125 1.671875 0.453125l2.125 0q1.15625 0 1.65625 -0.453125q0.515625 -0.453125 0.515625 -1.3125l0 -8.8125zm19.662476 15.234375q-1.6875 0 -2.953125 -1.1875q-1.265625 -1.203125 -1.265625 -3.640625l0 -20.171883l-5.890625 0l0 -4.65625l10.9375 0l0 24.625008q0 0.265625 0.0625 0.328125q0.0625 0.046875 0.515625 0.046875l6.140625 0l0 4.65625l-7.546875 0z" fill-rule="nonzero"/><path fill="#d4d4d4" d="m445.62927 197.86832q0 3.796875 -1.828125 5.46875q-1.828125 1.671875 -5.796875 1.671875l-9.0625 0l0 -29.65625l8.59375 0q3.890625 0 5.984375 1.671875q2.109375 1.671875 2.109375 5.390625l0 15.453125zm-5.125 -15.8125q0 -0.96875 -0.5625 -1.5q-0.546875 -0.546875 -1.53125 -0.546875l-4.328125 0l0 20.34375l4.28125 0q1.1875 0 1.65625 -0.453125q0.484375 -0.46875 0.484375 -1.640625l0 -16.203125zm26.64685 15.71875q0 3.71875 -1.90625 5.484375q-1.90625 1.75 -5.71875 1.75l-1.3125 0q-3.8125 0 -5.734375 -1.75q-1.90625 -1.765625 -1.90625 -5.484375l0 -7.1875q0 -3.71875 1.90625 -5.46875q1.921875 -1.765625 5.734375 -1.765625l1.3125 0q3.8125 0 5.71875 1.765625q1.90625 1.75 1.90625 5.46875l0 7.1875zm-5.046875 -8.0q0 -0.859375 -0.515625 -1.3125q-0.5 -0.453125 -1.65625 -0.453125l-2.125 0q-1.171875 0 -1.671875 0.453125q-0.5 0.453125 -0.5 1.3125l0 8.8125q0 0.859375 0.5 1.3125q0.5 0.453125 1.671875 0.453125l2.125 0q1.15625 0 1.65625 -0.453125q0.515625 -0.453125 0.515625 -1.3125l0 -8.8125zm18.412476 8.515625l-1.4375 6.71875l-5.078125 0l-3.890625 -21.65625l5.09375 0l1.5625 16.703125l1.96875 -13.109375l3.953125 0l1.71875 13.109375l1.5625 -16.703125l4.90625 0l-3.859375 21.65625l-5.21875 0l-1.28125 -6.71875zm18.287476 -14.9375l-0.359375 0.828125q0.484375 -0.828125 2.71875 -0.828125l1.84375 0q3.5625 0 5.390625 1.765625q1.84375 1.75 1.84375 5.46875l0 14.421875l-5.0625 0l0 -15.234375q0 -0.84375 -0.46875 -1.296875q-0.453125 -0.46875 -1.296875 -0.46875l-2.640625 0q-0.96875 0 -1.375 0.453125q-0.40625 0.453125 -0.40625 0.921875l0 15.625l-5.046875 0l0 -21.65625l4.859375 0z" fill-rule="nonzero"/><path fill="#000000" fill-opacity="0.0" d="m11.530004 256.78802l386.61417 0l0 51.716522l-386.61417 0z" fill-rule="evenodd"/><path fill="#d4d4d4" d="m196.60498 274.95053l0 3.671875l-7.453125 3.265625l7.453125 3.296875l0 3.71875l-11.234375 -5.1875l0 -3.484375l11.234375 -5.28125zm14.066193 11.359375q0 2.421875 -1.359375 3.75q-1.359375 1.328125 -3.390625 1.328125l-0.9375 0q-2.03125 0 -3.40625 -1.328125q-1.359375 -1.328125 -1.359375 -3.75l0 -9.59375q0 -2.5 1.375 -3.78125q1.390625 -1.296875 3.921875 -1.296875l3.875 0l0 3.109375l-4.140625 0q-0.765625 0 -1.21875 0.4375q-0.453125 0.4375 -0.453125 1.015625l0 2.359375l2.078125 0q2.5 0 3.75 1.171875q1.265625 1.171875 1.265625 3.640625l0 2.9375zm-7.09375 0.5q0 0.640625 0.40625 1.0625q0.40625 0.421875 1.140625 0.421875l0.65625 0q0.734375 0 1.125 -0.421875q0.40625 -0.421875 0.40625 -1.0625l0 -3.9375q0 -0.59375 -0.328125 -0.90625q-0.328125 -0.3125 -1.0625 -0.3125l-2.34375 0l0 5.15625zm16.222443 0.09375l-0.96875 4.484375l-3.375 0l-2.59375 -14.421875l3.390625 0l1.046875 11.125l1.328125 -8.71875l2.609375 0l1.15625 8.71875l1.046875 -11.125l3.265625 0l-2.578125 14.421875l-3.46875 0l-0.859375 -4.484375z" fill-rule="nonzero"/></g></svg>