<svg version="1.1" viewBox="0.0 0.0 934.3307086614174 316.3228346456693" fill="none" stroke="none" stroke-linecap="square" stroke-miterlimit="10" xmlns:xlink="http://www.w3.org/1999/xlink" xmlns="http://www.w3.org/2000/svg"><clipPath id="p.0"><path d="m0 0l934.3307 0l0 316.32285l-934.3307 0l0 -316.32285z" clip-rule="nonzero"/></clipPath><g clip-path="url(#p.0)"><path fill="#000000" fill-opacity="0.0" d="m0 0l934.3307 0l0 316.32285l-934.3307 0z" fill-rule="evenodd"/><path fill="#1e1e1e" d="m-9.755905 -0.80052495l947.0866 0l0 317.92126l-947.0866 0z" fill-rule="evenodd"/><path fill="#8e7cc3" d="m449.0296 161.57376l331.2126 0l0 80.8819l-331.2126 0z" fill-rule="evenodd"/><path stroke="#000000" stroke-width="1.0" stroke-linejoin="round" stroke-linecap="butt" d="m449.0296 161.57376l331.2126 0l0 80.8819l-331.2126 0z" fill-rule="evenodd"/><path fill="#000000" d="m576.9485 206.22783q0 2.15625 -1.046875 3.109375q-1.03125 0.9375 -3.28125 0.9375l-5.0 0l0 -16.796875l4.734375 0q2.1875 0 3.265625 0.9375q1.09375 0.9375 1.09375 3.0625l0 1.296875q0 2.0 -0.828125 2.578125q1.0625 0.578125 1.0625 2.828125l0 2.046875zm-3.140625 -8.953125q0 -0.65625 -0.265625 -0.90625q-0.25 -0.25 -0.921875 -0.25l-2.09375 0l0 4.0625l2.09375 0q0.515625 0 0.84375 -0.3125q0.34375 -0.328125 0.34375 -0.875l0 -1.71875zm0.234375 6.703125q0 -0.53125 -0.3125 -0.84375q-0.3125 -0.3125 -0.875 -0.3125l-2.328125 0l0 4.8125l2.296875 0q0.671875 0 0.9375 -0.25q0.28125 -0.265625 0.28125 -0.9375l0 -2.46875zm12.40625 5.828125q-0.34375 0.46875 -1.546875 0.46875l-0.765625 0q-2.03125 0 -3.0625 -0.984375q-1.03125 -1.0 -1.03125 -3.109375l0 -8.171875l2.859375 0l0 8.625q0 0.484375 0.25 0.75q0.265625 0.25 0.75 0.25l1.234375 0q0.515625 0 0.734375 -0.21875q0.234375 -0.234375 0.265625 -0.515625l0 -8.890625l2.859375 0l0 12.265625l-2.75 0l0.203125 -0.46875zm11.843689 -16.328125l0 2.984375l-3.09375 0l0 -2.984375l3.09375 0zm-6.3125 7.171875l0 -2.640625l6.1875 0l0 9.625l3.359375 0l0 2.640625l-6.21875 0l0 -9.625l-3.328125 0zm17.734375 9.625q-0.953125 0 -1.671875 -0.671875q-0.71875 -0.6875 -0.71875 -2.0625l0 -11.421875l-3.34375 0l0 -2.640625l6.203125 0l0 13.953125q0 0.140625 0.03125 0.171875q0.03125 0.03125 0.296875 0.03125l3.46875 0l0 2.640625l-4.265625 0zm13.624939 -0.46875q-0.34375 0.46875 -1.546875 0.46875l-0.9375 0q-2.171875 0 -3.25 -0.984375q-1.0625 -0.984375 -1.0625 -3.109375l0 -4.078125q0 -2.109375 1.078125 -3.09375q1.078125 -1.0 3.234375 -1.0l2.15625 0l0 -4.53125l2.875 0l0 16.796875l-2.75 0l0.203125 -0.46875zm-1.328125 -2.171875q0.546875 0 0.765625 -0.25q0.234375 -0.25 0.234375 -0.515625l0 -6.21875l-2.375 0q-0.671875 0 -0.953125 0.25q-0.28125 0.25 -0.28125 0.75l0 4.984375q0 0.5 0.28125 0.75q0.28125 0.25 0.953125 0.25l1.375 0zm12.984375 -14.15625l0 2.984375l-3.09375 0l0 -2.984375l3.09375 0zm-6.3125 7.171875l0 -2.640625l6.1875 0l0 9.625l3.359375 0l0 2.640625l-6.21875 0l0 -9.625l-3.328125 0zm15.140564 -2.640625l-0.203125 0.46875q0.28125 -0.46875 1.546875 -0.46875l1.046875 0q2.015625 0 3.046875 1.0q1.046875 0.984375 1.046875 3.09375l0 8.171875l-2.859375 0l0 -8.625q0 -0.484375 -0.265625 -0.734375q-0.25 -0.265625 -0.75 -0.265625l-1.484375 0q-0.546875 0 -0.78125 0.265625q-0.234375 0.25 -0.234375 0.515625l0 8.84375l-2.859375 0l0 -12.265625l2.75 0zm19.03125 12.59375q0 1.75 -1.0625 2.625q-1.0625 0.890625 -3.1875 0.890625l-5.1875 0l0 -2.625l5.40625 0q0.671875 0 0.921875 -0.203125q0.25 -0.203125 0.25 -0.46875l0 -0.71875q0 -0.28125 -0.25 -0.46875q-0.25 -0.203125 -0.921875 -0.203125l-4.375 0l0 -3.3125q-0.640625 -0.34375 -1.0625 -1.21875q-0.421875 -0.890625 -0.421875 -2.234375l0 -0.5625q0 -2.109375 1.078125 -3.09375q1.09375 -1.0 3.25 -1.0l5.21875 0l0 4.65625q0 1.890625 -1.0625 3.0q-1.0625 1.09375 -2.796875 1.09375l-1.34375 0l0 0.046875l1.296875 0q2.125 0 3.1875 0.890625q1.0625 0.875 1.0625 2.625l0 0.28125zm-4.203125 -6.46875q0.484375 0 0.71875 -0.3125q0.25 -0.3125 0.28125 -0.640625l0 -2.53125l-2.59375 0q-0.65625 0 -0.9375 0.25q-0.28125 0.25 -0.28125 0.75l0 1.46875q0 0.5 0.28125 0.765625q0.296875 0.25 0.9375 0.25l1.59375 0z" fill-rule="nonzero"/><path fill="#000000" fill-opacity="0.0" d="m449.0303 242.4578l331.21262 0l0 40.409454l-331.21262 0z" fill-rule="evenodd"/><path fill="#ffffff" d="m609.779 258.7384l-1.515625 0.109375q-0.203125 -0.890625 -0.578125 -1.296875q-0.609375 -0.65625 -1.515625 -0.65625q-0.734375 0 -1.28125 0.40625q-0.71875 0.53125 -1.140625 1.53125q-0.40625 1.0 -0.421875 2.875q0.546875 -0.84375 1.34375 -1.25q0.796875 -0.40625 1.65625 -0.40625q1.53125 0 2.59375 1.125q1.078125 1.125 1.078125 2.890625q0 1.171875 -0.515625 2.171875q-0.5 1.0 -1.375 1.546875q-0.875 0.53125 -2.0 0.53125q-1.90625 0 -3.109375 -1.40625q-1.1875 -1.40625 -1.1875 -4.609375q0 -3.609375 1.328125 -5.234375q1.15625 -1.4218597 3.125 -1.4218597q1.453125 0 2.390625 0.82810974q0.9375 0.8125 1.125 2.265625zm-6.21875 5.34375q0 0.78125 0.328125 1.5q0.34375 0.71875 0.9375 1.09375q0.59375 0.375 1.265625 0.375q0.953125 0 1.640625 -0.765625q0.703125 -0.78125 0.703125 -2.125q0 -1.28125 -0.6875 -2.015625q-0.671875 -0.75 -1.71875 -0.75q-1.03125 0 -1.75 0.75q-0.71875 0.734375 -0.71875 1.9375zm14.842041 4.015625l-2.75 -8.984375l1.578125 0l1.421875 5.1875l0.546875 1.921875q0.03125 -0.140625 0.453125 -1.84375l1.4375 -5.265625l1.5625 0l1.34375 5.203125l0.453125 1.71875l0.515625 -1.734375l1.53125 -5.1875l1.484375 0l-2.8125 8.984375l-1.578125 0l-1.421875 -5.375l-0.359375 -1.53125l-1.8125 6.90625l-1.59375 0z" fill-rule="nonzero"/><path fill="#000000" fill-opacity="0.0" d="m793.7199 173.47874l137.22833 0l0 40.409454l-137.22833 0z" fill-rule="evenodd"/><path fill="#ffffff" d="m804.06366 199.11874l0 -12.40625l4.265625 0q1.453125 0 2.203125 0.1875q1.078125 0.234375 1.828125 0.875q0.984375 0.828125 1.46875 2.125q0.484375 1.296875 0.484375 2.953125q0 1.40625 -0.328125 2.5q-0.328125 1.09375 -0.84375 1.8125q-0.515625 0.703125 -1.140625 1.125q-0.609375 0.40625 -1.484375 0.625q-0.859375 0.203125 -1.984375 0.203125l-4.46875 0zm1.640625 -1.46875l2.640625 0q1.234375 0 1.921875 -0.21875q0.703125 -0.234375 1.125 -0.640625q0.578125 -0.59375 0.90625 -1.578125q0.328125 -0.984375 0.328125 -2.390625q0 -1.9375 -0.640625 -2.984375q-0.640625 -1.046875 -1.5625 -1.40625q-0.65625 -0.25 -2.125 -0.25l-2.59375 0l0 9.46875zm16.826294 -1.421875l1.5625 0.1875q-0.359375 1.390625 -1.375 2.15625q-1.0 0.75 -2.5625 0.75q-1.984375 0 -3.140625 -1.203125q-1.140625 -1.21875 -1.140625 -3.421875q0 -2.265625 1.15625 -3.515625q1.171875 -1.25 3.03125 -1.25q1.8125 0 2.953125 1.234375q1.140625 1.21875 1.140625 3.4375q0 0.140625 -0.015625 0.40625l-6.703125 0q0.09375 1.484375 0.84375 2.28125q0.75 0.78125 1.875 0.78125q0.84375 0 1.4375 -0.4375q0.59375 -0.4375 0.9375 -1.40625zm-5.0 -2.46875l5.015625 0q-0.109375 -1.125 -0.578125 -1.703125q-0.734375 -0.875 -1.890625 -0.875q-1.046875 0 -1.765625 0.703125q-0.703125 0.703125 -0.78125 1.875zm10.980835 5.359375l-3.421875 -8.984375l1.609375 0l1.921875 5.375q0.3125 0.875 0.578125 1.8125q0.203125 -0.703125 0.578125 -1.703125l1.984375 -5.484375l1.578125 0l-3.40625 8.984375l-1.421875 0zm14.181519 -2.0l0 -3.40625l-3.375 0l0 -1.421875l3.375 0l0 -3.375l1.4375 0l0 3.375l3.375 0l0 1.421875l-3.375 0l0 3.40625l-1.4375 0zm11.933655 2.0l0 -12.40625l4.265625 0q1.453125 0 2.203125 0.1875q1.078125 0.234375 1.828125 0.875q0.984375 0.828125 1.46875 2.125q0.484375 1.296875 0.484375 2.953125q0 1.40625 -0.328125 2.5q-0.328125 1.09375 -0.84375 1.8125q-0.515625 0.703125 -1.140625 1.125q-0.609375 0.40625 -1.484375 0.625q-0.859375 0.203125 -1.984375 0.203125l-4.46875 0zm1.640625 -1.46875l2.640625 0q1.234375 0 1.921875 -0.21875q0.703125 -0.234375 1.125 -0.640625q0.578125 -0.59375 0.90625 -1.578125q0.328125 -0.984375 0.328125 -2.390625q0 -1.9375 -0.640625 -2.984375q-0.640625 -1.046875 -1.5625 -1.40625q-0.65625 -0.25 -2.125 -0.25l-2.59375 0l0 9.46875zm16.826355 -1.421875l1.5625 0.1875q-0.359375 1.390625 -1.375 2.15625q-1.0 0.75 -2.5625 0.75q-1.984375 0 -3.140625 -1.203125q-1.140625 -1.21875 -1.140625 -3.421875q0 -2.265625 1.15625 -3.515625q1.171875 -1.25 3.03125 -1.25q1.8125 0 2.953125 1.234375q1.140625 1.21875 1.140625 3.4375q0 0.140625 -0.015625 0.40625l-6.703125 0q0.09375 1.484375 0.84375 2.28125q0.75 0.78125 1.875 0.78125q0.84375 0 1.4375 -0.4375q0.59375 -0.4375 0.9375 -1.40625zm-5.0 -2.46875l5.015625 0q-0.109375 -1.125 -0.578125 -1.703125q-0.734375 -0.875 -1.890625 -0.875q-1.046875 0 -1.765625 0.703125q-0.703125 0.703125 -0.78125 1.875zm7.87146 2.671875l1.515625 -0.234375q0.125 0.90625 0.703125 1.390625q0.578125 0.484375 1.609375 0.484375q1.0625 0 1.5625 -0.421875q0.515625 -0.4375 0.515625 -1.015625q0 -0.515625 -0.453125 -0.8125q-0.3125 -0.203125 -1.5625 -0.515625q-1.671875 -0.421875 -2.328125 -0.71875q-0.640625 -0.3125 -0.984375 -0.859375q-0.328125 -0.546875 -0.328125 -1.203125q0 -0.609375 0.28125 -1.109375q0.28125 -0.515625 0.75 -0.859375q0.359375 -0.265625 0.96875 -0.4375q0.609375 -0.1875 1.3125 -0.1875q1.0625 0 1.859375 0.3125q0.796875 0.296875 1.171875 0.828125q0.390625 0.515625 0.53125 1.375l-1.484375 0.203125q-0.109375 -0.6875 -0.59375 -1.078125q-0.484375 -0.390625 -1.375 -0.390625q-1.046875 0 -1.5 0.34375q-0.4375 0.34375 -0.4375 0.8125q0 0.296875 0.171875 0.53125q0.1875 0.25 0.59375 0.40625q0.21875 0.09375 1.34375 0.390625q1.609375 0.4375 2.25 0.71875q0.640625 0.265625 1.0 0.796875q0.375 0.515625 0.375 1.296875q0 0.765625 -0.453125 1.4375q-0.4375 0.671875 -1.28125 1.046875q-0.828125 0.359375 -1.890625 0.359375q-1.75 0 -2.671875 -0.71875q-0.921875 -0.734375 -1.171875 -2.171875zm9.2890625 -7.96875l0 -1.75l1.515625 0l0 1.75l-1.515625 0zm0 10.65625l0 -8.984375l1.515625 0l0 8.984375l-1.515625 0zm3.5528564 0.75l1.484375 0.21875q0.09375 0.6875 0.515625 1.0q0.5625 0.421875 1.546875 0.421875q1.0625 0 1.625 -0.421875q0.578125 -0.421875 0.78125 -1.1875q0.125 -0.46875 0.109375 -1.953125q-0.984375 1.171875 -2.484375 1.171875q-1.84375 0 -2.859375 -1.328125q-1.015625 -1.34375 -1.015625 -3.21875q0 -1.28125 0.453125 -2.359375q0.46875 -1.09375 1.34375 -1.6875q0.890625 -0.59375 2.09375 -0.59375q1.59375 0 2.625 1.28125l0 -1.078125l1.40625 0l0 7.765625q0 2.09375 -0.4375 2.96875q-0.421875 0.875 -1.359375 1.375q-0.921875 0.515625 -2.265625 0.515625q-1.609375 0 -2.609375 -0.71875q-0.984375 -0.71875 -0.953125 -2.171875zm1.265625 -5.40625q0 1.765625 0.703125 2.578125q0.703125 0.8125 1.75 0.8125q1.0625 0 1.765625 -0.796875q0.71875 -0.8125 0.71875 -2.546875q0 -1.640625 -0.734375 -2.46875q-0.734375 -0.84375 -1.765625 -0.84375q-1.015625 0 -1.734375 0.828125q-0.703125 0.8125 -0.703125 2.4375zm8.65271 4.65625l0 -8.984375l1.375 0l0 1.28125q0.984375 -1.484375 2.859375 -1.484375q0.8125 0 1.484375 0.296875q0.6875 0.28125 1.015625 0.765625q0.34375 0.46875 0.484375 1.125q0.078125 0.421875 0.078125 1.46875l0 5.53125l-1.515625 0l0 -5.46875q0 -0.921875 -0.1875 -1.375q-0.171875 -0.46875 -0.625 -0.75q-0.453125 -0.28125 -1.0625 -0.28125q-0.96875 0 -1.671875 0.625q-0.703125 0.609375 -0.703125 2.34375l0 4.90625l-1.53125 0z" fill-rule="nonzero"/><path fill="#f6b26b" d="m218.23064 161.57387l230.80315 0l0 80.8819l-230.80315 0z" fill-rule="evenodd"/><path stroke="#000000" stroke-width="1.0" stroke-linejoin="round" stroke-linecap="butt" d="m218.23064 161.57387l230.80315 0l0 80.8819l-230.80315 0z" fill-rule="evenodd"/><path fill="#000000" d="m301.70264 205.96231q0 2.125 -1.203125 3.21875q-1.1875 1.09375 -3.34375 1.09375l-3.6875 0l0 -2.65625l3.90625 0q0.65625 0 1.03125 -0.359375q0.375 -0.375 0.375 -0.875l0 -2.359375q0 -0.5 -0.234375 -0.765625q-0.21875 -0.28125 -0.703125 -0.28125l-0.671875 0q-1.859375 0 -2.984375 -1.125q-1.109375 -1.125 -1.109375 -3.1875l0 -0.859375q0 -2.140625 1.1875 -3.234375q1.203125 -1.09375 3.359375 -1.09375l3.703125 0l0 2.65625l-3.9375 0q-0.640625 0 -1.03125 0.375q-0.375 0.359375 -0.375 0.859375l0 1.71875q0 0.515625 0.3125 0.84375q0.328125 0.328125 0.859375 0.328125l0.671875 0q1.8125 0 2.84375 1.0625q1.03125 1.0625 1.03125 3.140625l0 1.5zm6.1718445 -12.484375l-0.015625 4.625q0.09375 -0.09375 1.25 -0.09375l1.046875 0q2.015625 0 3.046875 1.0q1.046875 0.984375 1.046875 3.09375l0 8.171875l-2.859375 0l0 -8.625q0 -0.484375 -0.265625 -0.734375q-0.25 -0.265625 -0.75 -0.265625l-1.484375 0q-0.53125 0 -0.765625 0.25q-0.234375 0.234375 -0.25 0.46875l0 8.90625l-2.859375 0l0 -16.796875l2.859375 0zm17.328094 16.796875q-0.40625 0 -0.859375 -0.21875q-0.4375 -0.234375 -0.390625 -0.40625q-0.28125 0.625 -1.390625 0.625l-2.015625 0q-1.890625 0 -2.828125 -0.8125q-0.921875 -0.8125 -0.921875 -2.71875l0 -0.453125q0 -3.96875 3.78125 -3.96875l2.34375 0l0 -0.671875q0 -0.5 -0.28125 -0.75q-0.28125 -0.25 -0.953125 -0.25l-3.984375 0l0 -2.640625l3.75 0q2.171875 0 3.25 1.0q1.078125 0.984375 1.078125 3.09375l0 5.4375q0 0.09375 0.09375 0.15625q0.09375 0.0625 1.03125 0.0625l0 2.515625l-1.703125 0zm-2.859375 -2.640625q0.40625 0 0.484375 -0.140625q0.09375 -0.140625 0.09375 -0.515625l0 -2.03125l-2.375 0q-0.390625 0 -0.640625 0.25q-0.25 0.25 -0.25 0.640625l0 1.140625q0 0.390625 0.125 0.53125q0.140625 0.125 0.546875 0.125l2.015625 0zm9.8905945 -9.625l-0.203125 0.46875q0.28125 -0.46875 1.546875 -0.46875l0.8125 0q2.1875 0 3.25 0.984375q1.078125 0.984375 1.078125 3.109375l0 4.078125q0 2.109375 -1.09375 3.109375q-1.078125 0.984375 -3.234375 0.984375l-2.046875 0l0 3.84375l-2.859375 0l0 -16.109375l2.75 0zm1.125 2.640625q-0.546875 0 -0.78125 0.265625q-0.234375 0.25 -0.234375 0.515625l0 6.203125l2.28125 0q0.65625 0 0.9375 -0.25q0.296875 -0.265625 0.296875 -0.75l0 -4.984375q0 -0.484375 -0.296875 -0.734375q-0.28125 -0.265625 -0.9375 -0.265625l-1.265625 0zm14.515564 -7.171875l0 2.984375l-3.0937195 0l0 -2.984375l3.0937195 0zm-6.3124695 7.171875l0 -2.640625l6.1874695 0l0 9.625l3.359375 0l0 2.640625l-6.2187195 0l0 -9.625l-3.328125 0zm15.140564 -2.640625l-0.203125 0.46875q0.28125 -0.46875 1.546875 -0.46875l1.046875 0q2.015625 0 3.046875 1.0q1.046875 0.984375 1.046875 3.09375l0 8.171875l-2.859375 0l0 -8.625q0 -0.484375 -0.265625 -0.734375q-0.25 -0.265625 -0.75 -0.265625l-1.484375 0q-0.546875 0 -0.78125 0.265625q-0.234375 0.25 -0.234375 0.515625l0 8.84375l-2.859375 0l0 -12.265625l2.75 0zm19.03122 12.59375q0 1.75 -1.0625 2.625q-1.0625 0.890625 -3.1875 0.890625l-5.1875 0l0 -2.625l5.40625 0q0.671875 0 0.921875 -0.203125q0.25 -0.203125 0.25 -0.46875l0 -0.71875q0 -0.28125 -0.25 -0.46875q-0.25 -0.203125 -0.921875 -0.203125l-4.375 0l0 -3.3125q-0.640625 -0.34375 -1.0625 -1.21875q-0.421875 -0.890625 -0.421875 -2.234375l0 -0.5625q0 -2.109375 1.078125 -3.09375q1.09375 -1.0 3.25 -1.0l5.21875 0l0 4.65625q0 1.890625 -1.0625 3.0q-1.0625 1.09375 -2.796875 1.09375l-1.34375 0l0 0.046875l1.296875 0q2.125 0 3.1875 0.890625q1.0625 0.875 1.0625 2.625l0 0.28125zm-4.203125 -6.46875q0.484375 0 0.71875 -0.3125q0.25 -0.3125 0.28125 -0.640625l0 -2.53125l-2.59375 0q-0.65625 0 -0.9375 0.25q-0.28125 0.25 -0.28125 0.75l0 1.46875q0 0.5 0.28125 0.765625q0.296875 0.25 0.9375 0.25l1.59375 0z" fill-rule="nonzero"/><path fill="#000000" fill-opacity="0.0" d="m-3.3727038 47.867126l207.37009 0l0 40.409447l-207.37009 0z" fill-rule="evenodd"/><path fill="#ffffff" d="m165.52614 73.507126l0 -12.40625l4.265625 0q1.453125 0 2.203125 0.1875q1.078125 0.234375 1.828125 0.875q0.984375 0.828125 1.46875 2.125q0.484375 1.296875 0.484375 2.953125q0 1.40625 -0.328125 2.5q-0.328125 1.09375 -0.84375 1.8125q-0.515625 0.703125 -1.140625 1.125q-0.609375 0.40625 -1.484375 0.625q-0.859375 0.203125 -1.984375 0.203125l-4.46875 0zm1.640625 -1.46875l2.640625 0q1.234375 0 1.921875 -0.21875q0.703125 -0.234375 1.125 -0.640625q0.578125 -0.59375 0.90625 -1.578125q0.328125 -0.984375 0.328125 -2.390625q0 -1.9375 -0.640625 -2.984375q-0.640625 -1.046875 -1.5625 -1.40625q-0.65625 -0.25 -2.125 -0.25l-2.59375 0l0 9.46875zm16.826324 -1.421875l1.5625 0.1875q-0.359375 1.390625 -1.375 2.15625q-1.0 0.75 -2.5625 0.75q-1.984375 0 -3.140625 -1.203125q-1.140625 -1.21875 -1.140625 -3.421875q0 -2.265625 1.15625 -3.515625q1.171875 -1.25 3.03125 -1.25q1.8125 0 2.953125 1.234375q1.140625 1.21875 1.140625 3.4375q0 0.140625 -0.015625 0.40625l-6.703125 0q0.09375 1.484375 0.84375 2.28125q0.75 0.78125 1.875 0.78125q0.84375 0 1.4375 -0.4375q0.59375 -0.4375 0.9375 -1.40625zm-5.0 -2.46875l5.015625 0q-0.109375 -1.125 -0.578125 -1.703125q-0.734375 -0.875 -1.890625 -0.875q-1.046875 0 -1.765625 0.703125q-0.703125 0.703125 -0.78125 1.875zm10.980835 5.359375l-3.421875 -8.984375l1.609375 0l1.921875 5.375q0.3125 0.875 0.578125 1.8125q0.203125 -0.703125 0.578125 -1.703125l1.984375 -5.484375l1.578125 0l-3.40625 8.984375l-1.421875 0z" fill-rule="nonzero"/><path fill="#000000" fill-opacity="0.0" d="m-3.3727038 173.4789l207.37009 0l0 40.40944l-207.37009 0z" fill-rule="evenodd"/><path fill="#ffffff" d="m12.373512 199.1189l0 -12.40625l4.671875 0q1.234375 0 1.890625 0.125q0.90625 0.140625 1.515625 0.578125q0.625 0.421875 1.0 1.203125q0.390625 0.765625 0.390625 1.6875q0 1.578125 -1.015625 2.671875q-1.0 1.09375 -3.640625 1.09375l-3.171875 0l0 5.046875l-1.640625 0zm1.640625 -6.5l3.203125 0q1.59375 0 2.25 -0.59375q0.671875 -0.59375 0.671875 -1.671875q0 -0.78125 -0.390625 -1.328125q-0.390625 -0.5625 -1.03125 -0.734375q-0.421875 -0.109375 -1.53125 -0.109375l-3.171875 0l0 4.4375zm9.698349 6.5l0 -8.984375l1.375 0l0 1.359375q0.515625 -0.953125 0.953125 -1.25q0.453125 -0.3125 0.984375 -0.3125q0.78125 0 1.5625 0.484375l-0.515625 1.421875q-0.5625 -0.328125 -1.125 -0.328125q-0.5 0 -0.890625 0.296875q-0.390625 0.296875 -0.5625 0.828125q-0.265625 0.8125 -0.265625 1.78125l0 4.703125l-1.515625 0zm5.223526 -4.5q0 -2.484375 1.390625 -3.6875q1.15625 -1.0 2.8125 -1.0q1.859375 0 3.03125 1.21875q1.1875 1.203125 1.1875 3.34375q0 1.734375 -0.53125 2.734375q-0.515625 1.0 -1.515625 1.546875q-0.984375 0.546875 -2.171875 0.546875q-1.875 0 -3.046875 -1.203125q-1.15625 -1.21875 -1.15625 -3.5zm1.5625 0q0 1.734375 0.75 2.59375q0.75 0.859375 1.890625 0.859375q1.140625 0 1.890625 -0.859375q0.75 -0.875 0.75 -2.640625q0 -1.65625 -0.75 -2.515625q-0.75 -0.859375 -1.890625 -0.859375q-1.140625 0 -1.890625 0.859375q-0.75 0.84375 -0.75 2.5625zm14.46521 4.5l0 -1.140625q-0.84375 1.34375 -2.515625 1.34375q-1.0625 0 -1.96875 -0.59375q-0.90625 -0.59375 -1.40625 -1.65625q-0.484375 -1.0625 -0.484375 -2.4375q0 -1.34375 0.4375 -2.4375q0.453125 -1.09375 1.34375 -1.671875q0.90625 -0.59375 2.015625 -0.59375q0.8125 0 1.4375 0.34375q0.640625 0.34375 1.046875 0.890625l0 -4.453125l1.515625 0l0 12.40625l-1.421875 0zm-4.8125 -4.484375q0 1.71875 0.71875 2.578125q0.734375 0.859375 1.734375 0.859375q0.984375 0 1.6875 -0.8125q0.703125 -0.828125 0.703125 -2.5q0 -1.84375 -0.71875 -2.703125q-0.703125 -0.859375 -1.75 -0.859375q-1.015625 0 -1.703125 0.828125q-0.671875 0.828125 -0.671875 2.609375zm14.512085 4.484375l0 -1.3125q-1.046875 1.515625 -2.84375 1.515625q-0.796875 0 -1.5 -0.296875q-0.6875 -0.3125 -1.015625 -0.765625q-0.328125 -0.46875 -0.46875 -1.140625q-0.09375 -0.4375 -0.09375 -1.421875l0 -5.5625l1.515625 0l0 4.984375q0 1.1875 0.09375 1.609375q0.15625 0.59375 0.609375 0.9375q0.46875 0.34375 1.15625 0.34375q0.6875 0 1.28125 -0.34375q0.609375 -0.359375 0.859375 -0.953125q0.25 -0.609375 0.25 -1.765625l0 -4.8125l1.515625 0l0 8.984375l-1.359375 0zm9.605835 -3.296875l1.5 0.203125q-0.234375 1.546875 -1.25 2.421875q-1.015625 0.875 -2.484375 0.875q-1.84375 0 -2.96875 -1.203125q-1.125 -1.203125 -1.125 -3.453125q0 -1.46875 0.484375 -2.546875q0.484375 -1.09375 1.46875 -1.640625q0.984375 -0.546875 2.140625 -0.546875q1.46875 0 2.390625 0.75q0.9375 0.734375 1.203125 2.09375l-1.484375 0.21875q-0.203125 -0.890625 -0.75 -1.34375q-0.53125 -0.46875 -1.296875 -0.46875q-1.140625 0 -1.875 0.828125q-0.71875 0.828125 -0.71875 2.609375q0 1.8125 0.6875 2.640625q0.703125 0.8125 1.828125 0.8125q0.890625 0 1.484375 -0.546875q0.609375 -0.5625 0.765625 -1.703125zm6.1328125 1.9375l0.21875 1.34375q-0.640625 0.140625 -1.15625 0.140625q-0.828125 0 -1.28125 -0.265625q-0.453125 -0.265625 -0.640625 -0.6875q-0.1875 -0.4375 -0.1875 -1.796875l0 -5.171875l-1.125 0l0 -1.1875l1.125 0l0 -2.21875l1.515625 -0.921875l0 3.140625l1.53125 0l0 1.1875l-1.53125 0l0 5.25q0 0.65625 0.078125 0.84375q0.078125 0.1875 0.25 0.296875q0.1875 0.109375 0.53125 0.109375q0.25 0 0.671875 -0.0625zm9.503632 -0.640625l0 -3.40625l-3.375 0l0 -1.421875l3.375 0l0 -3.375l1.4375 0l0 3.375l3.375 0l0 1.421875l-3.375 0l0 3.40625l-1.4375 0zm11.93367 2.0l0 -12.40625l4.265625 0q1.453125 0 2.203125 0.1875q1.078125 0.234375 1.828125 0.875q0.984375 0.828125 1.46875 2.125q0.484375 1.296875 0.484375 2.953125q0 1.40625 -0.328125 2.5q-0.328125 1.09375 -0.84375 1.8125q-0.515625 0.703125 -1.140625 1.125q-0.609375 0.40625 -1.484375 0.625q-0.859375 0.203125 -1.984375 0.203125l-4.46875 0zm1.640625 -1.46875l2.640625 0q1.234375 0 1.921875 -0.21875q0.703125 -0.234375 1.125 -0.640625q0.578125 -0.59375 0.90625 -1.578125q0.328125 -0.984375 0.328125 -2.390625q0 -1.9375 -0.640625 -2.984375q-0.640625 -1.046875 -1.5625 -1.40625q-0.65625 -0.25 -2.125 -0.25l-2.59375 0l0 9.46875zm16.826324 -1.421875l1.5625 0.1875q-0.359375 1.390625 -1.375 2.15625q-1.0 0.75 -2.5625 0.75q-1.984375 0 -3.140625 -1.203125q-1.140625 -1.21875 -1.140625 -3.421875q0 -2.265625 1.15625 -3.515625q1.171875 -1.25 3.03125 -1.25q1.8125 0 2.953125 1.234375q1.140625 1.21875 1.140625 3.4375q0 0.140625 -0.015625 0.40625l-6.703125 0q0.09375 1.484375 0.84375 2.28125q0.75 0.78125 1.875 0.78125q0.84375 0 1.4375 -0.4375q0.59375 -0.4375 0.9375 -1.40625zm-5.0 -2.46875l5.015625 0q-0.109375 -1.125 -0.578125 -1.703125q-0.734375 -0.875 -1.890625 -0.875q-1.046875 0 -1.765625 0.703125q-0.703125 0.703125 -0.78125 1.875zm10.980835 5.359375l-3.421875 -8.984375l1.609375 0l1.921875 5.375q0.3125 0.875 0.578125 1.8125q0.203125 -0.703125 0.578125 -1.703125l1.984375 -5.484375l1.578125 0l-3.40625 8.984375l-1.421875 0zm14.181496 -2.0l0 -3.40625l-3.3749924 0l0 -1.421875l3.3749924 0l0 -3.375l1.4375 0l0 3.375l3.375 0l0 1.421875l-3.375 0l0 3.40625l-1.4375 0zm11.93367 2.0l0 -12.40625l4.265625 0q1.453125 0 2.203125 0.1875q1.078125 0.234375 1.828125 0.875q0.984375 0.828125 1.46875 2.125q0.484375 1.296875 0.484375 2.953125q0 1.40625 -0.328125 2.5q-0.328125 1.09375 -0.84375 1.8125q-0.515625 0.703125 -1.140625 1.125q-0.609375 0.40625 -1.484375 0.625q-0.859375 0.203125 -1.984375 0.203125l-4.46875 0zm1.640625 -1.46875l2.640625 0q1.234375 0 1.921875 -0.21875q0.703125 -0.234375 1.125 -0.640625q0.578125 -0.59375 0.90625 -1.578125q0.328125 -0.984375 0.328125 -2.390625q0 -1.9375 -0.640625 -2.984375q-0.640625 -1.046875 -1.5625 -1.40625q-0.65625 -0.25 -2.125 -0.25l-2.59375 0l0 9.46875zm16.826324 -1.421875l1.5625 0.1875q-0.359375 1.390625 -1.375 2.15625q-1.0 0.75 -2.5625 0.75q-1.984375 0 -3.140625 -1.203125q-1.140625 -1.21875 -1.140625 -3.421875q0 -2.265625 1.15625 -3.515625q1.171875 -1.25 3.03125 -1.25q1.8125 0 2.953125 1.234375q1.140625 1.21875 1.140625 3.4375q0 0.140625 -0.015625 0.40625l-6.703125 0q0.09375 1.484375 0.84375 2.28125q0.75 0.78125 1.875 0.78125q0.84375 0 1.4375 -0.4375q0.59375 -0.4375 0.9375 -1.40625zm-5.0 -2.46875l5.015625 0q-0.109375 -1.125 -0.578125 -1.703125q-0.734375 -0.875 -1.890625 -0.875q-1.046875 0 -1.765625 0.703125q-0.703125 0.703125 -0.78125 1.875zm7.87146 2.671875l1.515625 -0.234375q0.125 0.90625 0.703125 1.390625q0.578125 0.484375 1.609375 0.484375q1.0625 0 1.5625 -0.421875q0.515625 -0.4375 0.515625 -1.015625q0 -0.515625 -0.453125 -0.8125q-0.3125 -0.203125 -1.5625 -0.515625q-1.671875 -0.421875 -2.328125 -0.71875q-0.640625 -0.3125 -0.984375 -0.859375q-0.328125 -0.546875 -0.328125 -1.203125q0 -0.609375 0.28125 -1.109375q0.28125 -0.515625 0.75 -0.859375q0.359375 -0.265625 0.96875 -0.4375q0.609375 -0.1875 1.3125 -0.1875q1.0625 0 1.859375 0.3125q0.796875 0.296875 1.171875 0.828125q0.390625 0.515625 0.53125 1.375l-1.484375 0.203125q-0.109375 -0.6875 -0.59375 -1.078125q-0.484375 -0.390625 -1.375 -0.390625q-1.046875 0 -1.5 0.34375q-0.4375 0.34375 -0.4375 0.8125q0 0.296875 0.171875 0.53125q0.1875 0.25 0.59375 0.40625q0.21875 0.09375 1.34375 0.390625q1.609375 0.4375 2.25 0.71875q0.640625 0.265625 1.0 0.796875q0.375 0.515625 0.375 1.296875q0 0.765625 -0.453125 1.4375q-0.4375 0.671875 -1.28125 1.046875q-0.828125 0.359375 -1.890625 0.359375q-1.75 0 -2.671875 -0.71875q-0.921875 -0.734375 -1.171875 -2.171875zm9.2890625 -7.96875l0 -1.75l1.515625 0l0 1.75l-1.515625 0zm0 10.65625l0 -8.984375l1.515625 0l0 8.984375l-1.515625 0zm3.552887 0.75l1.484375 0.21875q0.09375 0.6875 0.515625 1.0q0.5625 0.421875 1.546875 0.421875q1.0625 0 1.625 -0.421875q0.578125 -0.421875 0.78125 -1.1875q0.125 -0.46875 0.109375 -1.953125q-0.984375 1.171875 -2.484375 1.171875q-1.84375 0 -2.859375 -1.328125q-1.015625 -1.34375 -1.015625 -3.21875q0 -1.28125 0.453125 -2.359375q0.46875 -1.09375 1.34375 -1.6875q0.890625 -0.59375 2.09375 -0.59375q1.59375 0 2.625 1.28125l0 -1.078125l1.40625 0l0 7.765625q0 2.09375 -0.4375 2.96875q-0.421875 0.875 -1.359375 1.375q-0.921875 0.515625 -2.265625 0.515625q-1.609375 0 -2.609375 -0.71875q-0.984375 -0.71875 -0.953125 -2.171875zm1.265625 -5.40625q0 1.765625 0.703125 2.578125q0.703125 0.8125 1.75 0.8125q1.0625 0 1.765625 -0.796875q0.71875 -0.8125 0.71875 -2.546875q0 -1.640625 -0.734375 -2.46875q-0.734375 -0.84375 -1.765625 -0.84375q-1.015625 0 -1.734375 0.828125q-0.703125 0.8125 -0.703125 2.4375zm8.65271 4.65625l0 -8.984375l1.375 0l0 1.28125q0.984375 -1.484375 2.859375 -1.484375q0.8125 0 1.484375 0.296875q0.6875 0.28125 1.015625 0.765625q0.34375 0.46875 0.484375 1.125q0.078125 0.421875 0.078125 1.46875l0 5.53125l-1.515625 0l0 -5.46875q0 -0.921875 -0.1875 -1.375q-0.171875 -0.46875 -0.625 -0.75q-0.453125 -0.28125 -1.0625 -0.28125q-0.96875 0 -1.671875 0.625q-0.703125 0.609375 -0.703125 2.34375l0 4.90625l-1.53125 0z" fill-rule="nonzero"/><path fill="#0097a7" d="m218.2102 33.454067l521.6063 0l40.440918 40.440945l-40.440918 40.44095l-521.6063 0l40.44095 -40.44095z" fill-rule="evenodd"/><path stroke="#000000" stroke-width="1.0" stroke-linejoin="round" stroke-linecap="butt" d="m218.2102 33.454067l521.6063 0l40.440918 40.440945l-40.440918 40.44095l-521.6063 0l40.44095 -40.44095z" fill-rule="evenodd"/><path fill="#000000" d="m424.2106 75.592514l0 6.5625l-2.921875 0l0 -16.796875l4.734375 0q2.09375 0 3.21875 0.984375q1.140625 0.96875 1.140625 3.015625l0 2.171875q0 2.90625 -1.859375 3.484375l3.25 7.140625l-3.1875 0l-2.921875 -6.5625l-1.453125 0zm3.265625 -6.4375q0 -0.65625 -0.25 -0.90625q-0.25 -0.25 -0.9375 -0.25l-2.078125 0l0 4.953125l2.078125 0q0.671875 0 0.921875 -0.25q0.265625 -0.265625 0.265625 -0.9375l0 -2.609375zm10.9218445 13.0q-2.1875 0 -3.265625 -0.984375q-1.0625 -0.984375 -1.0625 -3.109375l0 -4.078125q0 -2.15625 0.984375 -3.125q0.984375 -0.96875 3.109375 -0.96875l1.0625 0q1.8125 0 2.765625 1.046875q0.96875 1.03125 0.96875 2.9375l0 3.40625l-6.015625 0l0 1.234375q0 0.5 0.28125 0.75q0.28125 0.25 0.9375 0.25l4.078125 0l0 2.640625l-3.84375 0zm1.75 -8.734375q0 -0.40625 -0.25 -0.640625q-0.234375 -0.25 -0.640625 -0.25l-1.3125 0q-0.59375 0 -0.796875 0.234375q-0.203125 0.21875 -0.203125 0.765625l0 1.125l3.203125 0l0 -1.234375zm13.9530945 8.734375q-0.40625 0 -0.859375 -0.21875q-0.4375 -0.234375 -0.390625 -0.40625q-0.28125 0.625 -1.390625 0.625l-2.015625 0q-1.890625 0 -2.828125 -0.8125q-0.921875 -0.8125 -0.921875 -2.71875l0 -0.453125q0 -3.96875 3.78125 -3.96875l2.34375 0l0 -0.671875q0 -0.5 -0.28125 -0.75q-0.28125 -0.25 -0.953125 -0.25l-3.984375 0l0 -2.640625l3.75 0q2.171875 0 3.25 1.0q1.078125 0.984375 1.078125 3.09375l0 5.4375q0 0.09375 0.09375 0.15625q0.09375 0.0625 1.03125 0.0625l0 2.515625l-1.703125 0zm-2.859375 -2.640625q0.40625 0 0.484375 -0.140625q0.09375 -0.140625 0.09375 -0.515625l0 -2.03125l-2.375 0q-0.390625 0 -0.640625 0.25q-0.25 0.25 -0.25 0.640625l0 1.140625q0 0.390625 0.125 0.53125q0.140625 0.125 0.546875 0.125l2.015625 0zm12.2030945 2.640625q-2.171875 0 -3.25 -0.984375q-1.0625 -0.984375 -1.0625 -3.109375l0 -4.078125q0 -2.109375 1.078125 -3.09375q1.078125 -1.0 3.234375 -1.0l3.40625 0l0 2.640625l-3.625 0q-0.671875 0 -0.953125 0.25q-0.28125 0.25 -0.28125 0.75l0 4.984375q0 0.5 0.28125 0.75q0.28125 0.25 0.953125 0.25l3.625 0l0 2.640625l-3.40625 0zm12.6249695 0q-1.375 0 -2.109375 -0.890625q-0.734375 -0.90625 -0.734375 -2.296875l0 -6.4375l-2.15625 0l0 -2.640625l2.15625 0l0 -2.71875l2.859375 0l0 2.71875l3.3125 0l0 2.640625l-3.3125 0l0 6.546875q0 0.28125 0.09375 0.359375q0.109375 0.078125 0.453125 0.078125l2.765625 0l0 2.640625l-3.328125 0zm12.9374695 -16.796875l0 2.984375l-3.09375 0l0 -2.984375l3.09375 0zm-6.3125 7.171875l0 -2.640625l6.1875 0l0 9.625l3.359375 0l0 2.640625l-6.21875 0l0 -9.625l-3.328125 0zm11.7187195 -2.640625l3.0625 0l2.296875 8.421875l2.21875 -8.421875l3.0 0l-3.53125 12.265625l-3.5 0l-3.546875 -12.265625zm17.390594 12.265625q-2.1875 0 -3.265625 -0.984375q-1.0625 -0.984375 -1.0625 -3.109375l0 -4.078125q0 -2.15625 0.984375 -3.125q0.984375 -0.96875 3.109375 -0.96875l1.0625 0q1.8125 0 2.765625 1.046875q0.96875 1.03125 0.96875 2.9375l0 3.40625l-6.015625 0l0 1.234375q0 0.5 0.28125 0.75q0.28125 0.25 0.9375 0.25l4.078125 0l0 2.640625l-3.84375 0zm1.75 -8.734375q0 -0.40625 -0.25 -0.640625q-0.234375 -0.25 -0.640625 -0.25l-1.3125 0q-0.59375 0 -0.796875 0.234375q-0.203125 0.21875 -0.203125 0.765625l0 1.125l3.203125 0l0 -1.234375zm22.781189 4.09375l-1.03125 4.640625l-3.546875 0l-0.796875 -16.796875l2.609375 0l0.234375 14.625l1.515625 -7.9375l2.125 0l1.5625 7.9375l0.25 -14.625l2.5 0l-0.796875 16.796875l-3.703125 0l-0.921875 -4.640625zm16.984375 0.546875q0 2.109375 -1.078125 3.109375q-1.078125 0.984375 -3.234375 0.984375l-0.75 0q-2.15625 0 -3.25 -0.984375q-1.078125 -1.0 -1.078125 -3.109375l0 -4.078125q0 -2.109375 1.078125 -3.09375q1.09375 -1.0 3.25 -1.0l0.75 0q2.15625 0 3.234375 1.0q1.078125 0.984375 1.078125 3.09375l0 4.078125zm-2.859375 -4.53125q0 -0.5 -0.28125 -0.75q-0.28125 -0.25 -0.953125 -0.25l-1.203125 0q-0.65625 0 -0.9375 0.25q-0.28125 0.25 -0.28125 0.75l0 4.984375q0 0.5 0.28125 0.75q0.28125 0.25 0.9375 0.25l1.203125 0q0.671875 0 0.953125 -0.25q0.28125 -0.25 0.28125 -0.75l0 -4.984375zm7.749939 5.984375l0 -6.984375l-1.65625 0l0 -2.640625l4.40625 0l-0.171875 0.46875q0.28125 -0.46875 1.515625 -0.46875l2.796875 0l0 2.75l-3.03125 0q-0.484375 0 -0.734375 0.3125q-0.25 0.3125 -0.265625 0.640625l0 5.921875l2.46875 0l0 2.640625l-6.984375 0l0 -2.640625l1.65625 0zm13.34375 -2.5l0 5.140625l-2.859375 0l0 -16.796875l2.859375 0l0 7.796875l2.875 -3.265625l3.671875 0l-4.390625 4.984375l4.53125 7.28125l-3.5 0l-3.125 -5.203125l-0.0625 0.0625z" fill-rule="nonzero"/><path fill="#000000" fill-opacity="0.0" d="m218.20976 242.45706l230.80315 0l0 40.409454l-230.80315 0z" fill-rule="evenodd"/><path fill="#ffffff" d="m319.24652 268.09705l4.796875 -6.46875l-4.234375 -5.9374847l1.953125 0l2.25 3.1874847q0.703125 0.984375 1.0 1.515625q0.421875 -0.671875 0.984375 -1.40625l2.5 -3.2968597l1.78125 0l-4.359375 5.8437347l4.703125 6.5625l-2.03125 0l-3.125 -4.421875q-0.265625 -0.390625 -0.546875 -0.828125q-0.40625 0.671875 -0.59375 0.921875l-3.109375 4.328125l-1.96875 0zm19.09079 0l-2.75 -8.984375l1.578125 0l1.421875 5.1875l0.546875 1.921875q0.03125 -0.140625 0.453125 -1.84375l1.4375 -5.265625l1.5625 0l1.34375 5.203125l0.453125 1.71875l0.515625 -1.734375l1.5312805 -5.1875l1.484375 0l-2.8125305 8.984375l-1.578125 0l-1.421875 -5.375l-0.359375 -1.53125l-1.8125 6.90625l-1.59375 0z" fill-rule="nonzero"/></g></svg>