<svg version="1.1" viewBox="0.0 0.0 933.0734908136483 239.5564304461942" fill="none" stroke="none" stroke-linecap="square" stroke-miterlimit="10" xmlns:xlink="http://www.w3.org/1999/xlink" xmlns="http://www.w3.org/2000/svg"><clipPath id="p.0"><path d="m0 0l933.0735 0l0 239.55643l-933.0735 0l0 -239.55643z" clip-rule="nonzero"/></clipPath><g clip-path="url(#p.0)"><path fill="#000000" fill-opacity="0.0" d="m0 0l933.0735 0l0 239.55643l-933.0735 0z" fill-rule="evenodd"/><path fill="#1e1e1e" d="m-7.0052357 -10.805634l957.0079 0l0 266.80316l-957.0079 0z" fill-rule="evenodd"/><path fill="#ead1dc" d="m9.131233 9.383203l126.48818 0l0 220.7874l-126.48818 0z" fill-rule="evenodd"/><path fill="#000000" d="m34.680122 125.44315l0 -11.609375l-2.046875 0l0 -2.59375l6.984375 0l0 2.59375l-2.03125 0l0 11.609375l2.03125 0l0 2.5937576l-6.984375 0l0 -2.5937576l2.046875 0zm11.8280945 -9.671875l-0.203125 0.46875q0.28125 -0.46875 1.546875 -0.46875l1.046875 0q2.015625 0 3.046875 1.0q1.046875 0.984375 1.046875 3.09375l0 8.171883l-2.859375 0l0 -8.625008q0 -0.484375 -0.265625 -0.734375q-0.25 -0.265625 -0.75 -0.265625l-1.484375 0q-0.546875 0 -0.78125 0.265625q-0.234375 0.25 -0.234375 0.515625l0 8.843758l-2.859375 0l0 -12.265633l2.75 0zm18.015594 8.96875q0 1.640625 -1.03125 2.46875q-1.015625 0.8281326 -2.84375 0.8281326l-3.84375 0l0 -2.6406326l4.078125 0q0.4375 0 0.609375 -0.125q0.171875 -0.140625 0.171875 -0.421875l0 -1.203125q0 -0.546875 -0.515625 -0.546875l-0.828125 0q-1.765625 0 -2.703125 -0.828125q-0.921875 -0.828125 -0.921875 -2.515625l0 -0.65625q0 -1.75 1.015625 -2.53125q1.015625 -0.796875 2.859375 -0.796875l3.5 0l0 2.640625l-3.734375 0q-0.40625 0 -0.59375 0.140625q-0.1875 0.140625 -0.1875 0.40625l0 0.8125q0 0.3125 0.140625 0.4375q0.15625 0.109375 0.484375 0.109375l0.765625 0q1.703125 0 2.640625 0.875q0.9375 0.875 0.9375 2.53125l0 1.015625zm6.4530945 -8.96875l-0.203125 0.46875q0.28125 -0.46875 1.546875 -0.46875l0.8125 0q2.1875 0 3.25 0.984375q1.078125 0.984375 1.078125 3.109375l0 4.078125q0 2.109375 -1.09375 3.109375q-1.078125 0.9843826 -3.234375 0.9843826l-2.046875 0l0 3.84375l-2.859375 0l0 -16.109383l2.75 0zm1.125 2.640625q-0.546875 0 -0.78125 0.265625q-0.234375 0.25 -0.234375 0.515625l0 6.203125l2.28125 0q0.65625 0 0.9375 -0.25q0.296875 -0.265625 0.296875 -0.75l0 -4.984375q0 -0.484375 -0.296875 -0.734375q-0.28125 -0.265625 -0.9375 -0.265625l-1.265625 0zm14.5155945 -7.171875l0 2.984375l-3.09375 0l0 -2.984375l3.09375 0zm-6.3125 7.171875l0 -2.640625l6.1875 0l0 9.625l3.359375 0l0 2.6406326l-6.21875 0l0 -9.625008l-3.328125 0zm14.3437195 6.984375l0 -6.984375l-1.65625 0l0 -2.640625l4.40625 0l-0.171875 0.46875q0.28125 -0.46875 1.515625 -0.46875l2.796875 0l0 2.75l-3.03125 0q-0.484375 0 -0.734375 0.3125q-0.25 0.3125 -0.265625 0.640625l0 5.921875l2.46875 0l0 2.6406326l-6.984375 0l0 -2.6406326l1.65625 0zm14.7655945 2.6406326q-2.1875 0 -3.265625 -0.9843826q-1.0625 -0.984375 -1.0625 -3.109375l0 -4.078125q0 -2.15625 0.984375 -3.125q0.984375 -0.96875 3.109375 -0.96875l1.0625 0q1.8125 0 2.765625 1.046875q0.96875 1.03125 0.96875 2.9375l0 3.40625l-6.015625 0l0 1.234375q0 0.5 0.28125 0.75q0.28125 0.25 0.9375 0.25l4.078125 0l0 2.6406326l-3.84375 0zm1.75 -8.734383q0 -0.40625 -0.25 -0.640625q-0.234375 -0.25 -0.640625 -0.25l-1.3125 0q-0.59375 0 -0.796875 0.234375q-0.203125 0.21875 -0.203125 0.765625l0 1.125l3.203125 0l0 -1.234375z" fill-rule="nonzero"/><path fill="#cfe2f3" d="m299.65494 9.383203l293.66928 0l0 60.125984l-293.66928 0z" fill-rule="evenodd"/><path fill="#000000" d="m395.6616 37.971817l0 2.59375l-5.03125 0l0 7.140625l-2.90625 0l0 -16.796875l8.5 0l0 2.59375l-5.59375 0l0 4.46875l5.03125 0zm11.8124695 9.734375q-0.40625 0 -0.859375 -0.21875q-0.4375 -0.234375 -0.390625 -0.40625q-0.28125 0.625 -1.390625 0.625l-2.015625 0q-1.890625 0 -2.828125 -0.8125q-0.921875 -0.8125 -0.921875 -2.71875l0 -0.453125q0 -3.96875 3.78125 -3.96875l2.34375 0l0 -0.671875q0 -0.5 -0.28125 -0.75q-0.28125 -0.25 -0.953125 -0.25l-3.984375 0l0 -2.640625l3.75 0q2.171875 0 3.25 1.0q1.078125 0.984375 1.078125 3.09375l0 5.4375q0 0.09375 0.09375 0.15625q0.09375 0.0625 1.03125 0.0625l0 2.515625l-1.703125 0zm-2.859375 -2.640625q0.40625 0 0.484375 -0.140625q0.09375 -0.140625 0.09375 -0.515625l0 -2.03125l-2.375 0q-0.390625 0 -0.640625 0.25q-0.25 0.25 -0.25 0.640625l0 1.140625q0 0.390625 0.125 0.53125q0.140625 0.125 0.546875 0.125l2.015625 0zm12.2030945 2.640625q-2.171875 0 -3.25 -0.984375q-1.0625 -0.984375 -1.0625 -3.109375l0 -4.078125q0 -2.109375 1.078125 -3.09375q1.078125 -1.0 3.234375 -1.0l3.40625 0l0 2.640625l-3.625 0q-0.671875 0 -0.953125 0.25q-0.28125 0.25 -0.28125 0.75l0 4.984375q0 0.5 0.28125 0.75q0.28125 0.25 0.953125 0.25l3.625 0l0 2.640625l-3.40625 0zm13.3280945 -16.796875l0 2.984375l-3.09375 0l0 -2.984375l3.09375 0zm-6.3125 7.171875l0 -2.640625l6.1875 0l0 9.625l3.359375 0l0 2.640625l-6.21875 0l0 -9.625l-3.328125 0zm17.734344 9.625q-0.953125 0 -1.671875 -0.671875q-0.71875 -0.6875 -0.71875 -2.0625l0 -11.421875l-3.34375 0l0 -2.640625l6.203125 0l0 13.953125q0 0.140625 0.03125 0.171875q0.03125 0.03125 0.296875 0.03125l3.46875 0l0 2.640625l-4.265625 0zm13.0468445 -16.796875l0 2.984375l-3.09375 0l0 -2.984375l3.09375 0zm-6.3125 7.171875l0 -2.640625l6.1875 0l0 9.625l3.359375 0l0 2.640625l-6.21875 0l0 -9.625l-3.328125 0zm17.84372 9.625q-1.375 0 -2.109375 -0.890625q-0.734375 -0.90625 -0.734375 -2.296875l0 -6.4375l-2.15625 0l0 -2.640625l2.15625 0l0 -2.71875l2.859375 0l0 2.71875l3.3125 0l0 2.640625l-3.3125 0l0 6.546875q0 0.28125 0.09375 0.359375q0.109375 0.078125 0.453125 0.078125l2.765625 0l0 2.640625l-3.328125 0zm14.7343445 0q-0.40625 0 -0.859375 -0.21875q-0.4375 -0.234375 -0.390625 -0.40625q-0.28125 0.625 -1.390625 0.625l-2.015625 0q-1.890625 0 -2.828125 -0.8125q-0.921875 -0.8125 -0.921875 -2.71875l0 -0.453125q0 -3.96875 3.78125 -3.96875l2.34375 0l0 -0.671875q0 -0.5 -0.28125 -0.75q-0.28125 -0.25 -0.953125 -0.25l-3.984375 0l0 -2.640625l3.75 0q2.171875 0 3.25 1.0q1.078125 0.984375 1.078125 3.09375l0 5.4375q0 0.09375 0.09375 0.15625q0.09375 0.0625 1.03125 0.0625l0 2.515625l-1.703125 0zm-2.859375 -2.640625q0.40625 0 0.484375 -0.140625q0.09375 -0.140625 0.09375 -0.515625l0 -2.03125l-2.375 0q-0.390625 0 -0.640625 0.25q-0.25 0.25 -0.25 0.640625l0 1.140625q0 0.390625 0.125 0.53125q0.140625 0.125 0.546875 0.125l2.015625 0zm12.5937195 2.640625q-1.375 0 -2.109375 -0.890625q-0.734375 -0.90625 -0.734375 -2.296875l0 -6.4375l-2.15625 0l0 -2.640625l2.15625 0l0 -2.71875l2.859375 0l0 2.71875l3.3125 0l0 2.640625l-3.3125 0l0 6.546875q0 0.28125 0.09375 0.359375q0.109375 0.078125 0.453125 0.078125l2.765625 0l0 2.640625l-3.328125 0zm11.2655945 0q-2.1875 0 -3.265625 -0.984375q-1.0625 -0.984375 -1.0625 -3.109375l0 -4.078125q0 -2.15625 0.984375 -3.125q0.984375 -0.96875 3.109375 -0.96875l1.0625 0q1.8125 0 2.765625 1.046875q0.96875 1.03125 0.96875 2.9375l0 3.40625l-6.015625 0l0 1.234375q0 0.5 0.28125 0.75q0.28125 0.25 0.9375 0.25l4.078125 0l0 2.640625l-3.84375 0zm1.75 -8.734375q0 -0.40625 -0.25 -0.640625q-0.234375 -0.25 -0.640625 -0.25l-1.3125 0q-0.59375 0 -0.796875 0.234375q-0.203125 0.21875 -0.203125 0.765625l0 1.125l3.203125 0l0 -1.234375z" fill-rule="nonzero"/><path fill="#d9ead3" d="m150.80708 170.04462l773.13385 0l0 60.12599l-773.13385 0z" fill-rule="evenodd"/><path fill="#000000" d="m371.55414 204.05511q0 2.125 -1.1875 3.21875q-1.1875 1.09375 -3.359375 1.09375l-0.90625 0q-2.15625 0 -3.359375 -1.09375q-1.1875 -1.09375 -1.1875 -3.21875l0 -8.15625q0 -2.140625 1.1875 -3.234375q1.203125 -1.09375 3.359375 -1.09375l0.90625 0q2.171875 0 3.359375 1.09375q1.1875 1.09375 1.1875 3.234375l0 8.15625zm-2.90625 -8.59375q0 -0.5 -0.375 -0.859375q-0.375 -0.375 -1.03125 -0.375l-1.359375 0q-0.65625 0 -1.03125 0.375q-0.375 0.359375 -0.375 0.859375l0 9.015625q0 0.5 0.375 0.875q0.375 0.359375 1.03125 0.359375l1.359375 0q0.65625 0 1.03125 -0.359375q0.375 -0.375 0.375 -0.875l0 -9.015625zm7.4843445 10.265625l0 -6.984375l-1.65625 0l0 -2.640625l4.40625 0l-0.171875 0.46875q0.28125 -0.46875 1.515625 -0.46875l2.796875 0l0 2.75l-3.03125 0q-0.484375 0 -0.734375 0.3125q-0.25 0.3125 -0.265625 0.640625l0 5.921875l2.46875 0l0 2.640625l-6.984375 0l0 -2.640625l1.65625 0zm19.828094 2.96875q0 1.75 -1.0625 2.625q-1.0625 0.890625 -3.1875 0.890625l-5.1875 0l0 -2.625l5.40625 0q0.671875 0 0.921875 -0.203125q0.25 -0.203125 0.25 -0.46875l0 -0.71875q0 -0.28125 -0.25 -0.46875q-0.25 -0.203125 -0.921875 -0.203125l-4.375 0l0 -3.3125q-0.640625 -0.34375 -1.0625 -1.21875q-0.421875 -0.890625 -0.421875 -2.234375l0 -0.5625q0 -2.109375 1.078125 -3.09375q1.09375 -1.0 3.25 -1.0l5.21875 0l0 4.65625q0 1.890625 -1.0625 3.0q-1.0625 1.09375 -2.796875 1.09375l-1.34375 0l0 0.046875l1.296875 0q2.125 0 3.1875 0.890625q1.0625 0.875 1.0625 2.625l0 0.28125zm-4.203125 -6.46875q0.484375 0 0.71875 -0.3125q0.25 -0.3125 0.28125 -0.640625l0 -2.53125l-2.59375 0q-0.65625 0 -0.9375 0.25q-0.28125 0.25 -0.28125 0.75l0 1.46875q0 0.5 0.28125 0.765625q0.296875 0.25 0.9375 0.25l1.59375 0zm14.8437195 6.140625q-0.40625 0 -0.859375 -0.21875q-0.4375 -0.234375 -0.390625 -0.40625q-0.28125 0.625 -1.390625 0.625l-2.015625 0q-1.890625 0 -2.828125 -0.8125q-0.921875 -0.8125 -0.921875 -2.71875l0 -0.453125q0 -3.96875 3.78125 -3.96875l2.34375 0l0 -0.671875q0 -0.5 -0.28125 -0.75q-0.28125 -0.25 -0.953125 -0.25l-3.984375 0l0 -2.640625l3.75 0q2.171875 0 3.25 1.0q1.078125 0.984375 1.078125 3.09375l0 5.4375q0 0.09375 0.09375 0.15625q0.09375 0.0625 1.03125 0.0625l0 2.515625l-1.703125 0zm-2.859375 -2.640625q0.40625 0 0.484375 -0.140625q0.09375 -0.140625 0.09375 -0.515625l0 -2.03125l-2.375 0q-0.390625 0 -0.640625 0.25q-0.25 0.25 -0.25 0.640625l0 1.140625q0 0.390625 0.125 0.53125q0.140625 0.125 0.546875 0.125l2.015625 0zm9.890625 -9.625l-0.203125 0.46875q0.28125 -0.46875 1.546875 -0.46875l1.046875 0q2.015625 0 3.046875 1.0q1.046875 0.984375 1.046875 3.09375l0 8.171875l-2.859375 0l0 -8.625q0 -0.484375 -0.265625 -0.734375q-0.25 -0.265625 -0.75 -0.265625l-1.484375 0q-0.546875 0 -0.78125 0.265625q-0.234375 0.25 -0.234375 0.515625l0 8.84375l-2.859375 0l0 -12.265625l2.75 0zm15.640564 -4.53125l0 2.984375l-3.09375 0l0 -2.984375l3.09375 0zm-6.3125 7.171875l0 -2.640625l6.1875 0l0 9.625l3.359375 0l0 2.640625l-6.21875 0l0 -9.625l-3.328125 0zm20.96875 9.625l-8.140625 0l0 -2.421875l4.890625 -7.234375l-4.4375 0l0 -2.609375l7.90625 0l0 2.625l-4.828125 7.03125l4.609375 0l0 2.609375zm11.609314 0q-0.40625 0 -0.859375 -0.21875q-0.4375 -0.234375 -0.390625 -0.40625q-0.28125 0.625 -1.390625 0.625l-2.015625 0q-1.890625 0 -2.828125 -0.8125q-0.921875 -0.8125 -0.921875 -2.71875l0 -0.453125q0 -3.96875 3.78125 -3.96875l2.34375 0l0 -0.671875q0 -0.5 -0.28125 -0.75q-0.28125 -0.25 -0.953125 -0.25l-3.984375 0l0 -2.640625l3.75 0q2.171875 0 3.25 1.0q1.078125 0.984375 1.078125 3.09375l0 5.4375q0 0.09375 0.09375 0.15625q0.09375 0.0625 1.03125 0.0625l0 2.515625l-1.703125 0zm-2.859375 -2.640625q0.40625 0 0.484375 -0.140625q0.09375 -0.140625 0.09375 -0.515625l0 -2.03125l-2.375 0q-0.390625 0 -0.640625 0.25q-0.25 0.25 -0.25 0.640625l0 1.140625q0 0.390625 0.125 0.53125q0.140625 0.125 0.546875 0.125l2.015625 0zm12.59375 2.640625q-1.375 0 -2.109375 -0.890625q-0.734375 -0.90625 -0.734375 -2.296875l0 -6.4375l-2.15625 0l0 -2.640625l2.15625 0l0 -2.71875l2.859375 0l0 2.71875l3.3125 0l0 2.640625l-3.3125 0l0 6.546875q0 0.28125 0.09375 0.359375q0.109375 0.078125 0.453125 0.078125l2.765625 0l0 2.640625l-3.328125 0zm12.937439 -16.796875l0 2.984375l-3.09375 0l0 -2.984375l3.09375 0zm-6.3125 7.171875l0 -2.640625l6.1875 0l0 9.625l3.359375 0l0 2.640625l-6.21875 0l0 -9.625l-3.328125 0zm21.6875 5.53125q0 2.109375 -1.078125 3.109375q-1.078125 0.984375 -3.234375 0.984375l-0.75 0q-2.15625 0 -3.25 -0.984375q-1.078125 -1.0 -1.078125 -3.109375l0 -4.078125q0 -2.109375 1.078125 -3.09375q1.09375 -1.0 3.25 -1.0l0.75 0q2.15625 0 3.234375 1.0q1.078125 0.984375 1.078125 3.09375l0 4.078125zm-2.859375 -4.53125q0 -0.5 -0.28125 -0.75q-0.28125 -0.25 -0.953125 -0.25l-1.203125 0q-0.65625 0 -0.9375 0.25q-0.28125 0.25 -0.28125 0.75l0 4.984375q0 0.5 0.28125 0.75q0.28125 0.25 0.9375 0.25l1.203125 0q0.671875 0 0.953125 -0.25q0.28125 -0.25 0.28125 -0.75l0 -4.984375zm8.546814 -3.640625l-0.203125 0.46875q0.28125 -0.46875 1.546875 -0.46875l1.046875 0q2.015625 0 3.046875 1.0q1.046875 0.984375 1.046875 3.09375l0 8.171875l-2.859375 0l0 -8.625q0 -0.484375 -0.265625 -0.734375q-0.25 -0.265625 -0.75 -0.265625l-1.484375 0q-0.546875 0 -0.78125 0.265625q-0.234375 0.25 -0.234375 0.515625l0 8.84375l-2.859375 0l0 -12.265625l2.75 0zm17.43747 12.265625q-0.40625 0 -0.859375 -0.21875q-0.4375 -0.234375 -0.390625 -0.40625q-0.28125 0.625 -1.390625 0.625l-2.015625 0q-1.8905945 0 -2.8280945 -0.8125q-0.921875 -0.8125 -0.921875 -2.71875l0 -0.453125q0 -3.96875 3.7812195 -3.96875l2.34375 0l0 -0.671875q0 -0.5 -0.28125 -0.75q-0.28125 -0.25 -0.953125 -0.25l-3.9843445 0l0 -2.640625l3.7499695 0q2.171875 0 3.25 1.0q1.078125 0.984375 1.078125 3.09375l0 5.4375q0 0.09375 0.09375 0.15625q0.09375 0.0625 1.03125 0.0625l0 2.515625l-1.703125 0zm-2.859375 -2.640625q0.40625 0 0.484375 -0.140625q0.09375 -0.140625 0.09375 -0.515625l0 -2.03125l-2.375 0q-0.39059448 0 -0.6405945 0.25q-0.25 0.25 -0.25 0.640625l0 1.140625q0 0.390625 0.125 0.53125q0.140625 0.125 0.546875 0.125l2.0155945 0zm12.484314 2.640625q-0.953125 0 -1.671875 -0.671875q-0.71875 -0.6875 -0.71875 -2.0625l0 -11.421875l-3.34375 0l0 -2.640625l6.203125 0l0 13.953125q0 0.140625 0.03125 0.171875q0.03125 0.03125 0.296875 0.03125l3.46875 0l0 2.640625l-4.265625 0zm24.578064 0q-1.375 0 -2.109375 -0.890625q-0.734375 -0.90625 -0.734375 -2.296875l0 -6.4375l-2.15625 0l0 -2.640625l2.15625 0l0 -2.71875l2.859375 0l0 2.71875l3.3125 0l0 2.640625l-3.3125 0l0 6.546875q0 0.28125 0.09375 0.359375q0.109375 0.078125 0.453125 0.078125l2.765625 0l0 2.640625l-3.328125 0zm8.734375 -2.640625l0 -6.984375l-1.65625 0l0 -2.640625l4.40625 0l-0.171875 0.46875q0.28125 -0.46875 1.515625 -0.46875l2.796875 0l0 2.75l-3.03125 0q-0.484375 0 -0.734375 0.3125q-0.25 0.3125 -0.265625 0.640625l0 5.921875l2.46875 0l0 2.640625l-6.984375 0l0 -2.640625l1.65625 0zm18.234314 2.640625q-0.40625 0 -0.859375 -0.21875q-0.4375 -0.234375 -0.390625 -0.40625q-0.28125 0.625 -1.390625 0.625l-2.015625 0q-1.890625 0 -2.828125 -0.8125q-0.921875 -0.8125 -0.921875 -2.71875l0 -0.453125q0 -3.96875 3.78125 -3.96875l2.34375 0l0 -0.671875q0 -0.5 -0.28125 -0.75q-0.28125 -0.25 -0.953125 -0.25l-3.984375 0l0 -2.640625l3.75 0q2.171875 0 3.25 1.0q1.078125 0.984375 1.078125 3.09375l0 5.4375q0 0.09375 0.09375 0.15625q0.09375 0.0625 1.03125 0.0625l0 2.515625l-1.703125 0zm-2.859375 -2.640625q0.40625 0 0.484375 -0.140625q0.09375 -0.140625 0.09375 -0.515625l0 -2.03125l-2.375 0q-0.390625 0 -0.640625 0.25q-0.25 0.25 -0.25 0.640625l0 1.140625q0 0.390625 0.125 0.53125q0.140625 0.125 0.546875 0.125l2.015625 0zm9.890625 -9.625l-0.203125 0.46875q0.28125 -0.46875 1.546875 -0.46875l1.046875 0q2.015625 0 3.046875 1.0q1.046875 0.984375 1.046875 3.09375l0 8.171875l-2.859375 0l0 -8.625q0 -0.484375 -0.265625 -0.734375q-0.25 -0.265625 -0.75 -0.265625l-1.484375 0q-0.546875 0 -0.78125 0.265625q-0.234375 0.25 -0.234375 0.515625l0 8.84375l-2.859375 0l0 -12.265625l2.75 0zm18.015564 8.96875q0 1.640625 -1.03125 2.46875q-1.015625 0.828125 -2.84375 0.828125l-3.84375 0l0 -2.640625l4.078125 0q0.4375 0 0.609375 -0.125q0.171875 -0.140625 0.171875 -0.421875l0 -1.203125q0 -0.546875 -0.515625 -0.546875l-0.828125 0q-1.765625 0 -2.703125 -0.828125q-0.921875 -0.828125 -0.921875 -2.515625l0 -0.65625q0 -1.75 1.015625 -2.53125q1.015625 -0.796875 2.859375 -0.796875l3.5 0l0 2.640625l-3.734375 0q-0.40625 0 -0.59375 0.140625q-0.1875 0.140625 -0.1875 0.40625l0 0.8125q0 0.3125 0.140625 0.4375q0.15625 0.109375 0.484375 0.109375l0.765625 0q1.703125 0 2.640625 0.875q0.9375 0.875 0.9375 2.53125l0 1.015625zm9.09375 -10.859375q-0.1875 0 -0.265625 0.0625q-0.0625 0.0625 -0.0625 0.140625l0 1.6875l3.640625 0l0 2.640625l-3.640625 0l0 6.984375l2.734375 0l0 2.640625l-7.515625 0l0 -2.640625l1.921875 0l0 -6.984375l-1.921875 0l0 -2.640625l1.921875 0l0 -1.5625q0 -1.34375 0.78125 -2.15625q0.796875 -0.8125 2.046875 -0.8125l3.90625 0l0 2.640625l-3.546875 0zm16.140564 10.0625q0 2.109375 -1.078125 3.109375q-1.078125 0.984375 -3.234375 0.984375l-0.75 0q-2.15625 0 -3.25 -0.984375q-1.078125 -1.0 -1.078125 -3.109375l0 -4.078125q0 -2.109375 1.078125 -3.09375q1.09375 -1.0 3.25 -1.0l0.75 0q2.15625 0 3.234375 1.0q1.078125 0.984375 1.078125 3.09375l0 4.078125zm-2.859375 -4.53125q0 -0.5 -0.28125 -0.75q-0.28125 -0.25 -0.953125 -0.25l-1.203125 0q-0.65625 0 -0.9375 0.25q-0.28125 0.25 -0.28125 0.75l0 4.984375q0 0.5 0.28125 0.75q0.28125 0.25 0.9375 0.25l1.203125 0q0.671875 0 0.953125 -0.25q0.28125 -0.25 0.28125 -0.75l0 -4.984375zm7.75 5.984375l0 -6.984375l-1.65625 0l0 -2.640625l4.40625 0l-0.171875 0.46875q0.28125 -0.46875 1.515625 -0.46875l2.796875 0l0 2.75l-3.03125 0q-0.484375 0 -0.734375 0.3125q-0.25 0.3125 -0.265625 0.640625l0 5.921875l2.46875 0l0 2.640625l-6.984375 0l0 -2.640625l1.65625 0zm11.921814 -9.625l-0.234375 0.46875q0.1875 -0.46875 1.171875 -0.46875l0.140625 0q1.8125 0 2.265625 0.609375q0.5 -0.609375 1.9375 -0.609375l0.140625 0q1.59375 0 2.375 0.84375q0.796875 0.84375 0.796875 2.8125l0 8.609375l-2.75 0l0 -8.625q0 -0.8125 -0.109375 -1.0q-0.09375 -0.1875 -0.5 -0.1875l-0.125 0q-0.40625 0 -0.578125 0.296875q-0.15625 0.296875 -0.1875 0.75l0 8.765625l-2.75 0l0 -8.625q0 -0.8125 -0.125 -1.0q-0.109375 -0.1875 -0.4375 -0.1875l-0.140625 0q-0.421875 0 -0.59375 0.25q-0.171875 0.234375 -0.1875 0.59375l0 8.96875l-2.75 0l0 -12.265625l2.640625 0zm18.546875 12.265625q-0.40625 0 -0.859375 -0.21875q-0.4375 -0.234375 -0.390625 -0.40625q-0.28125 0.625 -1.390625 0.625l-2.015625 0q-1.890625 0 -2.828125 -0.8125q-0.921875 -0.8125 -0.921875 -2.71875l0 -0.453125q0 -3.96875 3.78125 -3.96875l2.34375 0l0 -0.671875q0 -0.5 -0.28125 -0.75q-0.28125 -0.25 -0.953125 -0.25l-3.984375 0l0 -2.640625l3.75 0q2.171875 0 3.25 1.0q1.078125 0.984375 1.078125 3.09375l0 5.4375q0 0.09375 0.09375 0.15625q0.09375 0.0625 1.03125 0.0625l0 2.515625l-1.703125 0zm-2.859375 -2.640625q0.40625 0 0.484375 -0.140625q0.09375 -0.140625 0.09375 -0.515625l0 -2.03125l-2.375 0q-0.390625 0 -0.640625 0.25q-0.25 0.25 -0.25 0.640625l0 1.140625q0 0.390625 0.125 0.53125q0.140625 0.125 0.546875 0.125l2.015625 0zm12.593689 2.640625q-1.375 0 -2.109375 -0.890625q-0.734375 -0.90625 -0.734375 -2.296875l0 -6.4375l-2.15625 0l0 -2.640625l2.15625 0l0 -2.71875l2.859375 0l0 2.71875l3.3125 0l0 2.640625l-3.3125 0l0 6.546875q0 0.28125 0.09375 0.359375q0.109375 0.078125 0.453125 0.078125l2.765625 0l0 2.640625l-3.328125 0zm12.9375 -16.796875l0 2.984375l-3.09375 0l0 -2.984375l3.09375 0zm-6.3125 7.171875l0 -2.640625l6.1875 0l0 9.625l3.359375 0l0 2.640625l-6.21875 0l0 -9.625l-3.328125 0zm21.687439 5.53125q0 2.109375 -1.078125 3.109375q-1.078125 0.984375 -3.234375 0.984375l-0.75 0q-2.15625 0 -3.25 -0.984375q-1.078125 -1.0 -1.078125 -3.109375l0 -4.078125q0 -2.109375 1.078125 -3.09375q1.09375 -1.0 3.25 -1.0l0.75 0q2.15625 0 3.234375 1.0q1.078125 0.984375 1.078125 3.09375l0 4.078125zm-2.859375 -4.53125q0 -0.5 -0.28125 -0.75q-0.28125 -0.25 -0.953125 -0.25l-1.203125 0q-0.65625 0 -0.9375 0.25q-0.28125 0.25 -0.28125 0.75l0 4.984375q0 0.5 0.28125 0.75q0.28125 0.25 0.9375 0.25l1.203125 0q0.671875 0 0.953125 -0.25q0.28125 -0.25 0.28125 -0.75l0 -4.984375zm8.546875 -3.640625l-0.203125 0.46875q0.28125 -0.46875 1.546875 -0.46875l1.046875 0q2.015625 0 3.046875 1.0q1.046875 0.984375 1.046875 3.09375l0 8.171875l-2.859375 0l0 -8.625q0 -0.484375 -0.265625 -0.734375q-0.25 -0.265625 -0.75 -0.265625l-1.484375 0q-0.546875 0 -0.78125 0.265625q-0.234375 0.25 -0.234375 0.515625l0 8.84375l-2.859375 0l0 -12.265625l2.75 0z" fill-rule="nonzero"/><path fill="#cfe2f3" d="m612.0974 9.383203l311.84253 0l0 60.125984l-311.84253 0z" fill-rule="evenodd"/><path fill="#000000" d="m719.97974 47.706192q-2.15625 0 -3.359375 -1.09375q-1.1875 -1.09375 -1.1875 -3.21875l0 -8.15625q0 -2.140625 1.1875 -3.234375q1.203125 -1.09375 3.359375 -1.09375l3.6875 0l0 2.65625l-3.90625 0q-0.65625 0 -1.046875 0.375q-0.375 0.359375 -0.375 0.859375l0 9.015625q0 0.5 0.375 0.875q0.390625 0.359375 1.046875 0.359375l3.90625 0l0 2.65625l-3.6875 0zm13.734375 -0.46875q-0.34375 0.46875 -1.546875 0.46875l-0.765625 0q-2.03125 0 -3.0625 -0.984375q-1.03125 -1.0 -1.03125 -3.109375l0 -8.171875l2.859375 0l0 8.625q0 0.484375 0.25 0.75q0.265625 0.25 0.75 0.25l1.234375 0q0.515625 0 0.734375 -0.21875q0.234375 -0.234375 0.265625 -0.515625l0 -8.890625l2.859375 0l0 12.265625l-2.75 0l0.203125 -0.46875zm11.031189 0.46875q-0.953125 0 -1.671875 -0.671875q-0.71875 -0.6875 -0.71875 -2.0625l0 -11.421875l-3.34375 0l0 -2.640625l6.203125 0l0 13.953125q0 0.140625 0.03125 0.171875q0.03125 0.03125 0.296875 0.03125l3.46875 0l0 2.640625l-4.265625 0zm12.34375 0q-1.375 0 -2.109375 -0.890625q-0.734375 -0.90625 -0.734375 -2.296875l0 -6.4375l-2.15625 0l0 -2.640625l2.15625 0l0 -2.71875l2.859375 0l0 2.71875l3.3125 0l0 2.640625l-3.3125 0l0 6.546875q0 0.28125 0.09375 0.359375q0.109375 0.078125 0.453125 0.078125l2.765625 0l0 2.640625l-3.328125 0zm12.937439 -16.796875l0 2.984375l-3.09375 0l0 -2.984375l3.09375 0zm-6.3125 7.171875l0 -2.640625l6.1875 0l0 9.625l3.359375 0l0 2.640625l-6.21875 0l0 -9.625l-3.328125 0zm11.71875 -2.640625l3.0625 0l2.296875 8.421875l2.21875 -8.421875l3.0 0l-3.53125 12.265625l-3.5 0l-3.546875 -12.265625zm20.859314 12.265625q-0.40625 0 -0.859375 -0.21875q-0.4375 -0.234375 -0.390625 -0.40625q-0.28125 0.625 -1.390625 0.625l-2.015625 0q-1.890625 0 -2.828125 -0.8125q-0.921875 -0.8125 -0.921875 -2.71875l0 -0.453125q0 -3.96875 3.78125 -3.96875l2.34375 0l0 -0.671875q0 -0.5 -0.28125 -0.75q-0.28125 -0.25 -0.953125 -0.25l-3.984375 0l0 -2.640625l3.75 0q2.171875 0 3.25 1.0q1.078125 0.984375 1.078125 3.09375l0 5.4375q0 0.09375 0.09375 0.15625q0.09375 0.0625 1.03125 0.0625l0 2.515625l-1.703125 0zm-2.859375 -2.640625q0.40625 0 0.484375 -0.140625q0.09375 -0.140625 0.09375 -0.515625l0 -2.03125l-2.375 0q-0.390625 0 -0.640625 0.25q-0.25 0.25 -0.25 0.640625l0 1.140625q0 0.390625 0.125 0.53125q0.140625 0.125 0.546875 0.125l2.015625 0zm12.59375 2.640625q-1.375 0 -2.109375 -0.890625q-0.734375 -0.90625 -0.734375 -2.296875l0 -6.4375l-2.15625 0l0 -2.640625l2.15625 0l0 -2.71875l2.859375 0l0 2.71875l3.3125 0l0 2.640625l-3.3125 0l0 6.546875q0 0.28125 0.09375 0.359375q0.109375 0.078125 0.453125 0.078125l2.765625 0l0 2.640625l-3.328125 0zm11.265564 0q-2.1875 0 -3.265625 -0.984375q-1.0625 -0.984375 -1.0625 -3.109375l0 -4.078125q0 -2.15625 0.984375 -3.125q0.984375 -0.96875 3.109375 -0.96875l1.0625 0q1.8125 0 2.765625 1.046875q0.96875 1.03125 0.96875 2.9375l0 3.40625l-6.015625 0l0 1.234375q0 0.5 0.28125 0.75q0.28125 0.25 0.9375 0.25l4.078125 0l0 2.640625l-3.84375 0zm1.75 -8.734375q0 -0.40625 -0.25 -0.640625q-0.234375 -0.25 -0.640625 -0.25l-1.3125 0q-0.59375 0 -0.796875 0.234375q-0.203125 0.21875 -0.203125 0.765625l0 1.125l3.203125 0l0 -1.234375z" fill-rule="nonzero"/><path fill="#cfe2f3" d="m150.8084 9.383203l130.07875 0l0 60.125984l-130.07875 0z" fill-rule="evenodd"/><path fill="#000000" d="m183.8713 30.909317l0 2.59375l-5.609375 0l0 4.25l5.03125 0l0 2.59375l-5.03125 0l0 4.765625l5.609375 0l0 2.59375l-8.515625 0l0 -16.796875l8.515625 0zm10.0937195 16.328125q-0.34375 0.46875 -1.546875 0.46875l-0.9375 0q-2.171875 0 -3.25 -0.984375q-1.0625 -0.984375 -1.0625 -3.109375l0 -4.078125q0 -2.109375 1.078125 -3.09375q1.078125 -1.0 3.234375 -1.0l2.15625 0l0 -4.53125l2.875 0l0 16.796875l-2.75 0l0.203125 -0.46875zm-1.328125 -2.171875q0.546875 0 0.765625 -0.25q0.234375 -0.25 0.234375 -0.515625l0 -6.21875l-2.375 0q-0.671875 0 -0.953125 0.25q-0.28125 0.25 -0.28125 0.75l0 4.984375q0 0.5 0.28125 0.75q0.28125 0.25 0.953125 0.25l1.375 0zm13.3749695 2.171875q-0.34375 0.46875 -1.546875 0.46875l-0.765625 0q-2.03125 0 -3.0625 -0.984375q-1.03125 -1.0 -1.03125 -3.109375l0 -8.171875l2.859375 0l0 8.625q0 0.484375 0.25 0.75q0.265625 0.25 0.75 0.25l1.234375 0q0.515625 0 0.734375 -0.21875q0.234375 -0.234375 0.265625 -0.515625l0 -8.890625l2.859375 0l0 12.265625l-2.75 0l0.203125 -0.46875zm10.7499695 0.46875q-2.171875 0 -3.25 -0.984375q-1.0625 -0.984375 -1.0625 -3.109375l0 -4.078125q0 -2.109375 1.078125 -3.09375q1.078125 -1.0 3.234375 -1.0l3.40625 0l0 2.640625l-3.625 0q-0.671875 0 -0.953125 0.25q-0.28125 0.25 -0.28125 0.75l0 4.984375q0 0.5 0.28125 0.75q0.28125 0.25 0.953125 0.25l3.625 0l0 2.640625l-3.40625 0zm15.1249695 0q-0.40625 0 -0.859375 -0.21875q-0.4375 -0.234375 -0.390625 -0.40625q-0.28125 0.625 -1.390625 0.625l-2.015625 0q-1.890625 0 -2.828125 -0.8125q-0.921875 -0.8125 -0.921875 -2.71875l0 -0.453125q0 -3.96875 3.78125 -3.96875l2.34375 0l0 -0.671875q0 -0.5 -0.28125 -0.75q-0.28125 -0.25 -0.953125 -0.25l-3.984375 0l0 -2.640625l3.75 0q2.171875 0 3.25 1.0q1.078125 0.984375 1.078125 3.09375l0 5.4375q0 0.09375 0.09375 0.15625q0.09375 0.0625 1.03125 0.0625l0 2.515625l-1.703125 0zm-2.859375 -2.640625q0.40625 0 0.484375 -0.140625q0.09375 -0.140625 0.09375 -0.515625l0 -2.03125l-2.375 0q-0.390625 0 -0.640625 0.25q-0.25 0.25 -0.25 0.640625l0 1.140625q0 0.390625 0.125 0.53125q0.140625 0.125 0.546875 0.125l2.015625 0zm12.5937195 2.640625q-1.375 0 -2.109375 -0.890625q-0.734375 -0.90625 -0.734375 -2.296875l0 -6.4375l-2.15625 0l0 -2.640625l2.15625 0l0 -2.71875l2.859375 0l0 2.71875l3.3125 0l0 2.640625l-3.3125 0l0 6.546875q0 0.28125 0.09375 0.359375q0.109375 0.078125 0.453125 0.078125l2.765625 0l0 2.640625l-3.328125 0zm11.2655945 0q-2.1875 0 -3.265625 -0.984375q-1.0625 -0.984375 -1.0625 -3.109375l0 -4.078125q0 -2.15625 0.984375 -3.125q0.984375 -0.96875 3.109375 -0.96875l1.0625 0q1.8125 0 2.765625 1.046875q0.96875 1.03125 0.96875 2.9375l0 3.40625l-6.015625 0l0 1.234375q0 0.5 0.28125 0.75q0.28125 0.25 0.9375 0.25l4.078125 0l0 2.640625l-3.84375 0zm1.75 -8.734375q0 -0.40625 -0.25 -0.640625q-0.234375 -0.25 -0.640625 -0.25l-1.3125 0q-0.59375 0 -0.796875 0.234375q-0.203125 0.21875 -0.203125 0.765625l0 1.125l3.203125 0l0 -1.234375z" fill-rule="nonzero"/><path fill="#000000" fill-opacity="0.0" d="m280.88715 39.446194l18.771637 0" fill-rule="evenodd"/><path stroke="#f3f3f3" stroke-width="1.0" stroke-linejoin="round" stroke-linecap="butt" d="m280.88715 39.446194l12.771637 0" fill-rule="evenodd"/><path fill="#f3f3f3" stroke="#f3f3f3" stroke-width="1.0" stroke-linecap="butt" d="m293.65878 41.097927l4.5381165 -1.6517334l-4.5381165 -1.6517334z" fill-rule="evenodd"/><path fill="#000000" fill-opacity="0.0" d="m593.3242 39.446194l18.771667 0" fill-rule="evenodd"/><path stroke="#f3f3f3" stroke-width="1.0" stroke-linejoin="round" stroke-linecap="butt" d="m593.3242 39.446194l12.7716675 0" fill-rule="evenodd"/><path fill="#f3f3f3" stroke="#f3f3f3" stroke-width="1.0" stroke-linecap="butt" d="m606.0959 41.097927l4.538086 -1.6517334l-4.538086 -1.6517334z" fill-rule="evenodd"/><path fill="#fff2cc" d="m150.80708 91.21785l773.13385 0l0 60.125977l-773.13385 0z" fill-rule="evenodd"/><path fill="#000000" d="m499.6788 129.54083l0 -14.140617l-3.609375 0l0 -2.65625l10.109375 0l0 2.65625l-3.59375 0l0 14.140617l-2.90625 0zm18.37497 -4.0937424q0 2.109375 -1.078125 3.1093674q-1.078125 0.984375 -3.234375 0.984375l-0.75 0q-2.15625 0 -3.25 -0.984375q-1.078125 -0.9999924 -1.078125 -3.1093674l0 -4.078125q0 -2.109375 1.078125 -3.09375q1.09375 -1.0 3.25 -1.0l0.75 0q2.15625 0 3.234375 1.0q1.078125 0.984375 1.078125 3.09375l0 4.078125zm-2.859375 -4.53125q0 -0.5 -0.28125 -0.75q-0.28125 -0.25 -0.953125 -0.25l-1.203125 0q-0.65625 0 -0.9375 0.25q-0.28125 0.25 -0.28125 0.75l0 4.984375q0 0.5 0.28125 0.75q0.28125 0.25 0.9375 0.25l1.203125 0q0.671875 0 0.953125 -0.25q0.28125 -0.25 0.28125 -0.75l0 -4.984375zm15.093689 4.53125q0 2.109375 -1.078125 3.1093674q-1.078125 0.984375 -3.234375 0.984375l-0.75 0q-2.15625 0 -3.25 -0.984375q-1.078125 -0.9999924 -1.078125 -3.1093674l0 -4.078125q0 -2.109375 1.078125 -3.09375q1.09375 -1.0 3.25 -1.0l0.75 0q2.15625 0 3.234375 1.0q1.078125 0.984375 1.078125 3.09375l0 4.078125zm-2.859375 -4.53125q0 -0.5 -0.28125 -0.75q-0.28125 -0.25 -0.953125 -0.25l-1.203125 0q-0.65625 0 -0.9375 0.25q-0.28125 0.25 -0.28125 0.75l0 4.984375q0 0.5 0.28125 0.75q0.28125 0.25 0.9375 0.25l1.203125 0q0.671875 0 0.953125 -0.25q0.28125 -0.25 0.28125 -0.75l0 -4.984375zm11.140625 8.624992q-0.953125 0 -1.671875 -0.671875q-0.71875 -0.6875 -0.71875 -2.0624924l0 -11.421875l-3.34375 0l0 -2.640625l6.203125 0l0 13.953125q0 0.140625 0.03125 0.171875q0.03125 0.03125 0.296875 0.03125l3.46875 0l0 2.6406174l-4.265625 0zm13.046814 -16.796867l0 2.984375l-3.09375 0l0 -2.984375l3.09375 0zm-6.3125 7.171875l0 -2.640625l6.1875 0l0 9.625l3.359375 0l0 2.6406174l-6.21875 0l0 -9.624992l-3.328125 0zm15.140625 -2.640625l-0.203125 0.46875q0.28125 -0.46875 1.546875 -0.46875l1.046875 0q2.015625 0 3.046875 1.0q1.046875 0.984375 1.046875 3.09375l0 8.171867l-2.859375 0l0 -8.624992q0 -0.484375 -0.265625 -0.734375q-0.25 -0.265625 -0.75 -0.265625l-1.484375 0q-0.546875 0 -0.78125 0.265625q-0.234375 0.25 -0.234375 0.515625l0 8.843742l-2.859375 0l0 -12.265617l2.75 0zm19.031189 12.593742q0 1.75 -1.0625 2.625q-1.0625 0.890625 -3.1875 0.890625l-5.1875 0l0 -2.625l5.40625 0q0.671875 0 0.921875 -0.203125q0.25 -0.203125 0.25 -0.46875l0 -0.71875q0 -0.28125 -0.25 -0.46875q-0.25 -0.203125 -0.921875 -0.203125l-4.375 0l0 -3.3124924q-0.640625 -0.34375 -1.0625 -1.21875q-0.421875 -0.890625 -0.421875 -2.234375l0 -0.5625q0 -2.109375 1.078125 -3.09375q1.09375 -1.0 3.25 -1.0l5.21875 0l0 4.65625q0 1.890625 -1.0625 3.0q-1.0625 1.09375 -2.796875 1.09375l-1.34375 0l0 0.046875l1.296875 0q2.125 0 3.1875 0.890625q1.0625 0.875 1.0625 2.6249924l0 0.28125zm-4.203125 -6.4687424q0.484375 0 0.71875 -0.3125q0.25 -0.3125 0.28125 -0.640625l0 -2.53125l-2.59375 0q-0.65625 0 -0.9375 0.25q-0.28125 0.25 -0.28125 0.75l0 1.46875q0 0.5 0.28125 0.765625q0.296875 0.25 0.9375 0.25l1.59375 0z" fill-rule="nonzero"/></g></svg>