<?xml version="1.0" encoding="UTF-8"?>
<svg xmlns:xlink="http://www.w3.org/1999/xlink" xmlns="http://www.w3.org/2000/svg" version="1.1" viewBox="0.0 0.0 959.8346456692914 413.87926509186354" fill="none" stroke="none" stroke-linecap="square" stroke-miterlimit="10">
  <clipPath id="p.0">
    <path d="m0 0l959.83466 0l0 413.87927l-959.83466 0l0 -413.87927z" clip-rule="nonzero"></path>
  </clipPath>
  <g clip-path="url(#p.0)">
    <path fill="#000000" fill-opacity="0.0" d="m0 0l959.83466 0l0 413.87927l-959.83466 0z" fill-rule="evenodd"></path>
    <path fill="#e06666" d="m494.58334 216.87604l0 0c-21.7435 -27.179367 -6.2391357 -75.71593 34.629913 -108.40945l0 0c40.86908 -32.69352 91.62659 -37.16362 113.37012 -9.984253l0 0c21.74347 27.179367 6.2391357 75.715935 -34.629944 108.40945l0 0c-40.86908 32.693512 -91.62659 37.16362 -113.37009 9.984253z" fill-rule="evenodd"></path>
    <path stroke="#000000" stroke-width="1.0" stroke-linejoin="round" stroke-linecap="butt" d="m494.58334 216.87604l0 0c-21.7435 -27.179367 -6.2391357 -75.71593 34.629913 -108.40945l0 0c40.86908 -32.69352 91.62659 -37.16362 113.37012 -9.984253l0 0c21.74347 27.179367 6.2391357 75.715935 -34.629944 108.40945l0 0c-40.86908 32.693512 -91.62659 37.16362 -113.37009 9.984253z" fill-rule="evenodd"></path>
    <path fill="#ffd966" d="m338.58267 110.64042l0 0c0 -57.333244 34.216736 -103.81102 76.4252 -103.81102l0 0c20.269226 0 39.708282 10.9372015 54.04077 30.405544c14.33252 19.468346 22.38443 45.873085 22.38443 73.40548l0 0c0 57.333244 -34.216736 103.81103 -76.4252 103.81103l0 0c-42.208466 0 -76.4252 -46.477783 -76.4252 -103.81103z" fill-rule="evenodd"></path>
    <path stroke="#000000" stroke-width="1.0" stroke-linejoin="round" stroke-linecap="butt" d="m338.58267 110.64042l0 0c0 -57.333244 34.216736 -103.81102 76.4252 -103.81102l0 0c20.269226 0 39.708282 10.9372015 54.04077 30.405544c14.33252 19.468346 22.38443 45.873085 22.38443 73.40548l0 0c0 57.333244 -34.216736 103.81103 -76.4252 103.81103l0 0c-42.208466 0 -76.4252 -46.477783 -76.4252 -103.81103z" fill-rule="evenodd"></path>
    <path fill="#6fa8dc" d="m278.04724 312.7349l0 0c0 -52.088715 56.26407 -94.31494 125.66928 -94.31494l0 0c69.40524 0 125.66928 42.226227 125.66928 94.31494l0 0c0 52.088715 -56.264038 94.31497 -125.66928 94.31497l0 0c-69.40521 0 -125.66928 -42.226257 -125.66928 -94.31497z" fill-rule="evenodd"></path>
    <path stroke="#000000" stroke-width="1.0" stroke-linejoin="round" stroke-linecap="butt" d="m278.04724 312.7349l0 0c0 -52.088715 56.26407 -94.31494 125.66928 -94.31494l0 0c69.40524 0 125.66928 42.226227 125.66928 94.31494l0 0c0 52.088715 -56.264038 94.31497 -125.66928 94.31497l0 0c-69.40521 0 -125.66928 -42.226257 -125.66928 -94.31497z" fill-rule="evenodd"></path>
    <path fill="#858585" fill-opacity="0.5361" d="m323.63516 223.70079l0 0c0 -51.27986 70.231384 -92.8504 156.86615 -92.8504l0 0c86.634796 0 156.86612 41.57054 156.86612 92.8504l0 0c0 51.27986 -70.23132 92.85039 -156.86612 92.85039l0 0c-86.634766 0 -156.86615 -41.570526 -156.86615 -92.85039z" fill-rule="evenodd"></path>
    <path stroke="#000000" stroke-width="1.0" stroke-linejoin="round" stroke-linecap="butt" d="m323.63516 223.70079l0 0c0 -51.27986 70.231384 -92.8504 156.86615 -92.8504l0 0c86.634796 0 156.86612 41.57054 156.86612 92.8504l0 0c0 51.27986 -70.23132 92.85039 -156.86612 92.85039l0 0c-86.634766 0 -156.86615 -41.570526 -156.86615 -92.85039z" fill-rule="evenodd"></path>
    <path fill="#000000" fill-opacity="0.0" d="m363.51257 227.46982l80.409454 0l0 56.566925l-80.409454 0z" fill-rule="evenodd"></path>
    <path fill="#000000" d="m374.87195 265.90982l0 -21.9375l7.5625 0q2.5625 0 3.90625 0.3125q1.890625 0.421875 3.21875 1.5625q1.734375 1.46875 2.59375 3.75q0.859375 2.28125 0.859375 5.21875q0 2.5 -0.578125 4.4375q-0.578125 1.921875 -1.5 3.1875q-0.90625 1.265625 -2.0 2.0q-1.078125 0.71875 -2.609375 1.09375q-1.53125 0.375 -3.53125 0.375l-7.921875 0zm2.90625 -2.59375l4.6875 0q2.171875 0 3.40625 -0.390625q1.234375 -0.40625 1.96875 -1.140625q1.03125 -1.046875 1.609375 -2.78125q0.578125 -1.75 0.578125 -4.234375q0 -3.4375 -1.140625 -5.28125q-1.125 -1.859375 -2.734375 -2.484375q-1.171875 -0.453125 -3.765625 -0.453125l-4.609375 0l0 16.765625zm29.779602 -2.53125l2.78125 0.34375q-0.65625 2.453125 -2.4375 3.796875q-1.78125 1.34375 -4.546875 1.34375q-3.5 0 -5.546875 -2.140625q-2.03125 -2.15625 -2.03125 -6.03125q0 -4.015625 2.0625 -6.21875q2.0625 -2.21875 5.359375 -2.21875q3.1875 0 5.203125 2.171875q2.03125 2.15625 2.03125 6.09375q0 0.25 -0.015625 0.71875l-11.859375 0q0.15625 2.625 1.484375 4.015625q1.328125 1.390625 3.328125 1.390625q1.46875 0 2.515625 -0.765625q1.0625 -0.78125 1.671875 -2.5zm-8.84375 -4.34375l8.875 0q-0.1875 -2.015625 -1.015625 -3.015625q-1.296875 -1.5625 -3.34375 -1.5625q-1.859375 0 -3.125 1.25q-1.265625 1.234375 -1.390625 3.328125zm19.42453 9.46875l-6.046875 -15.890625l2.84375 0l3.40625 9.515625q0.5625 1.546875 1.03125 3.203125q0.34375 -1.265625 1.0 -3.03125l3.53125 -9.6875l2.765625 0l-6.015625 15.890625l-2.515625 0z" fill-rule="nonzero"></path>
    <path fill="#000000" fill-opacity="0.0" d="m436.37366 252.00525l80.409485 0l0 56.566925l-80.409485 0z" fill-rule="evenodd"></path>
    <path fill="#000000" d="m447.73303 290.44525l0 -21.9375l7.5625 0q2.5625 0 3.90625 0.3125q1.890625 0.421875 3.21875 1.5625q1.734375 1.46875 2.59375 3.75q0.859375 2.28125 0.859375 5.21875q0 2.5 -0.578125 4.4375q-0.578125 1.921875 -1.5 3.1875q-0.90625 1.265625 -2.0 2.0q-1.078125 0.71875 -2.609375 1.09375q-1.53125 0.375 -3.53125 0.375l-7.921875 0zm2.90625 -2.59375l4.6875 0q2.171875 0 3.40625 -0.390625q1.234375 -0.40625 1.96875 -1.140625q1.03125 -1.046875 1.609375 -2.78125q0.578125 -1.75 0.578125 -4.234375q0 -3.4375 -1.140625 -5.28125q-1.125 -1.859375 -2.734375 -2.484375q-1.171875 -0.453125 -3.765625 -0.453125l-4.609375 0l0 16.765625zm29.779602 -2.53125l2.78125 0.34375q-0.65625 2.453125 -2.4375 3.796875q-1.78125 1.34375 -4.546875 1.34375q-3.5 0 -5.546875 -2.140625q-2.03125 -2.15625 -2.03125 -6.03125q0 -4.015625 2.0625 -6.21875q2.0625 -2.21875 5.359375 -2.21875q3.1875 0 5.203125 2.171875q2.03125 2.15625 2.03125 6.09375q0 0.25 -0.015625 0.71875l-11.859375 0q0.15625 2.625 1.484375 4.015625q1.328125 1.390625 3.328125 1.390625q1.46875 0 2.515625 -0.765625q1.0625 -0.78125 1.671875 -2.5zm-8.84375 -4.34375l8.875 0q-0.1875 -2.015625 -1.015625 -3.015625q-1.296875 -1.5625 -3.34375 -1.5625q-1.859375 0 -3.125 1.25q-1.265625 1.234375 -1.390625 3.328125zm19.42453 9.46875l-6.046875 -15.890625l2.84375 0l3.40625 9.515625q0.5625 1.546875 1.03125 3.203125q0.34375 -1.265625 1.0 -3.03125l3.53125 -9.6875l2.765625 0l-6.015625 15.890625l-2.515625 0z" fill-rule="nonzero"></path>
    <path fill="#000000" fill-opacity="0.0" d="m288.10236 312.4357l80.409454 0l0 56.566925l-80.409454 0z" fill-rule="evenodd"></path>
    <path fill="#000000" d="m299.46173 350.8757l0 -21.9375l7.5625 0q2.5625 0 3.90625 0.3125q1.890625 0.421875 3.21875 1.5625q1.734375 1.46875 2.59375 3.75q0.859375 2.28125 0.859375 5.21875q0 2.5 -0.578125 4.4375q-0.578125 1.921875 -1.5 3.1875q-0.90625 1.265625 -2.0 2.0q-1.078125 0.71875 -2.609375 1.09375q-1.53125 0.375 -3.53125 0.375l-7.921875 0zm2.90625 -2.59375l4.6875 0q2.171875 0 3.40625 -0.390625q1.234375 -0.40625 1.96875 -1.140625q1.03125 -1.046875 1.609375 -2.78125q0.578125 -1.75 0.578125 -4.234375q0 -3.4375 -1.140625 -5.28125q-1.125 -1.859375 -2.734375 -2.484375q-1.171875 -0.453125 -3.765625 -0.453125l-4.609375 0l0 16.765625zm29.779602 -2.53125l2.78125 0.34375q-0.65625 2.453125 -2.4375 3.796875q-1.78125 1.34375 -4.546875 1.34375q-3.5 0 -5.546875 -2.140625q-2.03125 -2.15625 -2.03125 -6.03125q0 -4.015625 2.0625 -6.21875q2.0625 -2.21875 5.359375 -2.21875q3.1875 0 5.203125 2.171875q2.03125 2.15625 2.03125 6.09375q0 0.25 -0.015625 0.71875l-11.859375 0q0.15625 2.625 1.484375 4.015625q1.328125 1.390625 3.328125 1.390625q1.46875 0 2.515625 -0.765625q1.0625 -0.78125 1.671875 -2.5zm-8.84375 -4.34375l8.875 0q-0.1875 -2.015625 -1.015625 -3.015625q-1.296875 -1.5625 -3.34375 -1.5625q-1.859375 0 -3.125 1.25q-1.265625 1.234375 -1.390625 3.328125zm19.42453 9.46875l-6.046875 -15.890625l2.84375 0l3.40625 9.515625q0.5625 1.546875 1.03125 3.203125q0.34375 -1.265625 1.0 -3.03125l3.53125 -9.6875l2.765625 0l-6.015625 15.890625l-2.515625 0z" fill-rule="nonzero"></path>
    <path fill="#000000" fill-opacity="0.0" d="m355.96317 346.16797l80.409424 0l0 56.566925l-80.409424 0z" fill-rule="evenodd"></path>
    <path fill="#000000" d="m367.32254 384.60797l0 -21.9375l7.5625 0q2.5625 0 3.90625 0.3125q1.890625 0.421875 3.21875 1.5625q1.734375 1.46875 2.59375 3.75q0.859375 2.28125 0.859375 5.21875q0 2.5 -0.578125 4.4375q-0.578125 1.921875 -1.5 3.1875q-0.90625 1.265625 -2.0 2.0q-1.078125 0.71875 -2.609375 1.09375q-1.53125 0.375 -3.53125 0.375l-7.921875 0zm2.90625 -2.59375l4.6875 0q2.171875 0 3.40625 -0.390625q1.234375 -0.40625 1.96875 -1.140625q1.03125 -1.046875 1.609375 -2.78125q0.578125 -1.75 0.578125 -4.234375q0 -3.4375 -1.140625 -5.28125q-1.125 -1.859375 -2.734375 -2.484375q-1.171875 -0.453125 -3.765625 -0.453125l-4.609375 0l0 16.765625zm29.779572 -2.53125l2.78125 0.34375q-0.65625 2.453125 -2.4375 3.796875q-1.78125 1.34375 -4.546875 1.34375q-3.5 0 -5.546875 -2.140625q-2.03125 -2.15625 -2.03125 -6.03125q0 -4.015625 2.0625 -6.21875q2.0625 -2.21875 5.359375 -2.21875q3.1875 0 5.203125 2.171875q2.03125 2.15625 2.03125 6.09375q0 0.25 -0.015625 0.71875l-11.859375 0q0.15625 2.625 1.484375 4.015625q1.328125 1.390625 3.328125 1.390625q1.46875 0 2.515625 -0.765625q1.0625 -0.78125 1.671875 -2.5zm-8.84375 -4.34375l8.875 0q-0.1875 -2.015625 -1.015625 -3.015625q-1.296875 -1.5625 -3.34375 -1.5625q-1.859375 0 -3.125 1.25q-1.265625 1.234375 -1.390625 3.328125zm19.42456 9.46875l-6.046875 -15.890625l2.84375 0l3.40625 9.515625q0.5625 1.546875 1.03125 3.203125q0.34375 -1.265625 1.0 -3.03125l3.53125 -9.6875l2.765625 0l-6.015625 15.890625l-2.515625 0z" fill-rule="nonzero"></path>
    <path fill="#000000" fill-opacity="0.0" d="m374.80255 142.50394l80.409454 0l0 56.566925l-80.409454 0z" fill-rule="evenodd"></path>
    <path fill="#000000" d="m400.56818 159.00644l2.90625 0l0 12.671875q0 3.3125 -0.75 5.265625q-0.75 1.9375 -2.703125 3.15625q-1.953125 1.21875 -5.125 1.21875q-3.078125 0 -5.046875 -1.0625q-1.953125 -1.0625 -2.796875 -3.078125q-0.84375 -2.015625 -0.84375 -5.5l0 -12.671875l2.90625 0l0 12.65625q0 2.859375 0.53125 4.21875q0.53125 1.34375 1.828125 2.078125q1.296875 0.734375 3.171875 0.734375q3.203125 0 4.5625 -1.453125q1.359375 -1.453125 1.359375 -5.578125l0 -12.65625zm5.513977 21.9375l8.484375 -11.4375l-7.484375 -10.5l3.453125 0l3.984375 5.625q1.234375 1.75 1.765625 2.6875q0.734375 -1.1875 1.734375 -2.5l4.421875 -5.8125l3.15625 0l-7.71875 10.34375l8.3125 11.59375l-3.59375 0l-5.515625 -7.828125q-0.46875 -0.671875 -0.96875 -1.46875q-0.71875 1.203125 -1.046875 1.640625l-5.5 7.65625l-3.484375 0z" fill-rule="nonzero"></path>
    <path fill="#000000" fill-opacity="0.0" d="m495.92343 173.50394l80.409454 0l0 56.566925l-80.409454 0z" fill-rule="evenodd"></path>
    <path fill="#000000" d="m521.689 190.00644l2.90625 0l0 12.671875q0 3.3125 -0.75 5.265625q-0.75 1.9375 -2.703125 3.15625q-1.953125 1.21875 -5.125 1.21875q-3.078125 0 -5.0468445 -1.0625q-1.953125 -1.0625 -2.796875 -3.078125q-0.84375 -2.015625 -0.84375 -5.5l0 -12.671875l2.90625 0l0 12.65625q0 2.859375 0.53125 4.21875q0.53125 1.34375 1.8280945 2.078125q1.296875 0.734375 3.171875 0.734375q3.203125 0 4.5625 -1.453125q1.359375 -1.453125 1.359375 -5.578125l0 -12.65625zm8.232727 21.9375l0 -21.9375l2.90625 0l0 21.9375l-2.90625 0z" fill-rule="nonzero"></path>
    <path fill="#000000" fill-opacity="0.0" d="m374.80255 12.377953l80.409454 0l0 56.566933l-80.409454 0z" fill-rule="evenodd"></path>
    <path fill="#000000" d="m400.56818 28.880451l2.90625 0l0 12.671875q0 3.3125 -0.75 5.265625q-0.75 1.9375 -2.703125 3.15625q-1.953125 1.21875 -5.125 1.21875q-3.078125 0 -5.046875 -1.0625q-1.953125 -1.0625 -2.796875 -3.078125q-0.84375 -2.015625 -0.84375 -5.5l0 -12.671875l2.90625 0l0 12.65625q0 2.859375 0.53125 4.21875q0.53125 1.34375 1.828125 2.078125q1.296875 0.734375 3.171875 0.734375q3.203125 0 4.5625 -1.453125q1.359375 -1.453125 1.359375 -5.578125l0 -12.65625zm5.513977 21.9375l8.484375 -11.4375l-7.484375 -10.5l3.453125 0l3.984375 5.625q1.234375 1.75 1.765625 2.6875q0.734375 -1.1875 1.734375 -2.5l4.421875 -5.8125l3.15625 0l-7.71875 10.34375l8.3125 11.59375l-3.59375 0l-5.515625 -7.828125q-0.46875 -0.671875 -0.96875 -1.46875q-0.71875 1.203125 -1.046875 1.640625l-5.5 7.65625l-3.484375 0z" fill-rule="nonzero"></path>
    <path fill="#000000" fill-opacity="0.0" d="m578.4195 87.11811l80.409424 0l0 56.566933l-80.409424 0z" fill-rule="evenodd"></path>
    <path fill="#000000" d="m604.1851 103.620605l2.90625 0l0 12.671875q0 3.3125 -0.75 5.265625q-0.75 1.9375 -2.703125 3.15625q-1.953125 1.21875 -5.125 1.21875q-3.078125 0 -5.046875 -1.0625q-1.953125 -1.0625 -2.796875 -3.078125q-0.84375 -2.015625 -0.84375 -5.5l0 -12.671875l2.90625 0l0 12.65625q0 2.859375 0.53125 4.21875q0.53125 1.34375 1.828125 2.078125q1.296875 0.734375 3.171875 0.734375q3.203125 0 4.5625 -1.453125q1.359375 -1.453125 1.359375 -5.578125l0 -12.65625zm8.232727 21.9375l0 -21.9375l2.90625 0l0 21.9375l-2.90625 0z" fill-rule="nonzero"></path>
    <path fill="#000000" fill-opacity="0.0" d="m418.57217 288.39108l-23.118103 38.960632" fill-rule="evenodd"></path>
    <path stroke="#000000" stroke-width="1.0" stroke-linejoin="round" stroke-linecap="butt" d="m415.51038 293.55106l-16.994507 28.640656" fill-rule="evenodd"></path>
    <path fill="#000000" stroke="#000000" stroke-width="1.0" stroke-linecap="butt" d="m416.93088 294.39395l0.8952942 -4.745636l-3.736267 3.0598755z" fill-rule="evenodd"></path>
    <path fill="#000000" stroke="#000000" stroke-width="1.0" stroke-linecap="butt" d="m397.09537 321.34885l-0.8952942 4.745636l3.736267 -3.0598755z" fill-rule="evenodd"></path>
    <path fill="#000000" fill-opacity="0.0" d="m405.17847 153.84776l-5.2283325 -92.94488" fill-rule="evenodd"></path>
    <path stroke="#000000" stroke-width="1.0" stroke-linejoin="round" stroke-linecap="butt" d="m404.8415 147.85724l-4.5543823 -80.96382" fill-rule="evenodd"></path>
    <path fill="#000000" stroke="#000000" stroke-width="1.0" stroke-linecap="butt" d="m403.19238 147.95001l1.9039917 4.438156l1.3942566 -4.623703z" fill-rule="evenodd"></path>
    <path fill="#000000" stroke="#000000" stroke-width="1.0" stroke-linecap="butt" d="m401.93625 66.80065l-1.9040222 -4.4381714l-1.3942261 4.623703z" fill-rule="evenodd"></path>
    <path fill="#000000" fill-opacity="0.0" d="m580.1417 134.5433l-23.118103 38.960632" fill-rule="evenodd"></path>
    <path stroke="#000000" stroke-width="1.0" stroke-linejoin="round" stroke-linecap="butt" d="m577.07996 139.7033l-16.994507 28.640656" fill-rule="evenodd"></path>
    <path fill="#000000" stroke="#000000" stroke-width="1.0" stroke-linecap="butt" d="m578.5004 140.54617l0.8953247 -4.745636l-3.736267 3.0598755z" fill-rule="evenodd"></path>
    <path fill="#000000" stroke="#000000" stroke-width="1.0" stroke-linecap="butt" d="m558.6649 167.50107l-0.8952637 4.745636l3.736267 -3.0598755z" fill-rule="evenodd"></path>
  </g>
</svg>
