<svg version="1.1" viewBox="0.0 0.0 960.0 540.0" fill="none" stroke="none" stroke-linecap="square" stroke-miterlimit="10" xmlns:xlink="http://www.w3.org/1999/xlink" xmlns="http://www.w3.org/2000/svg"><clipPath id="g2941647e0a9_0_0.0"><path d="m0 0l960.0 0l0 540.0l-960.0 0l0 -540.0z" clip-rule="nonzero"/></clipPath><g clip-path="url(#g2941647e0a9_0_0.0)"><path fill="#1e1e1e" d="m0 0l960.0 0l0 540.0l-960.0 0z" fill-rule="evenodd"/><path fill="#8e7cc3" d="m288.56824 279.16888l389.7008 0l0 70.48819l-389.7008 0z" fill-rule="evenodd"/><path stroke="#000000" stroke-width="1.0" stroke-linejoin="round" stroke-linecap="butt" d="m288.56824 279.16888l389.7008 0l0 70.48819l-389.7008 0z" fill-rule="evenodd"/><path fill="#000000" d="m479.6164 319.50922q0 2.78125 -1.578125 4.3125q-1.5625 1.53125 -3.890625 1.53125l-0.765625 0q-2.34375 0 -3.90625 -1.53125q-1.5625 -1.53125 -1.5625 -4.3125l0 -11.03125q0 -2.875 1.578125 -4.34375q1.578125 -1.484375 4.5 -1.484375l4.140625 0l0 3.578125l-4.453125 0q-0.875 0 -1.40625 0.5q-0.515625 0.484375 -0.515625 1.171875l0 2.71875l2.078125 0q2.890625 0 4.328125 1.34375q1.453125 1.34375 1.453125 4.1875l0 3.359375zm-7.859375 0.59375q0 0.734375 0.46875 1.21875q0.46875 0.484375 1.296875 0.484375l0.46875 0q0.828125 0 1.296875 -0.484375q0.46875 -0.484375 0.46875 -1.21875l0 -4.546875q0 -0.671875 -0.390625 -1.03125q-0.375 -0.359375 -1.21875 -0.359375l-2.390625 0l0 5.9375zm26.017853 5.25l-5.03125 0l-1.46875 -6.296875l-1.59375 6.296875l-4.921875 0l-3.328125 -16.578125l3.984375 0l2.0625 11.09375l2.15625 -8.328125l3.578125 0l1.96875 8.21875l2.046875 -10.984375l3.828125 0l-3.28125 16.578125z" fill-rule="nonzero"/><path fill="#6fa8dc" d="m678.28876 279.16888l129.88977 0l0 70.48819l-129.88977 0z" fill-rule="evenodd"/><path stroke="#000000" stroke-width="1.0" stroke-linejoin="round" stroke-linecap="butt" d="m678.28876 279.16888l129.88977 0l0 70.48819l-129.88977 0z" fill-rule="evenodd"/><path fill="#000000" d="m727.697 321.83734l4.703125 -7.140625q1.0 -1.515625 1.296875 -2.0625q0.3125 -0.546875 0.421875 -1.046875q0.109375 -0.5 0.109375 -1.546875l0 -2.140625q0 -0.6875 -0.53125 -1.171875q-0.515625 -0.5 -1.390625 -0.5l-4.0 0l0 -3.578125l3.6875 0q2.921875 0 4.53125 1.46875q1.609375 1.46875 1.609375 4.359375l0 1.296875q0 1.59375 -0.171875 2.46875q-0.15625 0.875 -0.578125 1.640625q-0.40625 0.75 -1.53125 2.453125l-3.59375 5.4375l6.484375 0l0 3.578125l-11.046875 0l0 -3.515625zm29.892822 3.515625l-5.03125 0l-1.46875 -6.296875l-1.59375 6.296875l-4.921875 0l-3.328125 -16.578125l3.984375 0l2.0625 11.09375l2.15625 -8.328125l3.578125 0l1.96875 8.21875l2.046875 -10.984375l3.828125 0l-3.28125 16.578125z" fill-rule="nonzero"/><path fill="#8e7cc3" d="m288.72684 102.63316l326.77164 0l0 70.48819l-326.77164 0z" fill-rule="evenodd"/><path stroke="#000000" stroke-width="1.0" stroke-linejoin="round" stroke-linecap="butt" d="m288.72684 102.63316l326.77164 0l0 70.48819l-326.77164 0z" fill-rule="evenodd"/><path fill="#000000" d="m447.3573 143.34851q0 2.8125 -1.421875 4.140625q-1.40625 1.328125 -4.421875 1.328125l-4.328125 0l0 -3.546875l4.609375 0q0.90625 0 1.265625 -0.359375q0.375 -0.359375 0.375 -1.25l0 -3.90625q0 -0.734375 -0.421875 -1.15625q-0.421875 -0.421875 -1.1875 -0.421875l-4.34375 0l0 -12.0625l9.40625 0l0 3.546875l-5.546875 0l0 4.96875l0.328125 0q2.59375 0 4.140625 1.34375q1.546875 1.328125 1.546875 4.0625l0 3.3125zm19.111603 5.46875l-5.03125 0l-1.46875 -6.296875l-1.59375 6.296875l-4.921875 0l-3.328125 -16.578125l3.984375 0l2.0625 11.09375l2.15625 -8.328125l3.578125 0l1.96875 8.21875l2.046875 -10.984375l3.828125 0l-3.28125 16.578125z" fill-rule="nonzero"/><path fill="#6fa8dc" d="m613.3354 102.63316l129.88977 0l0 70.48819l-129.88977 0z" fill-rule="evenodd"/><path stroke="#000000" stroke-width="1.0" stroke-linejoin="round" stroke-linecap="butt" d="m613.3354 102.63316l129.88977 0l0 70.48819l-129.88977 0z" fill-rule="evenodd"/><path fill="#000000" d="m662.74365 145.30164l4.703125 -7.140625q1.0 -1.515625 1.296875 -2.0625q0.3125 -0.546875 0.421875 -1.046875q0.109375 -0.5 0.109375 -1.546875l0 -2.140625q0 -0.6875 -0.53125 -1.171875q-0.515625 -0.5 -1.390625 -0.5l-4.0 0l0 -3.578125l3.6875 0q2.921875 0 4.53125 1.46875q1.609375 1.46875 1.609375 4.359375l0 1.296875q0 1.59375 -0.171875 2.46875q-0.15625 0.875 -0.578125 1.640625q-0.40625 0.75 -1.53125 2.453125l-3.59375 5.4375l6.484375 0l0 3.578125l-11.046875 0l0 -3.515625zm29.892822 3.515625l-5.03125 0l-1.46875 -6.296875l-1.59375 6.296875l-4.921875 0l-3.328125 -16.578125l3.984375 0l2.0625 11.09375l2.15625 -8.328125l3.578125 0l1.96875 8.21875l2.046875 -10.984375l3.828125 0l-3.28125 16.578125z" fill-rule="nonzero"/><path fill="#8e7cc3" d="m288.72684 13.807087l259.811 0l0 70.48819l-259.811 0z" fill-rule="evenodd"/><path stroke="#000000" stroke-width="1.0" stroke-linejoin="round" stroke-linecap="butt" d="m288.72684 13.807087l259.811 0l0 70.48819l-259.811 0z" fill-rule="evenodd"/><path fill="#000000" d="m413.2051 55.20993l0 4.78125l-3.859375 0l0 -4.78125l-6.078125 0l0 -3.328125l3.171875 -14.59375l3.75 0l-2.890625 14.4375l2.046875 0l0 -7.0l3.859375 0l0 7.0l2.140625 0l0 3.484375l-2.140625 0zm19.783478 4.78125l-5.03125 0l-1.46875 -6.296875l-1.59375 6.296875l-4.921875 0l-3.328125 -16.578125l3.984375 0l2.0625 11.09375l2.15625 -8.328125l3.578125 0l1.96875 8.21875l2.046875 -10.984375l3.828125 0l-3.28125 16.578125z" fill-rule="nonzero"/><path fill="#6fa8dc" d="m548.5404 13.807087l64.787415 0l0 70.48819l-64.787415 0z" fill-rule="evenodd"/><path stroke="#000000" stroke-width="1.0" stroke-linejoin="round" stroke-linecap="butt" d="m548.5404 13.807087l64.787415 0l0 70.48819l-64.787415 0z" fill-rule="evenodd"/><path fill="#000000" d="m566.28815 59.99118l0 -3.546875l3.703125 0l0 -15.1875l-4.015625 1.59375l0 -3.828125l4.203125 -1.734375l3.671875 0l0 19.15625l3.03125 0l0 3.546875l-10.59375 0zm29.002197 0l-5.03125 0l-1.46875 -6.296875l-1.59375 6.296875l-4.921875 0l-3.328125 -16.578125l3.984375 0l2.0625 11.09375l2.15625 -8.328125l3.578125 0l1.96875 8.21875l2.046875 -10.984375l3.828125 0l-3.28125 16.578125z" fill-rule="nonzero"/><path fill="#6fa8dc" d="m613.33527 13.807087l64.787415 0l0 70.48819l-64.787415 0z" fill-rule="evenodd"/><path stroke="#000000" stroke-width="1.0" stroke-linejoin="round" stroke-linecap="butt" d="m613.33527 13.807087l64.787415 0l0 70.48819l-64.787415 0z" fill-rule="evenodd"/><path fill="#000000" d="m631.08295 59.99118l0 -3.546875l3.703125 0l0 -15.1875l-4.015625 1.59375l0 -3.828125l4.203125 -1.734375l3.671875 0l0 19.15625l3.03125 0l0 3.546875l-10.59375 0zm29.002258 0l-5.03125 0l-1.46875 -6.296875l-1.59375 6.296875l-4.921875 0l-3.328125 -16.578125l3.984375 0l2.0625 11.09375l2.15625 -8.328125l3.578125 0l1.96875 8.21875l2.046875 -10.984375l3.828125 0l-3.28125 16.578125z" fill-rule="nonzero"/><path fill="#8e7cc3" d="m287.39084 367.43674l389.70078 0l0 70.48819l-389.70078 0z" fill-rule="evenodd"/><path stroke="#000000" stroke-width="1.0" stroke-linejoin="round" stroke-linecap="butt" d="m287.39084 367.43674l389.70078 0l0 70.48819l-389.70078 0z" fill-rule="evenodd"/><path fill="#000000" d="m478.439 407.7771q0 2.78125 -1.578125 4.3125q-1.5625 1.53125 -3.890625 1.53125l-0.765625 0q-2.34375 0 -3.90625 -1.53125q-1.5625 -1.53125 -1.5625 -4.3125l0 -11.03125q0 -2.875 1.578125 -4.34375q1.578125 -1.484375 4.5 -1.484375l4.140625 0l0 3.578125l-4.453125 0q-0.875 0 -1.40625 0.5q-0.515625 0.484375 -0.515625 1.171875l0 2.71875l2.078125 0q2.890625 0 4.328125 1.34375q1.453125 1.34375 1.453125 4.1875l0 3.359375zm-7.859375 0.59375q0 0.734375 0.46875 1.21875q0.46875 0.484375 1.296875 0.484375l0.46875 0q0.828125 0 1.296875 -0.484375q0.46875 -0.484375 0.46875 -1.21875l0 -4.546875q0 -0.671875 -0.390625 -1.03125q-0.375 -0.359375 -1.21875 -0.359375l-2.390625 0l0 5.9375zm26.017853 5.25l-5.03125 0l-1.46875 -6.296875l-1.59375 6.296875l-4.921875 0l-3.328125 -16.578125l3.984375 0l2.0625 11.09375l2.15625 -8.328125l3.578125 0l1.96875 8.21875l2.046875 -10.984375l3.828125 0l-3.28125 16.578125z" fill-rule="nonzero"/><path fill="#6fa8dc" d="m807.01807 367.43674l129.88977 0l0 70.48819l-129.88977 0z" fill-rule="evenodd"/><path stroke="#000000" stroke-width="1.0" stroke-linejoin="round" stroke-linecap="butt" d="m807.01807 367.43674l129.88977 0l0 70.48819l-129.88977 0z" fill-rule="evenodd"/><path fill="#000000" d="m856.42633 410.10522l4.703125 -7.140625q1.0 -1.515625 1.296875 -2.0625q0.3125 -0.546875 0.421875 -1.046875q0.109375 -0.5 0.109375 -1.546875l0 -2.140625q0 -0.6875 -0.53125 -1.171875q-0.515625 -0.5 -1.390625 -0.5l-4.0 0l0 -3.578125l3.6875 0q2.921875 0 4.53125 1.46875q1.609375 1.46875 1.609375 4.359375l0 1.296875q0 1.59375 -0.171875 2.46875q-0.15625 0.875 -0.578125 1.640625q-0.40625 0.75 -1.53125 2.453125l-3.59375 5.4375l6.484375 0l0 3.578125l-11.046875 0l0 -3.515625zm29.892883 3.515625l-5.03125 0l-1.46875 -6.296875l-1.59375 6.296875l-4.921875 0l-3.328125 -16.578125l3.984375 0l2.0625 11.09375l2.15625 -8.328125l3.578125 0l1.96875 8.21875l2.046875 -10.984375l3.828125 0l-3.28125 16.578125z" fill-rule="nonzero"/><path fill="#8e7cc3" d="m677.1113 367.43674l129.88977 0l0 70.48819l-129.88977 0z" fill-rule="evenodd"/><path stroke="#000000" stroke-width="1.0" stroke-linejoin="round" stroke-linecap="butt" d="m677.1113 367.43674l129.88977 0l0 70.48819l-129.88977 0z" fill-rule="evenodd"/><path fill="#000000" d="m726.5196 410.10522l4.703125 -7.140625q1.0 -1.515625 1.296875 -2.0625q0.3125 -0.546875 0.421875 -1.046875q0.109375 -0.5 0.109375 -1.546875l0 -2.140625q0 -0.6875 -0.53125 -1.171875q-0.515625 -0.5 -1.390625 -0.5l-4.0 0l0 -3.578125l3.6875 0q2.921875 0 4.53125 1.46875q1.609375 1.46875 1.609375 4.359375l0 1.296875q0 1.59375 -0.171875 2.46875q-0.15625 0.875 -0.578125 1.640625q-0.40625 0.75 -1.53125 2.453125l-3.59375 5.4375l6.484375 0l0 3.578125l-11.046875 0l0 -3.515625zm29.892883 3.515625l-5.03125 0l-1.46875 -6.296875l-1.59375 6.296875l-4.921875 0l-3.328125 -16.578125l3.984375 0l2.0625 11.09375l2.15625 -8.328125l3.578125 0l1.96875 8.21875l2.046875 -10.984375l3.828125 0l-3.28125 16.578125z" fill-rule="nonzero"/><path fill="#8e7cc3" d="m287.39084 190.90103l389.70078 0l0 70.48819l-389.70078 0z" fill-rule="evenodd"/><path stroke="#000000" stroke-width="1.0" stroke-linejoin="round" stroke-linecap="butt" d="m287.39084 190.90103l389.70078 0l0 70.48819l-389.70078 0z" fill-rule="evenodd"/><path fill="#000000" d="m478.439 231.24136q0 2.78125 -1.578125 4.3125q-1.5625 1.53125 -3.890625 1.53125l-0.765625 0q-2.34375 0 -3.90625 -1.53125q-1.5625 -1.53125 -1.5625 -4.3125l0 -11.03125q0 -2.875 1.578125 -4.34375q1.578125 -1.484375 4.5 -1.484375l4.140625 0l0 3.578125l-4.453125 0q-0.875 0 -1.40625 0.5q-0.515625 0.484375 -0.515625 1.171875l0 2.71875l2.078125 0q2.890625 0 4.328125 1.34375q1.453125 1.34375 1.453125 4.1875l0 3.359375zm-7.859375 0.59375q0 0.734375 0.46875 1.21875q0.46875 0.484375 1.296875 0.484375l0.46875 0q0.828125 0 1.296875 -0.484375q0.46875 -0.484375 0.46875 -1.21875l0 -4.546875q0 -0.671875 -0.390625 -1.03125q-0.375 -0.359375 -1.21875 -0.359375l-2.390625 0l0 5.9375zm26.017853 5.25l-5.03125 0l-1.46875 -6.296875l-1.59375 6.296875l-4.921875 0l-3.328125 -16.578125l3.984375 0l2.0625 11.09375l2.15625 -8.328125l3.578125 0l1.96875 8.21875l2.046875 -10.984375l3.828125 0l-3.28125 16.578125z" fill-rule="nonzero"/><path fill="#6fa8dc" d="m677.1111 190.90103l36.283447 0l0 70.48819l-36.283447 0z" fill-rule="evenodd"/><path stroke="#000000" stroke-width="1.0" stroke-linejoin="round" stroke-linecap="butt" d="m677.1111 190.90103l36.283447 0l0 70.48819l-36.283447 0z" fill-rule="evenodd"/><path fill="#000000" d="m700.6158 220.58511q0 1.3125 -0.140625 2.015625q-0.140625 0.6875 -0.609375 1.375q-0.453125 0.671875 -1.59375 1.9375l-1.3125 1.46875l0 3.328125l-3.859375 0l0 -4.5625l1.78125 -2.046875q1.0625 -1.21875 1.375 -1.640625q0.3125 -0.421875 0.40625 -0.703125q0.09375 -0.296875 0.09375 -0.90625l0 -1.53125q0 -0.6875 -0.375 -1.015625q-0.359375 -0.34375 -1.234375 -0.34375l-4.0 0l0 -3.578125l3.6875 0q5.78125 0 5.78125 5.21875l0 0.984375zm-7.71875 16.5l0 -4.3125l4.3125 0l0 4.3125l-4.3125 0z" fill-rule="nonzero"/><path fill="#8e7cc3" d="m352.92856 455.7047l252.37796 0l0 70.48822l-252.37796 0z" fill-rule="evenodd"/><path stroke="#000000" stroke-width="1.0" stroke-linejoin="round" stroke-linecap="butt" d="m352.92856 455.7047l252.37796 0l0 70.48822l-252.37796 0z" fill-rule="evenodd"/><path fill="#000000" d="m482.85852 501.88882l-3.0937805 -7.28125l-3.265625 7.28125l-4.265625 0l5.5 -11.71875l-5.03125 -10.984375l4.28125 0l2.828125 6.453125l2.8906555 -6.453125l4.25 0l-5.140625 10.953125l5.4375 11.75l-4.390625 0z" fill-rule="nonzero"/><path fill="#000000" fill-opacity="0.0" d="m4.5485563 13.807087l273.92126 0l0 70.48819l-273.92126 0z" fill-rule="evenodd"/><path fill="#d4d4d4" d="m104.55824 40.86618l0 19.125l-3.90625 0l0 -19.125l-4.734375 0l0 -3.578125l13.359375 0l0 3.578125l-4.71875 0zm6.388321 -3.578125l3.859375 0l-0.03125 6.25q0.140625 -0.125 1.703125 -0.125l0.796875 0q2.734375 0 4.125 1.34375q1.40625 1.34375 1.40625 4.1875l0 11.046875l-3.859375 0l0 -11.65625q0 -0.65625 -0.359375 -1.015625q-0.359375 -0.359375 -1.0 -0.359375l-1.421875 0q-0.71875 0 -1.046875 0.328125q-0.3125 0.3125 -0.3125 0.640625l0 12.0625l-3.859375 0l0 -22.703125zm20.890076 22.703125q-2.953125 0 -4.40625 -1.3125q-1.4375 -1.328125 -1.4375 -4.21875l0 -5.515625q0 -2.90625 1.328125 -4.21875q1.328125 -1.3125 4.203125 -1.3125l0.828125 0q2.46875 0 3.75 1.40625q1.296875 1.390625 1.296875 3.96875l0 4.609375l-7.546875 0l0 1.671875q0 0.671875 0.390625 1.03125q0.390625 0.34375 1.28125 0.34375l4.890625 0l0 3.546875l-4.578125 0zm1.765625 -10.140625l0 -1.671875q0 -0.53125 -0.34375 -0.875q-0.34375 -0.34375 -0.875 -0.34375l-1.15625 0q-0.828125 0 -1.109375 0.3125q-0.265625 0.3125 -0.265625 1.0625l0 1.515625l3.75 0zm27.584625 4.671875q0 2.921875 -1.40625 4.203125q-1.40625 1.265625 -4.4375 1.265625l-6.625 0l0 -22.703125l6.265625 0q2.96875 0 4.578125 1.28125q1.625 1.28125 1.625 4.125l0 11.828125zm-3.921875 -12.109375q0 -0.75 -0.421875 -1.15625q-0.421875 -0.421875 -1.1875 -0.421875l-3.03125 0l0 15.609375l3.0 0q0.921875 0 1.28125 -0.359375q0.359375 -0.359375 0.359375 -1.25l0 -12.421875zm12.953354 17.578125q-2.953125 0 -4.40625 -1.3125q-1.4375 -1.328125 -1.4375 -4.21875l0 -5.515625q0 -2.90625 1.328125 -4.21875q1.328125 -1.3125 4.203125 -1.3125l0.828125 0q2.46875 0 3.75 1.40625q1.296875 1.390625 1.296875 3.96875l0 4.609375l-7.546875 0l0 1.671875q0 0.671875 0.390625 1.03125q0.390625 0.34375 1.28125 0.34375l4.890625 0l0 3.546875l-4.578125 0zm1.765625 -10.140625l0 -1.671875q0 -0.53125 -0.34375 -0.875q-0.34375 -0.34375 -0.875 -0.34375l-1.15625 0q-0.828125 0 -1.109375 0.3125q-0.265625 0.3125 -0.265625 1.0625l0 1.515625l3.75 0zm10.067108 10.140625q-1.296875 0 -2.265625 -0.90625q-0.96875 -0.921875 -0.96875 -2.78125l0 -19.015625l3.859375 0l0 18.859375q0 0.203125 0.046875 0.25q0.046875 0.046875 0.40625 0.046875l1.234375 0l0 3.546875l-2.3125 0zm4.4297028 -18.703125l0 -4.0l4.171875 0l0 4.0l-4.171875 0zm0.15625 18.703125l0 -16.578125l3.859375 0l0 16.578125l-3.859375 0zm19.370178 -5.53125q0 2.859375 -1.46875 4.203125q-1.453125 1.328125 -4.375 1.328125l-6.015625 0l0 -22.703125l3.859375 0l-0.03125 6.25q0.140625 -0.125 1.703125 -0.125l0.484375 0q2.953125 0 4.390625 1.328125q1.453125 1.3125 1.453125 4.203125l0 5.515625zm-6.640625 -7.5q-0.71875 0 -1.046875 0.359375q-0.3125 0.34375 -0.3125 0.703125l0 8.421875l2.46875 0q0.890625 0 1.28125 -0.34375q0.390625 -0.359375 0.390625 -1.03125l0 -6.734375q0 -0.671875 -0.390625 -1.015625q-0.390625 -0.359375 -1.28125 -0.359375l-1.109375 0zm15.518051 13.03125q-2.953125 0 -4.40625 -1.3125q-1.4375 -1.328125 -1.4375 -4.21875l0 -5.515625q0 -2.90625 1.328125 -4.21875q1.328125 -1.3125 4.203125 -1.3125l0.828125 0q2.46875 0 3.75 1.40625q1.296875 1.390625 1.296875 3.96875l0 4.609375l-7.546875 0l0 1.671875q0 0.671875 0.390625 1.03125q0.390625 0.34375 1.28125 0.34375l4.890625 0l0 3.546875l-4.578125 0zm1.765625 -10.140625l0 -1.671875q0 -0.53125 -0.34375 -0.875q-0.34375 -0.34375 -0.875 -0.34375l-1.15625 0q-0.828125 0 -1.109375 0.3125q-0.265625 0.3125 -0.265625 1.0625l0 1.515625l3.75 0zm6.988983 -6.4375l3.703125 0l-0.234375 0.625q0.40625 -0.625 2.0625 -0.625l2.859375 0l0 3.703125l-3.171875 0q-0.6875 0 -1.03125 0.46875q-0.328125 0.453125 -0.328125 0.890625l0 11.515625l-3.859375 0l0 -16.578125zm19.727097 16.578125q-0.5625 0 -1.171875 -0.3125q-0.59375 -0.3125 -0.515625 -0.546875q-0.390625 0.859375 -1.875 0.859375l-2.109375 0q-2.5625 0 -3.828125 -1.109375q-1.25 -1.109375 -1.25 -3.65625l0 -0.609375q0 -5.375 5.109375 -5.375l2.5625 0l0 -0.90625q0 -0.671875 -0.390625 -1.015625q-0.390625 -0.359375 -1.28125 -0.359375l-4.765625 0l0 -3.546875l4.453125 0q2.921875 0 4.375 1.34375q1.46875 1.328125 1.46875 4.1875l0 7.359375q0 0.125 0.125 0.21875q0.140625 0.078125 1.40625 0.078125l0 3.390625l-2.3125 0zm-3.859375 -3.546875q0.546875 0 0.65625 -0.203125q0.125 -0.203125 0.125 -0.703125l0 -2.75l-2.59375 0q-0.53125 0 -0.875 0.34375q-0.34375 0.34375 -0.34375 0.875l0 1.53125q0 0.53125 0.1875 0.71875q0.1875 0.1875 0.71875 0.1875l2.125 0zm12.595978 3.546875q-1.859375 0 -2.859375 -1.203125q-0.984375 -1.21875 -0.984375 -3.09375l0 -8.734375l-2.0 0l0 -3.546875l2.0 0l0 -3.671875l3.859375 0l0 3.671875l3.546875 0l0 3.546875l-3.546875 0l0 8.875q0 0.390625 0.125 0.5q0.140625 0.109375 0.625 0.109375l2.796875 0l0 3.546875l-3.5625 0zm11.065369 0q-2.953125 0 -4.40625 -1.3125q-1.4375 -1.328125 -1.4375 -4.21875l0 -5.515625q0 -2.90625 1.328125 -4.21875q1.328125 -1.3125 4.203125 -1.3125l0.828125 0q2.46875 0 3.75 1.40625q1.296875 1.390625 1.296875 3.96875l0 4.609375l-7.546875 0l0 1.671875q0 0.671875 0.390625 1.03125q0.390625 0.34375 1.28125 0.34375l4.890625 0l0 3.546875l-4.578125 0zm1.765625 -10.140625l0 -1.671875q0 -0.53125 -0.34375 -0.875q-0.34375 -0.34375 -0.875 -0.34375l-1.15625 0q-0.828125 0 -1.109375 0.3125q-0.265625 0.3125 -0.265625 1.0625l0 1.515625l3.75 0z" fill-rule="nonzero"/><path fill="#000000" fill-opacity="0.0" d="m4.5485563 102.63316l273.92126 0l0 70.48819l-273.92126 0z" fill-rule="evenodd"/><path fill="#d4d4d4" d="m53.270725 129.69226l0 19.125l-3.90625 0l0 -19.125l-4.734375 0l0 -3.578125l13.359375 0l0 3.578125l-4.71875 0zm6.388321 -3.578125l3.859375 0l-0.03125 6.25q0.140625 -0.125 1.7031212 -0.125l0.796875 0q2.734375 0 4.125 1.34375q1.40625 1.34375 1.40625 4.1875l0 11.046875l-3.859375 0l0 -11.65625q0 -0.65625 -0.359375 -1.015625q-0.359375 -0.359375 -1.0 -0.359375l-1.421875 0q-0.71875 0 -1.0468712 0.328125q-0.3125 0.3125 -0.3125 0.640625l0 12.0625l-3.859375 0l0 -22.703125zm20.890072 22.703125q-2.953125 0 -4.40625 -1.3125q-1.4375 -1.328125 -1.4375 -4.21875l0 -5.515625q0 -2.90625 1.328125 -4.21875q1.328125 -1.3125 4.203125 -1.3125l0.828125 0q2.46875 0 3.75 1.40625q1.296875 1.390625 1.296875 3.96875l0 4.609375l-7.546875 0l0 1.671875q0 0.671875 0.390625 1.03125q0.390625 0.34375 1.28125 0.34375l4.890625 0l0 3.546875l-4.578125 0zm1.765625 -10.140625l0 -1.671875q0 -0.53125 -0.34375 -0.875q-0.34375 -0.34375 -0.875 -0.34375l-1.15625 0q-0.828125 0 -1.109375 0.3125q-0.265625 0.3125 -0.265625 1.0625l0 1.515625l3.75 0zm24.834625 9.703125q-0.921875 0.4375 -2.84375 0.4375l-1.046875 0q-2.90625 0 -4.53125 -1.46875q-1.609375 -1.484375 -1.609375 -4.375l0 -11.03125q0 -2.890625 1.625 -4.359375q1.625 -1.46875 4.515625 -1.46875l1.046875 0q2.921875 0 4.53125 1.46875q1.609375 1.46875 1.609375 4.359375l0 11.03125q0 1.984375 -0.5625 2.890625l2.390625 2.390625l-2.640625 2.640625l-2.484375 -2.515625zm-0.625 -17.015625q0 -0.6875 -0.515625 -1.171875q-0.515625 -0.5 -1.390625 -0.5l-1.65625 0q-0.890625 0 -1.40625 0.5q-0.515625 0.484375 -0.515625 1.171875l0 12.203125q0 0.6875 0.515625 1.1875q0.515625 0.484375 1.40625 0.484375l1.65625 0q0.921875 0 1.40625 -0.421875q0.5 -0.4375 0.5 -1.25l0 -12.203125zm15.317673 16.828125q-0.4375 0.625 -2.078125 0.625l-0.4375 0q-2.734375 0 -4.140625 -1.34375q-1.390625 -1.34375 -1.390625 -4.1875l0 -11.046875l3.859375 0l0 11.65625q0 0.65625 0.359375 1.015625q0.359375 0.359375 1.0 0.359375l1.046875 0q0.71875 0 1.03125 -0.3125q0.3125 -0.328125 0.34375 -0.6875l0 -12.03125l3.84375 0l0 16.578125l-3.703125 0l0.265625 -0.625zm16.772202 0.625q-0.5625 0 -1.171875 -0.3125q-0.59375 -0.3125 -0.515625 -0.546875q-0.390625 0.859375 -1.875 0.859375l-2.109375 0q-2.5625 0 -3.828125 -1.109375q-1.25 -1.109375 -1.25 -3.65625l0 -0.609375q0 -5.375 5.109375 -5.375l2.5625 0l0 -0.90625q0 -0.671875 -0.390625 -1.015625q-0.390625 -0.359375 -1.28125 -0.359375l-4.765625 0l0 -3.546875l4.453125 0q2.921875 0 4.375 1.34375q1.46875 1.328125 1.46875 4.1875l0 7.359375q0 0.125 0.125 0.21875q0.140625 0.078125 1.40625 0.078125l0 3.390625l-2.3125 0zm-3.859375 -3.546875q0.546875 0 0.65625 -0.203125q0.125 -0.203125 0.125 -0.703125l0 -2.75l-2.59375 0q-0.53125 0 -0.875 0.34375q-0.34375 0.34375 -0.34375 0.875l0 1.53125q0 0.53125 0.1875 0.71875q0.1875 0.1875 0.71875 0.1875l2.125 0zm8.595978 -13.03125l3.703125 0l-0.234375 0.625q0.40625 -0.625 2.0625 -0.625l2.859375 0l0 3.703125l-3.171875 0q-0.6875 0 -1.03125 0.46875q-0.328125 0.453125 -0.328125 0.890625l0 11.515625l-3.859375 0l0 -16.578125zm14.208557 16.578125q-1.859375 0 -2.859375 -1.203125q-0.984375 -1.21875 -0.984375 -3.09375l0 -8.734375l-2.0 0l0 -3.546875l2.0 0l0 -3.671875l3.859375 0l0 3.671875l3.546875 0l0 3.546875l-3.546875 0l0 8.875q0 0.390625 0.125 0.5q0.140625 0.109375 0.625 0.109375l2.796875 0l0 3.546875l-3.5625 0zm11.065369 0q-2.953125 0 -4.40625 -1.3125q-1.4375 -1.328125 -1.4375 -4.21875l0 -5.515625q0 -2.90625 1.328125 -4.21875q1.328125 -1.3125 4.203125 -1.3125l0.828125 0q2.46875 0 3.75 1.40625q1.296875 1.390625 1.296875 3.96875l0 4.609375l-7.546875 0l0 1.671875q0 0.671875 0.390625 1.03125q0.390625 0.34375 1.28125 0.34375l4.890625 0l0 3.546875l-4.578125 0zm1.765625 -10.140625l0 -1.671875q0 -0.53125 -0.34375 -0.875q-0.34375 -0.34375 -0.875 -0.34375l-1.15625 0q-0.828125 0 -1.109375 0.3125q-0.265625 0.3125 -0.265625 1.0625l0 1.515625l3.75 0zm6.988983 -6.4375l3.703125 0l-0.234375 0.625q0.40625 -0.625 2.0625 -0.625l2.859375 0l0 3.703125l-3.171875 0q-0.6875 0 -1.03125 0.46875q-0.328125 0.453125 -0.328125 0.890625l0 11.515625l-3.859375 0l0 -16.578125zm8.678146 8.140625l0 -3.546875l11.203125 0l0 3.546875l-11.203125 0zm26.721756 8.4375l0.625 -19.875l-2.78125 12.671875l-3.515625 0l-2.796875 -12.671875l0.625 19.875l-3.703125 0l0 -22.703125l5.421875 0l2.3125 9.046875l2.28125 -9.046875l5.328125 0l0 22.703125l-3.796875 0zm17.282242 0q-0.5625 0 -1.171875 -0.3125q-0.59375 -0.3125 -0.515625 -0.546875q-0.390625 0.859375 -1.875 0.859375l-2.109375 0q-2.5625 0 -3.828125 -1.109375q-1.25 -1.109375 -1.25 -3.65625l0 -0.609375q0 -5.375 5.109375 -5.375l2.5625 0l0 -0.90625q0 -0.671875 -0.390625 -1.015625q-0.390625 -0.359375 -1.28125 -0.359375l-4.765625 0l0 -3.546875l4.453125 0q2.921875 0 4.375 1.34375q1.46875 1.328125 1.46875 4.1875l0 7.359375q0 0.125 0.125 0.21875q0.140625 0.078125 1.40625 0.078125l0 3.390625l-2.3125 0zm-3.859375 -3.546875q0.546875 0 0.65625 -0.203125q0.125 -0.203125 0.125 -0.703125l0 -2.75l-2.59375 0q-0.53125 0 -0.875 0.34375q-0.34375 0.34375 -0.34375 0.875l0 1.53125q0 0.53125 0.1875 0.71875q0.1875 0.1875 0.71875 0.1875l2.125 0zm12.595978 3.546875q-1.859375 0 -2.859375 -1.203125q-0.984375 -1.21875 -0.984375 -3.09375l0 -8.734375l-2.0 0l0 -3.546875l2.0 0l0 -3.671875l3.859375 0l0 3.671875l3.546875 0l0 3.546875l-3.546875 0l0 8.875q0 0.390625 0.125 0.5q0.140625 0.109375 0.625 0.109375l2.796875 0l0 3.546875l-3.5625 0zm11.065369 0q-2.953125 0 -4.40625 -1.3125q-1.4375 -1.328125 -1.4375 -4.21875l0 -5.515625q0 -2.859375 1.453125 -4.1875q1.46875 -1.34375 4.390625 -1.34375l3.96875 0l0 3.546875l-4.28125 0q-0.890625 0 -1.28125 0.359375q-0.390625 0.34375 -0.390625 1.015625l0 6.734375q0 0.671875 0.390625 1.03125q0.390625 0.34375 1.28125 0.34375l4.28125 0l0 3.546875l-3.96875 0zm6.7006226 -22.703125l3.859375 0l-0.03125 6.25q0.140625 -0.125 1.703125 -0.125l0.796875 0q2.734375 0 4.125 1.34375q1.40625 1.34375 1.40625 4.1875l0 11.046875l-3.859375 0l0 -11.65625q0 -0.65625 -0.359375 -1.015625q-0.359375 -0.359375 -1.0 -0.359375l-1.421875 0q-0.71875 0 -1.046875 0.328125q-0.3125 0.3125 -0.3125 0.640625l0 12.0625l-3.859375 0l0 -22.703125z" fill-rule="nonzero"/><path fill="#000000" fill-opacity="0.0" d="m4.5485563 190.90103l273.92126 0l0 70.48819l-273.92126 0z" fill-rule="evenodd"/><path fill="#d4d4d4" d="m59.021366 237.08511q-2.90625 0 -4.53125 -1.46875q-1.609375 -1.484375 -1.609375 -4.375l0 -11.03125q0 -2.890625 1.625 -4.359375q1.625 -1.46875 4.515625 -1.46875l4.375 0l0 3.578125l-4.671875 0q-0.890625 0 -1.40625 0.5q-0.515625 0.484375 -0.515625 1.171875l0 12.203125q0 0.6875 0.515625 1.1875q0.515625 0.484375 1.40625 0.484375l4.671875 0l0 3.578125l-4.375 0zm18.258266 -5.53125q0 2.859375 -1.46875 4.203125q-1.453125 1.328125 -4.375 1.328125l-0.390625 0q-2.921875 0 -4.390625 -1.328125q-1.453125 -1.34375 -1.453125 -4.203125l0 -5.515625q0 -2.859375 1.453125 -4.1875q1.46875 -1.34375 4.390625 -1.34375l0.390625 0q2.921875 0 4.375 1.34375q1.46875 1.328125 1.46875 4.1875l0 5.515625zm-3.859375 -6.125q0 -0.671875 -0.390625 -1.015625q-0.375 -0.359375 -1.28125 -0.359375l-1.015625 0q-0.890625 0 -1.28125 0.359375q-0.390625 0.34375 -0.390625 1.015625l0 6.734375q0 0.671875 0.390625 1.03125q0.390625 0.34375 1.28125 0.34375l1.015625 0q0.90625 0 1.28125 -0.34375q0.390625 -0.359375 0.390625 -1.03125l0 -6.734375zm10.285446 11.65625q-1.296875 0 -2.265625 -0.90625q-0.96875 -0.921875 -0.96875 -2.78125l0 -19.015625l3.859375 0l0 18.859375q0 0.203125 0.046875 0.25q0.046875 0.046875 0.40625 0.046875l1.234375 0l0 3.546875l-2.3125 0zm7.6640778 0q-1.296875 0 -2.265625 -0.90625q-0.96875 -0.921875 -0.96875 -2.78125l0 -19.015625l3.859375 0l0 18.859375q0 0.203125 0.046875 0.25q0.046875 0.046875 0.40625 0.046875l1.234375 0l0 3.546875l-2.3125 0zm10.117203 0q-2.953125 0 -4.40625 -1.3125q-1.4375 -1.328125 -1.4375 -4.21875l0 -5.515625q0 -2.90625 1.328125 -4.21875q1.328125 -1.3125 4.203125 -1.3125l0.828125 0q2.46875 0 3.75 1.40625q1.296875 1.390625 1.296875 3.96875l0 4.609375l-7.546875 0l0 1.671875q0 0.671875 0.390625 1.03125q0.390625 0.34375 1.28125 0.34375l4.890625 0l0 3.546875l-4.578125 0zm1.765625 -10.140625l0 -1.671875q0 -0.53125 -0.34375 -0.875q-0.34375 -0.34375 -0.875 -0.34375l-1.15625 0q-0.828125 0 -1.109375 0.3125q-0.265625 0.3125 -0.265625 1.0625l0 1.515625l3.75 0zm12.520233 10.140625q-2.953125 0 -4.40625 -1.3125q-1.4375 -1.328125 -1.4375 -4.21875l0 -5.515625q0 -2.859375 1.453125 -4.1875q1.46875 -1.34375 4.390625 -1.34375l3.96875 0l0 3.546875l-4.28125 0q-0.890625 0 -1.28125 0.359375q-0.390625 0.34375 -0.390625 1.015625l0 6.734375q0 0.671875 0.390625 1.03125q0.390625 0.34375 1.28125 0.34375l4.28125 0l0 3.546875l-3.96875 0zm10.700623 0q-1.859375 0 -2.859375 -1.203125q-0.984375 -1.21875 -0.984375 -3.09375l0 -8.734375l-2.0 0l0 -3.546875l2.0 0l0 -3.671875l3.859375 0l0 3.671875l3.546875 0l0 3.546875l-3.546875 0l0 8.875q0 0.390625 0.125 0.5q0.140625 0.109375 0.625 0.109375l2.796875 0l0 3.546875l-3.5625 0zm5.3778687 -18.703125l0 -4.0l4.171875 0l0 4.0l-4.171875 0zm0.15625 18.703125l0 -16.578125l3.859375 0l0 16.578125l-3.859375 0zm15.151428 0l-4.734375 0l-4.46875 -16.578125l4.078125 0l2.8125 11.1875l2.75 -11.1875l4.0 0l-4.4375 16.578125zm11.593842 0q-2.953125 0 -4.40625 -1.3125q-1.4375 -1.328125 -1.4375 -4.21875l0 -5.515625q0 -2.90625 1.328125 -4.21875q1.328125 -1.3125 4.203125 -1.3125l0.828125 0q2.46875 0 3.75 1.40625q1.296875 1.390625 1.296875 3.96875l0 4.609375l-7.546875 0l0 1.671875q0 0.671875 0.390625 1.03125q0.390625 0.34375 1.28125 0.34375l4.890625 0l0 3.546875l-4.578125 0zm1.765625 -10.140625l0 -1.671875q0 -0.53125 -0.34375 -0.875q-0.34375 -0.34375 -0.875 -0.34375l-1.15625 0q-0.828125 0 -1.109375 0.3125q-0.265625 0.3125 -0.265625 1.0625l0 1.515625l3.75 0zm25.522125 4.296875q0 2.890625 -1.609375 4.375q-1.609375 1.46875 -4.53125 1.46875l-4.671875 0l0 -3.578125l4.984375 0q0.875 0 1.390625 -0.484375q0.53125 -0.5 0.53125 -1.1875l0 -3.1875q0 -0.6875 -0.3125 -1.0625q-0.3125 -0.375 -0.96875 -0.375l-0.609375 0q-2.53125 0 -4.03125 -1.515625q-1.5 -1.515625 -1.5 -4.3125l0 -1.171875q0 -2.890625 1.609375 -4.359375q1.609375 -1.46875 4.53125 -1.46875l4.703125 0l0 3.578125l-5.015625 0q-0.875 0 -1.390625 0.5q-0.515625 0.484375 -0.515625 1.171875l0 2.328125q0 0.703125 0.421875 1.140625q0.4375 0.4375 1.15625 0.4375l0.609375 0q2.4375 0 3.828125 1.453125q1.390625 1.4375 1.390625 4.234375l0 2.015625zm2.89563 -16.859375l3.859375 0l-0.03125 6.25q0.140625 -0.125 1.703125 -0.125l0.796875 0q2.734375 0 4.125 1.34375q1.40625 1.34375 1.40625 4.1875l0 11.046875l-3.859375 0l0 -11.65625q0 -0.65625 -0.359375 -1.015625q-0.359375 -0.359375 -1.0 -0.359375l-1.421875 0q-0.71875 0 -1.046875 0.328125q-0.3125 0.3125 -0.3125 0.640625l0 12.0625l-3.859375 0l0 -22.703125zm25.0307 22.703125q-0.5625 0 -1.171875 -0.3125q-0.59375 -0.3125 -0.515625 -0.546875q-0.390625 0.859375 -1.875 0.859375l-2.109375 0q-2.5625 0 -3.828125 -1.109375q-1.25 -1.109375 -1.25 -3.65625l0 -0.609375q0 -5.375 5.109375 -5.375l2.5625 0l0 -0.90625q0 -0.671875 -0.390625 -1.015625q-0.390625 -0.359375 -1.28125 -0.359375l-4.765625 0l0 -3.546875l4.453125 0q2.921875 0 4.375 1.34375q1.46875 1.328125 1.46875 4.1875l0 7.359375q0 0.125 0.125 0.21875q0.140625 0.078125 1.40625 0.078125l0 3.390625l-2.3125 0zm-3.859375 -3.546875q0.546875 0 0.65625 -0.203125q0.125 -0.203125 0.125 -0.703125l0 -2.75l-2.59375 0q-0.53125 0 -0.875 0.34375q-0.34375 0.34375 -0.34375 0.875l0 1.53125q0 0.53125 0.1875 0.71875q0.1875 0.1875 0.71875 0.1875l2.125 0zm8.595978 -13.03125l3.703125 0l-0.265625 0.625q0.375 -0.625 2.09375 -0.625l0.484375 0q2.953125 0 4.390625 1.328125q1.453125 1.3125 1.453125 4.203125l0 5.515625q0 2.859375 -1.46875 4.203125q-1.453125 1.328125 -4.375 1.328125l-2.15625 0l0 5.21875l-3.859375 0l0 -21.796875zm5.21875 3.546875q-0.71875 0 -1.046875 0.359375q-0.3125 0.34375 -0.3125 0.703125l0 8.421875l2.46875 0q0.890625 0 1.28125 -0.34375q0.390625 -0.359375 0.390625 -1.03125l0 -6.734375q0 -0.671875 -0.390625 -1.015625q-0.390625 -0.359375 -1.28125 -0.359375l-1.109375 0zm9.830551 -5.671875l0 -4.0l4.171875 0l0 4.0l-4.171875 0zm0.15625 18.703125l0 -16.578125l3.859375 0l0 16.578125l-3.859375 0zm7.510803 -16.578125l3.703125 0l-0.265625 0.625q0.375 -0.625 2.09375 -0.625l0.796875 0q2.734375 0 4.125 1.34375q1.40625 1.34375 1.40625 4.1875l0 11.046875l-3.859375 0l0 -11.65625q0 -0.65625 -0.359375 -1.015625q-0.359375 -0.359375 -1.0 -0.359375l-1.421875 0q-0.71875 0 -1.046875 0.359375q-0.3125 0.34375 -0.3125 0.703125l0 11.96875l-3.859375 0l0 -16.578125zm27.765076 17.03125q0 2.375 -1.453125 3.5625q-1.4375 1.203125 -4.296875 1.203125l-6.8125 0l0 -3.5625l7.125 0q0.890625 0 1.234375 -0.265625q0.34375 -0.265625 0.34375 -0.640625l0 -0.96875q0 -0.40625 -0.34375 -0.65625q-0.328125 -0.265625 -1.234375 -0.265625l-5.75 0l0 -4.484375q-0.859375 -0.46875 -1.421875 -1.65625q-0.5625 -1.203125 -0.5625 -3.0l0 -0.765625q0 -2.859375 1.453125 -4.1875q1.46875 -1.34375 4.375 -1.34375l6.890625 0l0 6.296875q0 2.546875 -1.4375 4.046875q-1.4375 1.484375 -3.796875 1.484375l-1.640625 0l0 0.0625l1.578125 0q2.859375 0 4.296875 1.203125q1.453125 1.1875 1.453125 3.5625l0 0.375zm-5.6875 -8.75q0.65625 0 0.984375 -0.421875q0.34375 -0.4375 0.390625 -0.890625l0 -3.421875l-3.328125 0q-0.90625 0 -1.296875 0.359375q-0.375 0.34375 -0.375 1.015625l0 1.984375q0 0.671875 0.375 1.03125q0.390625 0.34375 1.296875 0.34375l1.953125 0z" fill-rule="nonzero"/><path fill="#000000" fill-opacity="0.0" d="m4.5485563 279.16888l273.92126 0l0 70.48819l-273.92126 0z" fill-rule="evenodd"/><path fill="#d4d4d4" d="m199.15132 325.35297q-2.90625 0 -4.53125 -1.46875q-1.609375 -1.484375 -1.609375 -4.375l0 -11.03125q0 -2.890625 1.625 -4.359375q1.625 -1.46875 4.515625 -1.46875l4.375 0l0 3.578125l-4.671875 0q-0.890625 0 -1.40625 0.5q-0.515625 0.484375 -0.515625 1.171875l0 12.203125q0 0.6875 0.515625 1.1875q0.515625 0.484375 1.40625 0.484375l4.671875 0l0 3.578125l-4.375 0zm9.877441 0q-1.296875 0 -2.265625 -0.90625q-0.96875 -0.921875 -0.96875 -2.78125l0 -19.015625l3.859375 0l0 18.859375q0 0.203125 0.046875 0.25q0.046875 0.046875 0.40625 0.046875l1.234375 0l0 3.546875l-2.3125 0zm14.257828 0q-0.5625 0 -1.171875 -0.3125q-0.59375 -0.3125 -0.515625 -0.546875q-0.390625 0.859375 -1.875 0.859375l-2.109375 0q-2.5625 0 -3.828125 -1.109375q-1.25 -1.109375 -1.25 -3.65625l0 -0.609375q0 -5.375 5.109375 -5.375l2.5625 0l0 -0.90625q0 -0.671875 -0.390625 -1.015625q-0.390625 -0.359375 -1.28125 -0.359375l-4.765625 0l0 -3.546875l4.453125 0q2.921875 0 4.375 1.34375q1.46875 1.328125 1.46875 4.1875l0 7.359375q0 0.125 0.125 0.21875q0.140625 0.078125 1.40625 0.078125l0 3.390625l-2.3125 0zm-3.859375 -3.546875q0.546875 0 0.65625 -0.203125q0.125 -0.203125 0.125 -0.703125l0 -2.75l-2.59375 0q-0.53125 0 -0.875 0.34375q-0.34375 0.34375 -0.34375 0.875l0 1.53125q0 0.53125 0.1875 0.71875q0.1875 0.1875 0.71875 0.1875l2.125 0zm17.939728 -0.90625q0 2.21875 -1.390625 3.34375q-1.375 1.109375 -3.828125 1.109375l-4.578125 0l0 -3.546875l4.875 0q0.609375 0 0.828125 -0.1875q0.234375 -0.1875 0.234375 -0.5625l0 -1.625q0 -0.765625 -0.6875 -0.765625l-0.53125 0q-2.375 0 -3.625 -1.09375q-1.25 -1.109375 -1.25 -3.421875l0 -0.890625q0 -2.359375 1.359375 -3.421875q1.375 -1.0625 3.859375 -1.0625l4.125 0l0 3.546875l-4.4375 0q-0.546875 0 -0.8125 0.203125q-0.25 0.1875 -0.25 0.546875l0 1.109375q0 0.40625 0.203125 0.578125q0.21875 0.171875 0.65625 0.171875l0.421875 0q2.3125 0 3.5625 1.1875q1.265625 1.171875 1.265625 3.390625l0 1.390625zm11.925201 0q0 2.21875 -1.390625 3.34375q-1.375 1.109375 -3.828125 1.109375l-4.578125 0l0 -3.546875l4.875 0q0.609375 0 0.828125 -0.1875q0.234375 -0.1875 0.234375 -0.5625l0 -1.625q0 -0.765625 -0.6875 -0.765625l-0.53125 0q-2.375 0 -3.625 -1.09375q-1.25 -1.109375 -1.25 -3.421875l0 -0.890625q0 -2.359375 1.359375 -3.421875q1.375 -1.0625 3.859375 -1.0625l4.125 0l0 3.546875l-4.4375 0q-0.546875 0 -0.8125 0.203125q-0.25 0.1875 -0.25 0.546875l0 1.109375q0 0.40625 0.203125 0.578125q0.21875 0.171875 0.65625 0.171875l0.421875 0q2.3125 0 3.5625 1.1875q1.265625 1.171875 1.265625 3.390625l0 1.390625zm2.7318726 -14.25l0 -4.0l4.171875 0l0 4.0l-4.171875 0zm0.15625 18.703125l0 -16.578125l3.859375 0l0 16.578125l-3.859375 0zm13.042053 0q-2.953125 0 -4.40625 -1.3125q-1.4375 -1.328125 -1.4375 -4.21875l0 -5.515625q0 -2.859375 1.453125 -4.1875q1.46875 -1.34375 4.390625 -1.34375l3.96875 0l0 3.546875l-4.28125 0q-0.890625 0 -1.28125 0.359375q-0.390625 0.34375 -0.390625 1.015625l0 6.734375q0 0.671875 0.390625 1.03125q0.390625 0.34375 1.28125 0.34375l4.28125 0l0 3.546875l-3.96875 0z" fill-rule="nonzero"/><path fill="#000000" fill-opacity="0.0" d="m4.5485563 367.43674l273.92126 0l0 70.48819l-273.92126 0z" fill-rule="evenodd"/><path fill="#d4d4d4" d="m46.28092 394.49585l0 19.125l-3.90625 0l0 -19.125l-4.734375 0l0 -3.578125l13.359375 0l0 3.578125l-4.71875 0zm6.388321 -3.578125l3.859375 0l-0.03125 6.25q0.140625 -0.125 1.703125 -0.125l0.796875 0q2.734375 0 4.125 1.34375q1.4062462 1.34375 1.4062462 4.1875l0 11.046875l-3.8593712 0l0 -11.65625q0 -0.65625 -0.359375 -1.015625q-0.359375 -0.359375 -1.0 -0.359375l-1.421875 0q-0.71875 0 -1.046875 0.328125q-0.3125 0.3125 -0.3125 0.640625l0 12.0625l-3.859375 0l0 -22.703125zm20.890072 22.703125q-2.953125 0 -4.40625 -1.3125q-1.4375 -1.328125 -1.4375 -4.21875l0 -5.515625q0 -2.90625 1.328125 -4.21875q1.328125 -1.3125 4.203125 -1.3125l0.828125 0q2.46875 0 3.75 1.40625q1.296875 1.390625 1.296875 3.96875l0 4.609375l-7.546875 0l0 1.671875q0 0.671875 0.390625 1.03125q0.390625 0.34375 1.28125 0.34375l4.890625 0l0 3.546875l-4.578125 0zm1.765625 -10.140625l0 -1.671875q0 -0.53125 -0.34375 -0.875q-0.34375 -0.34375 -0.875 -0.34375l-1.15625 0q-0.828125 0 -1.109375 0.3125q-0.265625 0.3125 -0.265625 1.0625l0 1.515625l3.75 0zm20.944 10.140625q-2.90625 0 -4.53125 -1.46875q-1.609375 -1.484375 -1.609375 -4.375l0 -11.03125q0 -2.890625 1.625 -4.359375q1.625 -1.46875 4.515625 -1.46875l4.375 0l0 3.578125l-4.671875 0q-0.890625 0 -1.40625 0.5q-0.515625 0.484375 -0.515625 1.171875l0 12.203125q0 0.6875 0.515625 1.1875q0.515625 0.484375 1.40625 0.484375l4.671875 0l0 3.578125l-4.375 0zm18.25827 -5.53125q0 2.859375 -1.46875 4.203125q-1.453125 1.328125 -4.375 1.328125l-0.390625 0q-2.921875 0 -4.390625 -1.328125q-1.453125 -1.34375 -1.453125 -4.203125l0 -5.515625q0 -2.859375 1.453125 -4.1875q1.46875 -1.34375 4.390625 -1.34375l0.390625 0q2.921875 0 4.375 1.34375q1.46875 1.328125 1.46875 4.1875l0 5.515625zm-3.859375 -6.125q0 -0.671875 -0.390625 -1.015625q-0.375 -0.359375 -1.28125 -0.359375l-1.015625 0q-0.890625 0 -1.28125 0.359375q-0.390625 0.34375 -0.390625 1.015625l0 6.734375q0 0.671875 0.390625 1.03125q0.390625 0.34375 1.28125 0.34375l1.015625 0q0.90625 0 1.28125 -0.34375q0.390625 -0.359375 0.390625 -1.03125l0 -6.734375zm7.207321 -4.921875l3.703125 0l-0.265625 0.625q0.375 -0.625 2.09375 -0.625l0.1875 0q3.0625 0 3.96875 1.046875q0.84375 -1.046875 3.171875 -1.046875l0.1875 0q2.71875 0 4.109375 1.34375q1.40625 1.34375 1.40625 4.1875l0 11.046875l-3.84375 0l0 -11.65625q0 -0.65625 -0.359375 -1.015625q-0.359375 -0.359375 -1.015625 -0.359375l-0.796875 0q-0.65625 0 -0.96875 0.390625q-0.3125 0.375 -0.359375 0.796875l0 11.84375l-3.859375 0l0 -11.65625q0 -0.671875 -0.34375 -1.015625q-0.34375 -0.359375 -1.0 -0.359375l-0.796875 0q-0.71875 0 -1.046875 0.328125q-0.3125 0.3125 -0.3125 0.640625l0 12.0625l-3.859375 0l0 -16.578125zm22.07257 0l3.703125 0l-0.265625 0.625q0.375 -0.625 2.09375 -0.625l0.484375 0q2.953125 0 4.390625 1.328125q1.453125 1.3125 1.453125 4.203125l0 5.515625q0 2.859375 -1.46875 4.203125q-1.453125 1.328125 -4.375 1.328125l-2.15625 0l0 5.21875l-3.859375 0l0 -21.796875zm5.21875 3.546875q-0.71875 0 -1.046875 0.359375q-0.3125 0.34375 -0.3125 0.703125l0 8.421875l2.46875 0q0.890625 0 1.28125 -0.34375q0.390625 -0.359375 0.390625 -1.03125l0 -6.734375q0 -0.671875 -0.390625 -1.015625q-0.390625 -0.359375 -1.28125 -0.359375l-1.109375 0zm9.986801 -3.546875l3.703125 0l-0.234375 0.625q0.40625 -0.625 2.0625 -0.625l2.859375 0l0 3.703125l-3.171875 0q-0.6875 0 -1.03125 0.46875q-0.328125 0.453125 -0.328125 0.890625l0 11.515625l-3.859375 0l0 -16.578125zm15.2798 16.578125q-2.953125 0 -4.40625 -1.3125q-1.4375 -1.328125 -1.4375 -4.21875l0 -5.515625q0 -2.90625 1.328125 -4.21875q1.328125 -1.3125 4.203125 -1.3125l0.828125 0q2.46875 0 3.75 1.40625q1.296875 1.390625 1.296875 3.96875l0 4.609375l-7.546875 0l0 1.671875q0 0.671875 0.390625 1.03125q0.390625 0.34375 1.28125 0.34375l4.890625 0l0 3.546875l-4.578125 0zm1.765625 -10.140625l0 -1.671875q0 -0.53125 -0.34375 -0.875q-0.34375 -0.34375 -0.875 -0.34375l-1.15625 0q-0.828125 0 -1.109375 0.3125q-0.265625 0.3125 -0.265625 1.0625l0 1.515625l3.75 0zm6.988983 -12.5625l3.859375 0l-0.03125 6.25q0.140625 -0.125 1.703125 -0.125l0.796875 0q2.734375 0 4.125 1.34375q1.40625 1.34375 1.40625 4.1875l0 11.046875l-3.859375 0l0 -11.65625q0 -0.65625 -0.359375 -1.015625q-0.359375 -0.359375 -1.0 -0.359375l-1.421875 0q-0.71875 0 -1.046875 0.328125q-0.3125 0.3125 -0.3125 0.640625l0 12.0625l-3.859375 0l0 -22.703125zm20.890076 22.703125q-2.953125 0 -4.40625 -1.3125q-1.4375 -1.328125 -1.4375 -4.21875l0 -5.515625q0 -2.90625 1.328125 -4.21875q1.328125 -1.3125 4.203125 -1.3125l0.828125 0q2.46875 0 3.75 1.40625q1.296875 1.390625 1.296875 3.96875l0 4.609375l-7.546875 0l0 1.671875q0 0.671875 0.390625 1.03125q0.390625 0.34375 1.28125 0.34375l4.890625 0l0 3.546875l-4.578125 0zm1.765625 -10.140625l0 -1.671875q0 -0.53125 -0.34375 -0.875q-0.34375 -0.34375 -0.875 -0.34375l-1.15625 0q-0.828125 0 -1.109375 0.3125q-0.265625 0.3125 -0.265625 1.0625l0 1.515625l3.75 0zm6.988983 -6.4375l3.703125 0l-0.265625 0.625q0.375 -0.625 2.09375 -0.625l0.796875 0q2.734375 0 4.125 1.34375q1.40625 1.34375 1.40625 4.1875l0 11.046875l-3.859375 0l0 -11.65625q0 -0.65625 -0.359375 -1.015625q-0.359375 -0.359375 -1.0 -0.359375l-1.421875 0q-0.71875 0 -1.046875 0.359375q-0.3125 0.34375 -0.3125 0.703125l0 11.96875l-3.859375 0l0 -16.578125zm24.702576 12.125q0 2.21875 -1.390625 3.34375q-1.375 1.109375 -3.828125 1.109375l-4.578125 0l0 -3.546875l4.875 0q0.609375 0 0.828125 -0.1875q0.234375 -0.1875 0.234375 -0.5625l0 -1.625q0 -0.765625 -0.6875 -0.765625l-0.53125 0q-2.375 0 -3.625 -1.09375q-1.25 -1.109375 -1.25 -3.421875l0 -0.890625q0 -2.359375 1.359375 -3.421875q1.375 -1.0625 3.859375 -1.0625l4.125 0l0 3.546875l-4.4375 0q-0.546875 0 -0.8125 0.203125q-0.25 0.1875 -0.25 0.546875l0 1.109375q0 0.40625 0.203125 0.578125q0.21875 0.171875 0.65625 0.171875l0.421875 0q2.3125 0 3.5625 1.1875q1.265625 1.171875 1.265625 3.390625l0 1.390625zm2.7318726 -14.25l0 -4.0l4.171875 0l0 4.0l-4.171875 0zm0.15625 18.703125l0 -16.578125l3.859375 0l0 16.578125l-3.859375 0zm15.151428 0l-4.734375 0l-4.46875 -16.578125l4.078125 0l2.8125 11.1875l2.75 -11.1875l4.0 0l-4.4375 16.578125zm11.593842 0q-2.953125 0 -4.40625 -1.3125q-1.4375 -1.328125 -1.4375 -4.21875l0 -5.515625q0 -2.90625 1.328125 -4.21875q1.328125 -1.3125 4.203125 -1.3125l0.828125 0q2.46875 0 3.75 1.40625q1.296875 1.390625 1.296875 3.96875l0 4.609375l-7.546875 0l0 1.671875q0 0.671875 0.390625 1.03125q0.390625 0.34375 1.28125 0.34375l4.890625 0l0 3.546875l-4.578125 0zm1.765625 -10.140625l0 -1.671875q0 -0.53125 -0.34375 -0.875q-0.34375 -0.34375 -0.875 -0.34375l-1.15625 0q-0.828125 0 -1.109375 0.3125q-0.265625 0.3125 -0.265625 1.0625l0 1.515625l3.75 0z" fill-rule="nonzero"/><path fill="#000000" fill-opacity="0.0" d="m4.5485563 455.70462l273.92126 0l0 70.48819l-273.92126 0z" fill-rule="evenodd"/><path fill="#d4d4d4" d="m126.01764 482.7637l0 19.125l-3.90625 0l0 -19.125l-4.734375 0l0 -3.578125l13.359375 0l0 3.578125l-4.71875 0zm6.388321 -3.578125l3.859375 0l-0.03125 6.25q0.140625 -0.125 1.703125 -0.125l0.796875 0q2.734375 0 4.125 1.34375q1.40625 1.34375 1.40625 4.1875l0 11.046875l-3.859375 0l0 -11.65625q0 -0.65625 -0.359375 -1.015625q-0.359375 -0.359375 -1.0 -0.359375l-1.421875 0q-0.71875 0 -1.046875 0.328125q-0.3125 0.3125 -0.3125 0.640625l0 12.0625l-3.859375 0l0 -22.703125zm20.890076 22.703125q-2.953125 0 -4.40625 -1.3125q-1.4375 -1.328125 -1.4375 -4.21875l0 -5.515625q0 -2.90625 1.328125 -4.21875q1.328125 -1.3125 4.203125 -1.3125l0.828125 0q2.46875 0 3.75 1.40625q1.296875 1.390625 1.296875 3.96875l0 4.609375l-7.546875 0l0 1.671875q0 0.671875 0.390625 1.03125q0.390625 0.34375 1.28125 0.34375l4.890625 0l0 3.546875l-4.578125 0zm1.765625 -10.140625l0 -1.671875q0 -0.53125 -0.34375 -0.875q-0.34375 -0.34375 -0.875 -0.34375l-1.15625 0q-0.828125 0 -1.109375 0.3125q-0.265625 0.3125 -0.265625 1.0625l0 1.515625l3.75 0zm27.584625 4.671875q0 2.921875 -1.40625 4.203125q-1.40625 1.265625 -4.4375 1.265625l-6.625 0l0 -22.703125l6.265625 0q2.96875 0 4.578125 1.28125q1.625 1.28125 1.625 4.125l0 11.828125zm-3.921875 -12.109375q0 -0.75 -0.421875 -1.15625q-0.421875 -0.421875 -1.1875 -0.421875l-3.03125 0l0 15.609375l3.0 0q0.921875 0 1.28125 -0.359375q0.359375 -0.359375 0.359375 -1.25l0 -12.421875zm14.875229 18.453125q-0.375 1.453125 -0.828125 2.390625q-0.453125 0.953125 -1.328125 1.515625q-0.875 0.578125 -2.25 0.578125q-0.6875 0 -2.375 -0.265625l0 -3.5q1.53125 0.21875 2.21875 0.21875q0.375 0 0.625 -0.921875l0.484375 -1.0625l-0.453125 0.171875l-5.140625 -16.578125l4.125 0l3.046875 10.796875l2.546875 -10.796875l3.984375 0l-4.65625 17.453125zm6.740753 -17.453125l3.703125 0l-0.265625 0.625q0.375 -0.625 2.09375 -0.625l0.796875 0q2.734375 0 4.125 1.34375q1.40625 1.34375 1.40625 4.1875l0 11.046875l-3.859375 0l0 -11.65625q0 -0.65625 -0.359375 -1.015625q-0.359375 -0.359375 -1.0 -0.359375l-1.421875 0q-0.71875 0 -1.046875 0.359375q-0.3125 0.34375 -0.3125 0.703125l0 11.96875l-3.859375 0l0 -16.578125zm25.0307 16.578125q-0.5625 0 -1.171875 -0.3125q-0.59375 -0.3125 -0.515625 -0.546875q-0.390625 0.859375 -1.875 0.859375l-2.109375 0q-2.5625 0 -3.828125 -1.109375q-1.25 -1.109375 -1.25 -3.65625l0 -0.609375q0 -5.375 5.109375 -5.375l2.5625 0l0 -0.90625q0 -0.671875 -0.390625 -1.015625q-0.390625 -0.359375 -1.28125 -0.359375l-4.765625 0l0 -3.546875l4.453125 0q2.921875 0 4.375 1.34375q1.46875 1.328125 1.46875 4.1875l0 7.359375q0 0.125 0.125 0.21875q0.140625 0.078125 1.40625 0.078125l0 3.390625l-2.3125 0zm-3.859375 -3.546875q0.546875 0 0.65625 -0.203125q0.125 -0.203125 0.125 -0.703125l0 -2.75l-2.59375 0q-0.53125 0 -0.875 0.34375q-0.34375 0.34375 -0.34375 0.875l0 1.53125q0 0.53125 0.1875 0.71875q0.1875 0.1875 0.71875 0.1875l2.125 0zm8.595978 -13.03125l3.703125 0l-0.265625 0.625q0.375 -0.625 2.09375 -0.625l0.1875 0q3.0625 0 3.96875 1.046875q0.84375 -1.046875 3.171875 -1.046875l0.1875 0q2.71875 0 4.109375 1.34375q1.40625 1.34375 1.40625 4.1875l0 11.046875l-3.84375 0l0 -11.65625q0 -0.65625 -0.359375 -1.015625q-0.359375 -0.359375 -1.015625 -0.359375l-0.796875 0q-0.65625 0 -0.96875 0.390625q-0.3125 0.375 -0.359375 0.796875l0 11.84375l-3.859375 0l0 -11.65625q0 -0.671875 -0.34375 -1.015625q-0.34375 -0.359375 -1.0 -0.359375l-0.796875 0q-0.71875 0 -1.046875 0.328125q-0.3125 0.3125 -0.3125 0.640625l0 12.0625l-3.859375 0l0 -16.578125zm21.91632 -2.125l0 -4.0l4.171875 0l0 4.0l-4.171875 0zm0.15625 18.703125l0 -16.578125l3.859375 0l0 16.578125l-3.859375 0zm13.042053 0q-2.953125 0 -4.40625 -1.3125q-1.4375 -1.328125 -1.4375 -4.21875l0 -5.515625q0 -2.859375 1.453125 -4.1875q1.46875 -1.34375 4.390625 -1.34375l3.96875 0l0 3.546875l-4.28125 0q-0.890625 0 -1.28125 0.359375q-0.390625 0.34375 -0.390625 1.015625l0 6.734375q0 0.671875 0.390625 1.03125q0.390625 0.34375 1.28125 0.34375l4.28125 0l0 3.546875l-3.96875 0z" fill-rule="nonzero"/></g></svg>